{"asset":{"version":"2.0","generator":"Blockbench 3.9.3 glTF exporter"},"scenes":[{"nodes":[0,1,2,3,4,5,6,7,8,9,10,11,12,13,14,15,16,17,18,19,20,21,22,23],"name":"blockbench_export"}],"scene":0,"nodes":[{"name":"cff9956a-cdb9-ee9c-b5c2-47a55eba16e2","mesh":0},{"name":"8e06c9f2-657b-2da6-aad2-4e7a3f251d17","mesh":1},{"name":"0d87a609-f3de-0776-0c05-d20369ea208c","mesh":2},{"name":"907a529e-197f-d3fe-328c-81361c233370","mesh":3},{"name":"04332e1d-d24b-6896-80ae-02afa1b75b05","mesh":4},{"name":"3e463e40-e95e-938e-3a8a-b412a1c71c65","mesh":5},{"name":"adf2e950-4376-fa25-f658-86744de54f41","mesh":6},{"name":"f8a1891f-f797-484b-c164-8b17336dbcd5","mesh":7},{"name":"17f10941-b1bf-cca3-441a-162c147449bc","mesh":8},{"name":"3f0d7546-5c12-bd6b-130d-c7ae14753d32","mesh":9},{"name":"30a746fd-fe80-5579-637f-6df3e5cbdc95","mesh":10},{"name":"fe6a43be-081a-1633-eb1c-1daa3d578071","mesh":11},{"name":"0d916a57-283b-3a29-e273-63e2140b0059","mesh":12},{"name":"dd4794de-c5f6-978e-4f63-004b58acbf14","mesh":13},{"name":"df75c9d0-93c3-30be-f9ad-760a90947391","mesh":14},{"name":"4a2eab08-8669-f48f-0243-fe11d027d16f","mesh":15},{"name":"177456c8-d2c3-98d0-0e82-1ec5e43c18f5","mesh":16},{"name":"0fe7bcdb-63a7-1403-4e33-5eeee13c94c3","mesh":17},{"rotation":[-0.7071067811865474,0,0,0.7071067811865477],"translation":[0,0.484375,0.6999999999999997],"name":"97e10ba1-2790-4d05-d610-a636239b1157","mesh":18},{"rotation":[-0.7071067811865474,0,0,0.7071067811865477],"translation":[0,0.484375,0.6999999999999997],"name":"8bd984cd-3954-8545-cced-258e37b90b83","mesh":19},{"name":"ee32d28c-f4ee-b187-1c8a-b80c1fa8f7df","mesh":20},{"name":"461d0683-31ef-2b4f-e13a-edb2084fabd7","mesh":21},{"name":"80668c28-1846-b47d-c55e-62613898d441","mesh":22},{"name":"42c3c76e-fbcd-3972-049b-9053e5cadfc9","mesh":23}],"bufferViews":[{"buffer":0,"byteOffset":0,"byteLength":432,"target":34962,"byteStride":12},{"buffer":0,"byteOffset":432,"byteLength":432,"target":34962,"byteStride":12},{"buffer":0,"byteOffset":864,"byteLength":288,"target":34962,"byteStride":8},{"buffer":0,"byteOffset":1152,"byteLength":432,"target":34962,"byteStride":12},{"buffer":0,"byteOffset":1584,"byteLength":432,"target":34962,"byteStride":12},{"buffer":0,"byteOffset":2016,"byteLength":288,"target":34962,"byteStride":8},{"buffer":0,"byteOffset":2304,"byteLength":432,"target":34962,"byteStride":12},{"buffer":0,"byteOffset":2736,"byteLength":432,"target":34962,"byteStride":12},{"buffer":0,"byteOffset":3168,"byteLength":288,"target":34962,"byteStride":8},{"buffer":0,"byteOffset":3456,"byteLength":432,"target":34962,"byteStride":12},{"buffer":0,"byteOffset":3888,"byteLength":432,"target":34962,"byteStride":12},{"buffer":0,"byteOffset":4320,"byteLength":288,"target":34962,"byteStride":8},{"buffer":0,"byteOffset":4608,"byteLength":432,"target":34962,"byteStride":12},{"buffer":0,"byteOffset":5040,"byteLength":432,"target":34962,"byteStride":12},{"buffer":0,"byteOffset":5472,"byteLength":288,"target":34962,"byteStride":8},{"buffer":0,"byteOffset":5760,"byteLength":432,"target":34962,"byteStride":12},{"buffer":0,"byteOffset":6192,"byteLength":432,"target":34962,"byteStride":12},{"buffer":0,"byteOffset":6624,"byteLength":288,"target":34962,"byteStride":8},{"buffer":0,"byteOffset":6912,"byteLength":432,"target":34962,"byteStride":12},{"buffer":0,"byteOffset":7344,"byteLength":432,"target":34962,"byteStride":12},{"buffer":0,"byteOffset":7776,"byteLength":288,"target":34962,"byteStride":8},{"buffer":0,"byteOffset":8064,"byteLength":432,"target":34962,"byteStride":12},{"buffer":0,"byteOffset":8496,"byteLength":432,"target":34962,"byteStride":12},{"buffer":0,"byteOffset":8928,"byteLength":288,"target":34962,"byteStride":8},{"buffer":0,"byteOffset":9216,"byteLength":432,"target":34962,"byteStride":12},{"buffer":0,"byteOffset":9648,"byteLength":432,"target":34962,"byteStride":12},{"buffer":0,"byteOffset":10080,"byteLength":288,"target":34962,"byteStride":8},{"buffer":0,"byteOffset":10368,"byteLength":432,"target":34962,"byteStride":12},{"buffer":0,"byteOffset":10800,"byteLength":432,"target":34962,"byteStride":12},{"buffer":0,"byteOffset":11232,"byteLength":288,"target":34962,"byteStride":8},{"buffer":0,"byteOffset":11520,"byteLength":432,"target":34962,"byteStride":12},{"buffer":0,"byteOffset":11952,"byteLength":432,"target":34962,"byteStride":12},{"buffer":0,"byteOffset":12384,"byteLength":288,"target":34962,"byteStride":8},{"buffer":0,"byteOffset":12672,"byteLength":432,"target":34962,"byteStride":12},{"buffer":0,"byteOffset":13104,"byteLength":432,"target":34962,"byteStride":12},{"buffer":0,"byteOffset":13536,"byteLength":288,"target":34962,"byteStride":8},{"buffer":0,"byteOffset":13824,"byteLength":432,"target":34962,"byteStride":12},{"buffer":0,"byteOffset":14256,"byteLength":432,"target":34962,"byteStride":12},{"buffer":0,"byteOffset":14688,"byteLength":288,"target":34962,"byteStride":8},{"buffer":0,"byteOffset":14976,"byteLength":432,"target":34962,"byteStride":12},{"buffer":0,"byteOffset":15408,"byteLength":432,"target":34962,"byteStride":12},{"buffer":0,"byteOffset":15840,"byteLength":288,"target":34962,"byteStride":8},{"buffer":0,"byteOffset":16128,"byteLength":432,"target":34962,"byteStride":12},{"buffer":0,"byteOffset":16560,"byteLength":432,"target":34962,"byteStride":12},{"buffer":0,"byteOffset":16992,"byteLength":288,"target":34962,"byteStride":8},{"buffer":0,"byteOffset":17280,"byteLength":432,"target":34962,"byteStride":12},{"buffer":0,"byteOffset":17712,"byteLength":432,"target":34962,"byteStride":12},{"buffer":0,"byteOffset":18144,"byteLength":288,"target":34962,"byteStride":8},{"buffer":0,"byteOffset":18432,"byteLength":432,"target":34962,"byteStride":12},{"buffer":0,"byteOffset":18864,"byteLength":432,"target":34962,"byteStride":12},{"buffer":0,"byteOffset":19296,"byteLength":288,"target":34962,"byteStride":8},{"buffer":0,"byteOffset":19584,"byteLength":432,"target":34962,"byteStride":12},{"buffer":0,"byteOffset":20016,"byteLength":432,"target":34962,"byteStride":12},{"buffer":0,"byteOffset":20448,"byteLength":288,"target":34962,"byteStride":8},{"buffer":0,"byteOffset":20736,"byteLength":432,"target":34962,"byteStride":12},{"buffer":0,"byteOffset":21168,"byteLength":432,"target":34962,"byteStride":12},{"buffer":0,"byteOffset":21600,"byteLength":288,"target":34962,"byteStride":8},{"buffer":0,"byteOffset":21888,"byteLength":432,"target":34962,"byteStride":12},{"buffer":0,"byteOffset":22320,"byteLength":432,"target":34962,"byteStride":12},{"buffer":0,"byteOffset":22752,"byteLength":288,"target":34962,"byteStride":8},{"buffer":0,"byteOffset":23040,"byteLength":432,"target":34962,"byteStride":12},{"buffer":0,"byteOffset":23472,"byteLength":432,"target":34962,"byteStride":12},{"buffer":0,"byteOffset":23904,"byteLength":288,"target":34962,"byteStride":8},{"buffer":0,"byteOffset":24192,"byteLength":432,"target":34962,"byteStride":12},{"buffer":0,"byteOffset":24624,"byteLength":432,"target":34962,"byteStride":12},{"buffer":0,"byteOffset":25056,"byteLength":288,"target":34962,"byteStride":8},{"buffer":0,"byteOffset":25344,"byteLength":432,"target":34962,"byteStride":12},{"buffer":0,"byteOffset":25776,"byteLength":432,"target":34962,"byteStride":12},{"buffer":0,"byteOffset":26208,"byteLength":288,"target":34962,"byteStride":8},{"buffer":0,"byteOffset":26496,"byteLength":432,"target":34962,"byteStride":12},{"buffer":0,"byteOffset":26928,"byteLength":432,"target":34962,"byteStride":12},{"buffer":0,"byteOffset":27360,"byteLength":288,"target":34962,"byteStride":8}],"buffers":[{"byteLength":27648,"uri":"data:application/octet-stream;base64,"}],"accessors":[{"bufferView":0,"componentType":5126,"count":36,"max":[0.04374999925494194,0.84375,-0.42500001192092896],"min":[0.02500000037252903,0.03125,-0.5],"type":"VEC3"},{"bufferView":1,"componentType":5126,"count":36,"max":[1,1,1],"min":[-1,-1,-1],"type":"VEC3"},{"bufferView":2,"componentType":5126,"count":36,"max":[0.00937500037252903,1],"min":[0,0.8984375],"type":"VEC2"},{"bufferView":3,"componentType":5126,"count":36,"max":[0.04374999925494194,0.8687499761581421,-0.4375],"min":[0.02500000037252903,0.03125,-0.48750001192092896],"type":"VEC3"},{"bufferView":4,"componentType":5126,"count":36,"max":[1,1,1],"min":[-1,-1,-1],"type":"VEC3"},{"bufferView":5,"componentType":5126,"count":36,"max":[0.0062500000931322575,1],"min":[0,0.895312488079071],"type":"VEC2"},{"bufferView":6,"componentType":5126,"count":36,"max":[0.04374999925494194,0.84375,-0.30000001192092896],"min":[0.02500000037252903,0.03125,-0.375],"type":"VEC3"},{"bufferView":7,"componentType":5126,"count":36,"max":[1,1,1],"min":[-1,-1,-1],"type":"VEC3"},{"bufferView":8,"componentType":5126,"count":36,"max":[0.00937500037252903,1],"min":[0,0.8984375],"type":"VEC2"},{"bufferView":9,"componentType":5126,"count":36,"max":[0.04374999925494194,0.8687499761581421,-0.3125],"min":[0.02500000037252903,0.03125,-0.36250001192092896],"type":"VEC3"},{"bufferView":10,"componentType":5126,"count":36,"max":[1,1,1],"min":[-1,-1,-1],"type":"VEC3"},{"bufferView":11,"componentType":5126,"count":36,"max":[0.0062500000931322575,1],"min":[0,0.895312488079071],"type":"VEC2"},{"bufferView":12,"componentType":5126,"count":36,"max":[0.04374999925494194,0.84375,-0.17499999701976776],"min":[0.02500000037252903,0.03125,-0.25],"type":"VEC3"},{"bufferView":13,"componentType":5126,"count":36,"max":[1,1,1],"min":[-1,-1,-1],"type":"VEC3"},{"bufferView":14,"componentType":5126,"count":36,"max":[0.00937500037252903,1],"min":[0,0.8984375],"type":"VEC2"},{"bufferView":15,"componentType":5126,"count":36,"max":[0.04374999925494194,0.8687499761581421,-0.1875],"min":[0.02500000037252903,0.03125,-0.23749999701976776],"type":"VEC3"},{"bufferView":16,"componentType":5126,"count":36,"max":[1,1,1],"min":[-1,-1,-1],"type":"VEC3"},{"bufferView":17,"componentType":5126,"count":36,"max":[0.0062500000931322575,1],"min":[0,0.895312488079071],"type":"VEC2"},{"bufferView":18,"componentType":5126,"count":36,"max":[0.04374999925494194,0.84375,-0.05000000074505806],"min":[0.02500000037252903,0.03125,-0.125],"type":"VEC3"},{"bufferView":19,"componentType":5126,"count":36,"max":[1,1,1],"min":[-1,-1,-1],"type":"VEC3"},{"bufferView":20,"componentType":5126,"count":36,"max":[0.00937500037252903,1],"min":[0,0.8984375],"type":"VEC2"},{"bufferView":21,"componentType":5126,"count":36,"max":[0.04374999925494194,0.8687499761581421,-0.0625],"min":[0.02500000037252903,0.03125,-0.11249999701976776],"type":"VEC3"},{"bufferView":22,"componentType":5126,"count":36,"max":[1,1,1],"min":[-1,-1,-1],"type":"VEC3"},{"bufferView":23,"componentType":5126,"count":36,"max":[0.0062500000931322575,1],"min":[0,0.895312488079071],"type":"VEC2"},{"bufferView":24,"componentType":5126,"count":36,"max":[0.04374999925494194,0.84375,0.07500000298023224],"min":[0.02500000037252903,0.03125,-7.771561172376096e-16],"type":"VEC3"},{"bufferView":25,"componentType":5126,"count":36,"max":[1,1,1],"min":[-1,-1,-1],"type":"VEC3"},{"bufferView":26,"componentType":5126,"count":36,"max":[0.00937500037252903,1],"min":[0,0.8984375],"type":"VEC2"},{"bufferView":27,"componentType":5126,"count":36,"max":[0.04374999925494194,0.8687499761581421,0.0625],"min":[0.02500000037252903,0.03125,0.012500000186264515],"type":"VEC3"},{"bufferView":28,"componentType":5126,"count":36,"max":[1,1,1],"min":[-1,-1,-1],"type":"VEC3"},{"bufferView":29,"componentType":5126,"count":36,"max":[0.0062500000931322575,1],"min":[0,0.895312488079071],"type":"VEC2"},{"bufferView":30,"componentType":5126,"count":36,"max":[0.04374999925494194,0.84375,0.20000000298023224],"min":[0.02500000037252903,0.03125,0.125],"type":"VEC3"},{"bufferView":31,"componentType":5126,"count":36,"max":[1,1,1],"min":[-1,-1,-1],"type":"VEC3"},{"bufferView":32,"componentType":5126,"count":36,"max":[0.00937500037252903,1],"min":[0,0.8984375],"type":"VEC2"},{"bufferView":33,"componentType":5126,"count":36,"max":[0.04374999925494194,0.8687499761581421,0.1875],"min":[0.02500000037252903,0.03125,0.13750000298023224],"type":"VEC3"},{"bufferView":34,"componentType":5126,"count":36,"max":[1,1,1],"min":[-1,-1,-1],"type":"VEC3"},{"bufferView":35,"componentType":5126,"count":36,"max":[0.0062500000931322575,1],"min":[0,0.895312488079071],"type":"VEC2"},{"bufferView":36,"componentType":5126,"count":36,"max":[0.04374999925494194,0.84375,0.32499998807907104],"min":[0.02500000037252903,0.03125,0.25],"type":"VEC3"},{"bufferView":37,"componentType":5126,"count":36,"max":[1,1,1],"min":[-1,-1,-1],"type":"VEC3"},{"bufferView":38,"componentType":5126,"count":36,"max":[0.00937500037252903,1],"min":[0,0.8984375],"type":"VEC2"},{"bufferView":39,"componentType":5126,"count":36,"max":[0.04374999925494194,0.8687499761581421,0.3125],"min":[0.02500000037252903,0.03125,0.26249998807907104],"type":"VEC3"},{"bufferView":40,"componentType":5126,"count":36,"max":[1,1,1],"min":[-1,-1,-1],"type":"VEC3"},{"bufferView":41,"componentType":5126,"count":36,"max":[0.0062500000931322575,1],"min":[0,0.895312488079071],"type":"VEC2"},{"bufferView":42,"componentType":5126,"count":36,"max":[0.04374999925494194,0.84375,0.44999998807907104],"min":[0.02500000037252903,0.03125,0.375],"type":"VEC3"},{"bufferView":43,"componentType":5126,"count":36,"max":[1,1,1],"min":[-1,-1,-1],"type":"VEC3"},{"bufferView":44,"componentType":5126,"count":36,"max":[0.00937500037252903,1],"min":[0,0.8984375],"type":"VEC2"},{"bufferView":45,"componentType":5126,"count":36,"max":[0.04374999925494194,0.8687499761581421,0.4375],"min":[0.02500000037252903,0.03125,0.38749998807907104],"type":"VEC3"},{"bufferView":46,"componentType":5126,"count":36,"max":[1,1,1],"min":[-1,-1,-1],"type":"VEC3"},{"bufferView":47,"componentType":5126,"count":36,"max":[0.0062500000931322575,1],"min":[0,0.895312488079071],"type":"VEC2"},{"bufferView":48,"componentType":5126,"count":36,"max":[0.04374999925494194,0.8687499761581421,0.5625],"min":[0.02500000037252903,0.03125,0.512499988079071],"type":"VEC3"},{"bufferView":49,"componentType":5126,"count":36,"max":[1,1,1],"min":[-1,-1,-1],"type":"VEC3"},{"bufferView":50,"componentType":5126,"count":36,"max":[0.0062500000931322575,1],"min":[0,0.895312488079071],"type":"VEC2"},{"bufferView":51,"componentType":5126,"count":36,"max":[0.04374999925494194,0.84375,0.574999988079071],"min":[0.02500000037252903,0.03125,0.5],"type":"VEC3"},{"bufferView":52,"componentType":5126,"count":36,"max":[1,1,1],"min":[-1,-1,-1],"type":"VEC3"},{"bufferView":53,"componentType":5126,"count":36,"max":[0.00937500037252903,1],"min":[0,0.8984375],"type":"VEC2"},{"bufferView":54,"componentType":5126,"count":36,"max":[0.06875000149011612,1.359375,0.20000000298023224],"min":[0.04374999925494194,-0.04062499850988388,0.13750000298023224],"type":"VEC3"},{"bufferView":55,"componentType":5126,"count":36,"max":[1,1,1],"min":[-1,-1,-1],"type":"VEC3"},{"bufferView":56,"componentType":5126,"count":36,"max":[0.0078125,1],"min":[0,0.824999988079071],"type":"VEC2"},{"bufferView":57,"componentType":5126,"count":36,"max":[0.06875000149011612,1.359375,-0.19374999403953552],"min":[0.04374999925494194,-0.04062499850988388,-0.2562499940395355],"type":"VEC3"},{"bufferView":58,"componentType":5126,"count":36,"max":[1,1,1],"min":[-1,-1,-1],"type":"VEC3"},{"bufferView":59,"componentType":5126,"count":36,"max":[0.0078125,1],"min":[0,0.824999988079071],"type":"VEC2"},{"bufferView":60,"componentType":5126,"count":36,"max":[0.05000000074505806,0.9375,0.7437499761581421],"min":[-0.05000000074505806,0,0.65625],"type":"VEC3"},{"bufferView":61,"componentType":5126,"count":36,"max":[1,1,1],"min":[-1,-1,-1],"type":"VEC3"},{"bufferView":62,"componentType":5126,"count":36,"max":[0.012500000186264515,1],"min":[0,0.8828125],"type":"VEC2"},{"bufferView":63,"componentType":5126,"count":36,"max":[0.03750000149011612,0.96875,0.731249988079071],"min":[-0.03750000149011612,0,0.668749988079071],"type":"VEC3"},{"bufferView":64,"componentType":5126,"count":36,"max":[1,1,1],"min":[-1,-1,-1],"type":"VEC3"},{"bufferView":65,"componentType":5126,"count":36,"max":[0.00937500037252903,1],"min":[0,0.87890625],"type":"VEC2"},{"bufferView":66,"componentType":5126,"count":36,"max":[0.03750000149011612,0.96875,-0.581250011920929],"min":[-0.03750000149011612,0,-0.643750011920929],"type":"VEC3"},{"bufferView":67,"componentType":5126,"count":36,"max":[1,1,1],"min":[-1,-1,-1],"type":"VEC3"},{"bufferView":68,"componentType":5126,"count":36,"max":[0.00937500037252903,1],"min":[0,0.87890625],"type":"VEC2"},{"bufferView":69,"componentType":5126,"count":36,"max":[0.05000000074505806,0.9375,-0.5687500238418579],"min":[-0.05000000074505806,0,-0.65625],"type":"VEC3"},{"bufferView":70,"componentType":5126,"count":36,"max":[1,1,1],"min":[-1,-1,-1],"type":"VEC3"},{"bufferView":71,"componentType":5126,"count":36,"max":[0.012500000186264515,1],"min":[0,0.8828125],"type":"VEC2"}],"materials":[{"pbrMetallicRoughness":{"metallicFactor":0,"roughnessFactor":1,"baseColorTexture":{"index":0}},"alphaMode":"MASK","alphaCutoff":0.05,"doubleSided":true},{"pbrMetallicRoughness":{"metallicFactor":0,"roughnessFactor":1,"baseColorTexture":{"index":1}},"alphaMode":"MASK","alphaCutoff":0.05,"doubleSided":true}],"textures":[{"sampler":0,"source":0,"name":"wood"},{"sampler":1,"source":1,"name":"dark wood"}],"samplers":[{"magFilter":9728,"minFilter":9728,"wrapS":33071,"wrapT":33071},{"magFilter":9728,"minFilter":9728,"wrapS":33071,"wrapT":33071}],"images":[{"mimeType":"image/png","uri":"data:image/png;base64,"},{"mimeType":"image/png","uri":"data:image/png;base64,"}],"meshes":[{"primitives":[{"mode":4,"attributes":{"POSITION":0,"NORMAL":1,"TEXCOORD_0":2},"material":0}]},{"primitives":[{"mode":4,"attributes":{"POSITION":3,"NORMAL":4,"TEXCOORD_0":5},"material":0}]},{"primitives":[{"mode":4,"attributes":{"POSITION":6,"NORMAL":7,"TEXCOORD_0":8},"material":0}]},{"primitives":[{"mode":4,"attributes":{"POSITION":9,"NORMAL":10,"TEXCOORD_0":11},"material":0}]},{"primitives":[{"mode":4,"attributes":{"POSITION":12,"NORMAL":13,"TEXCOORD_0":14},"material":0}]},{"primitives":[{"mode":4,"attributes":{"POSITION":15,"NORMAL":16,"TEXCOORD_0":17},"material":0}]},{"primitives":[{"mode":4,"attributes":{"POSITION":18,"NORMAL":19,"TEXCOORD_0":20},"material":0}]},{"primitives":[{"mode":4,"attributes":{"POSITION":21,"NORMAL":22,"TEXCOORD_0":23},"material":0}]},{"primitives":[{"mode":4,"attributes":{"POSITION":24,"NORMAL":25,"TEXCOORD_0":26},"material":0}]},{"primitives":[{"mode":4,"attributes":{"POSITION":27,"NORMAL":28,"TEXCOORD_0":29},"material":0}]},{"primitives":[{"mode":4,"attributes":{"POSITION":30,"NORMAL":31,"TEXCOORD_0":32},"material":0}]},{"primitives":[{"mode":4,"attributes":{"POSITION":33,"NORMAL":34,"TEXCOORD_0":35},"material":0}]},{"primitives":[{"mode":4,"attributes":{"POSITION":36,"NORMAL":37,"TEXCOORD_0":38},"material":0}]},{"primitives":[{"mode":4,"attributes":{"POSITION":39,"NORMAL":40,"TEXCOORD_0":41},"material":0}]},{"primitives":[{"mode":4,"attributes":{"POSITION":42,"NORMAL":43,"TEXCOORD_0":44},"material":0}]},{"primitives":[{"mode":4,"attributes":{"POSITION":45,"NORMAL":46,"TEXCOORD_0":47},"material":0}]},{"primitives":[{"mode":4,"attributes":{"POSITION":48,"NORMAL":49,"TEXCOORD_0":50},"material":0}]},{"primitives":[{"mode":4,"attributes":{"POSITION":51,"NORMAL":52,"TEXCOORD_0":53},"material":0}]},{"primitives":[{"mode":4,"attributes":{"POSITION":54,"NORMAL":55,"TEXCOORD_0":56},"material":1}]},{"primitives":[{"mode":4,"attributes":{"POSITION":57,"NORMAL":58,"TEXCOORD_0":59},"material":1}]},{"primitives":[{"mode":4,"attributes":{"POSITION":60,"NORMAL":61,"TEXCOORD_0":62},"material":1}]},{"primitives":[{"mode":4,"attributes":{"POSITION":63,"NORMAL":64,"TEXCOORD_0":65},"material":1}]},{"primitives":[{"mode":4,"attributes":{"POSITION":66,"NORMAL":67,"TEXCOORD_0":68},"material":1}]},{"primitives":[{"mode":4,"attributes":{"POSITION":69,"NORMAL":70,"TEXCOORD_0":71},"material":1}]}]}