{"asset":{"version":"2.0","generator":"Blockbench 3.9.3 glTF exporter"},"scenes":[{"nodes":[0,1,2,3,4,5,6,7,8,9,10,11,12,13,14,15,16,17,18,19,20,21,22,23,24,25,26,27,28,29],"name":"blockbench_export"}],"scene":0,"nodes":[{"name":"401d9db3-a51c-4501-f207-7dfe1e76e4b6","mesh":0},{"name":"7d218406-f281-1471-9eb5-ee9b94fe0f75","mesh":1},{"name":"4ddd71dd-8c9c-ee08-a568-01c5aa052066","mesh":2},{"name":"a10e993b-403f-0f9b-53c1-97488be2fcc2","mesh":3},{"name":"9b646df6-cc55-6d95-56b8-8e6ca25fdce5","mesh":4},{"name":"353f7d53-be9c-7b7c-2029-2d69bfea5bc4","mesh":5},{"name":"eba2790b-7676-114e-ad59-a96f20aeb7a7","mesh":6},{"name":"2ba439f3-f279-ba08-5f1d-6f82edb89263","mesh":7},{"name":"0b7c1125-0471-3822-af36-f0ce34688555","mesh":8},{"name":"0fe7bcdb-63a7-1403-4e33-5eeee13c94c3","mesh":9},{"name":"c34fd28f-dffc-1d09-3d6b-a266071ce8fc","mesh":10},{"name":"824285a4-0f31-7ba2-3e8b-d3a9b2e867e8","mesh":11},{"name":"6c42a306-febb-ddab-1a34-02de26db0a36","mesh":12},{"name":"3965f666-19aa-4fd5-3300-1161658aa35a","mesh":13},{"name":"ce3831d6-4707-3a00-3d78-88ba2ac0f709","mesh":14},{"name":"484f1afe-3312-198a-47a1-08c23b7d1f26","mesh":15},{"name":"f484b325-bb3f-91c7-4bc2-5e1d00601a54","mesh":16},{"name":"eb8a29c2-3052-7c7d-af92-da39eaff8a92","mesh":17},{"name":"544e9d93-5438-7a62-b2b0-a023ea4f0aa3","mesh":18},{"name":"177456c8-d2c3-98d0-0e82-1ec5e43c18f5","mesh":19},{"rotation":[-0.7071067811865474,0,0,0.7071067811865477],"translation":[0,0.484375,0.6999999999999997],"name":"86675dd4-9a8e-5576-a62b-0baa21f48bbe","mesh":20},{"name":"80668c28-1846-b47d-c55e-62613898d441","mesh":21},{"name":"42c3c76e-fbcd-3972-049b-9053e5cadfc9","mesh":22},{"name":"461d0683-31ef-2b4f-e13a-edb2084fabd7","mesh":23},{"name":"ee32d28c-f4ee-b187-1c8a-b80c1fa8f7df","mesh":24},{"rotation":[-0.7071067811865474,0,0,0.7071067811865477],"translation":[0,0.484375,0.6999999999999997],"name":"97e10ba1-2790-4d05-d610-a636239b1157","mesh":25},{"rotation":[-0.7071067811865474,0,0,0.7071067811865477],"translation":[0,0.484375,0.6999999999999997],"name":"8bd984cd-3954-8545-cced-258e37b90b83","mesh":26},{"name":"back"},{"name":"seat"},{"name":"sides"}],"bufferViews":[{"buffer":0,"byteOffset":0,"byteLength":432,"target":34962,"byteStride":12},{"buffer":0,"byteOffset":432,"byteLength":432,"target":34962,"byteStride":12},{"buffer":0,"byteOffset":864,"byteLength":288,"target":34962,"byteStride":8},{"buffer":0,"byteOffset":1152,"byteLength":432,"target":34962,"byteStride":12},{"buffer":0,"byteOffset":1584,"byteLength":432,"target":34962,"byteStride":12},{"buffer":0,"byteOffset":2016,"byteLength":288,"target":34962,"byteStride":8},{"buffer":0,"byteOffset":2304,"byteLength":432,"target":34962,"byteStride":12},{"buffer":0,"byteOffset":2736,"byteLength":432,"target":34962,"byteStride":12},{"buffer":0,"byteOffset":3168,"byteLength":288,"target":34962,"byteStride":8},{"buffer":0,"byteOffset":3456,"byteLength":432,"target":34962,"byteStride":12},{"buffer":0,"byteOffset":3888,"byteLength":432,"target":34962,"byteStride":12},{"buffer":0,"byteOffset":4320,"byteLength":288,"target":34962,"byteStride":8},{"buffer":0,"byteOffset":4608,"byteLength":432,"target":34962,"byteStride":12},{"buffer":0,"byteOffset":5040,"byteLength":432,"target":34962,"byteStride":12},{"buffer":0,"byteOffset":5472,"byteLength":288,"target":34962,"byteStride":8},{"buffer":0,"byteOffset":5760,"byteLength":432,"target":34962,"byteStride":12},{"buffer":0,"byteOffset":6192,"byteLength":432,"target":34962,"byteStride":12},{"buffer":0,"byteOffset":6624,"byteLength":288,"target":34962,"byteStride":8},{"buffer":0,"byteOffset":6912,"byteLength":432,"target":34962,"byteStride":12},{"buffer":0,"byteOffset":7344,"byteLength":432,"target":34962,"byteStride":12},{"buffer":0,"byteOffset":7776,"byteLength":288,"target":34962,"byteStride":8},{"buffer":0,"byteOffset":8064,"byteLength":432,"target":34962,"byteStride":12},{"buffer":0,"byteOffset":8496,"byteLength":432,"target":34962,"byteStride":12},{"buffer":0,"byteOffset":8928,"byteLength":288,"target":34962,"byteStride":8},{"buffer":0,"byteOffset":9216,"byteLength":432,"target":34962,"byteStride":12},{"buffer":0,"byteOffset":9648,"byteLength":432,"target":34962,"byteStride":12},{"buffer":0,"byteOffset":10080,"byteLength":288,"target":34962,"byteStride":8},{"buffer":0,"byteOffset":10368,"byteLength":432,"target":34962,"byteStride":12},{"buffer":0,"byteOffset":10800,"byteLength":432,"target":34962,"byteStride":12},{"buffer":0,"byteOffset":11232,"byteLength":288,"target":34962,"byteStride":8},{"buffer":0,"byteOffset":11520,"byteLength":432,"target":34962,"byteStride":12},{"buffer":0,"byteOffset":11952,"byteLength":432,"target":34962,"byteStride":12},{"buffer":0,"byteOffset":12384,"byteLength":288,"target":34962,"byteStride":8},{"buffer":0,"byteOffset":12672,"byteLength":432,"target":34962,"byteStride":12},{"buffer":0,"byteOffset":13104,"byteLength":432,"target":34962,"byteStride":12},{"buffer":0,"byteOffset":13536,"byteLength":288,"target":34962,"byteStride":8},{"buffer":0,"byteOffset":13824,"byteLength":432,"target":34962,"byteStride":12},{"buffer":0,"byteOffset":14256,"byteLength":432,"target":34962,"byteStride":12},{"buffer":0,"byteOffset":14688,"byteLength":288,"target":34962,"byteStride":8},{"buffer":0,"byteOffset":14976,"byteLength":432,"target":34962,"byteStride":12},{"buffer":0,"byteOffset":15408,"byteLength":432,"target":34962,"byteStride":12},{"buffer":0,"byteOffset":15840,"byteLength":288,"target":34962,"byteStride":8},{"buffer":0,"byteOffset":16128,"byteLength":432,"target":34962,"byteStride":12},{"buffer":0,"byteOffset":16560,"byteLength":432,"target":34962,"byteStride":12},{"buffer":0,"byteOffset":16992,"byteLength":288,"target":34962,"byteStride":8},{"buffer":0,"byteOffset":17280,"byteLength":432,"target":34962,"byteStride":12},{"buffer":0,"byteOffset":17712,"byteLength":432,"target":34962,"byteStride":12},{"buffer":0,"byteOffset":18144,"byteLength":288,"target":34962,"byteStride":8},{"buffer":0,"byteOffset":18432,"byteLength":432,"target":34962,"byteStride":12},{"buffer":0,"byteOffset":18864,"byteLength":432,"target":34962,"byteStride":12},{"buffer":0,"byteOffset":19296,"byteLength":288,"target":34962,"byteStride":8},{"buffer":0,"byteOffset":19584,"byteLength":432,"target":34962,"byteStride":12},{"buffer":0,"byteOffset":20016,"byteLength":432,"target":34962,"byteStride":12},{"buffer":0,"byteOffset":20448,"byteLength":288,"target":34962,"byteStride":8},{"buffer":0,"byteOffset":20736,"byteLength":432,"target":34962,"byteStride":12},{"buffer":0,"byteOffset":21168,"byteLength":432,"target":34962,"byteStride":12},{"buffer":0,"byteOffset":21600,"byteLength":288,"target":34962,"byteStride":8},{"buffer":0,"byteOffset":21888,"byteLength":432,"target":34962,"byteStride":12},{"buffer":0,"byteOffset":22320,"byteLength":432,"target":34962,"byteStride":12},{"buffer":0,"byteOffset":22752,"byteLength":288,"target":34962,"byteStride":8},{"buffer":0,"byteOffset":23040,"byteLength":432,"target":34962,"byteStride":12},{"buffer":0,"byteOffset":23472,"byteLength":432,"target":34962,"byteStride":12},{"buffer":0,"byteOffset":23904,"byteLength":288,"target":34962,"byteStride":8},{"buffer":0,"byteOffset":24192,"byteLength":432,"target":34962,"byteStride":12},{"buffer":0,"byteOffset":24624,"byteLength":432,"target":34962,"byteStride":12},{"buffer":0,"byteOffset":25056,"byteLength":288,"target":34962,"byteStride":8},{"buffer":0,"byteOffset":25344,"byteLength":432,"target":34962,"byteStride":12},{"buffer":0,"byteOffset":25776,"byteLength":432,"target":34962,"byteStride":12},{"buffer":0,"byteOffset":26208,"byteLength":288,"target":34962,"byteStride":8},{"buffer":0,"byteOffset":26496,"byteLength":432,"target":34962,"byteStride":12},{"buffer":0,"byteOffset":26928,"byteLength":432,"target":34962,"byteStride":12},{"buffer":0,"byteOffset":27360,"byteLength":288,"target":34962,"byteStride":8},{"buffer":0,"byteOffset":27648,"byteLength":432,"target":34962,"byteStride":12},{"buffer":0,"byteOffset":28080,"byteLength":432,"target":34962,"byteStride":12},{"buffer":0,"byteOffset":28512,"byteLength":288,"target":34962,"byteStride":8},{"buffer":0,"byteOffset":28800,"byteLength":432,"target":34962,"byteStride":12},{"buffer":0,"byteOffset":29232,"byteLength":432,"target":34962,"byteStride":12},{"buffer":0,"byteOffset":29664,"byteLength":288,"target":34962,"byteStride":8},{"buffer":0,"byteOffset":29952,"byteLength":432,"target":34962,"byteStride":12},{"buffer":0,"byteOffset":30384,"byteLength":432,"target":34962,"byteStride":12},{"buffer":0,"byteOffset":30816,"byteLength":288,"target":34962,"byteStride":8}],"buffers":[{"byteLength":31104,"uri":"data:application/octet-stream;base64,"}],"accessors":[{"bufferView":0,"componentType":5126,"count":36,"max":[0.04374999925494194,1.306249976158142,-0.4749999940395355],"min":[0.02500000037252903,0,-0.59375],"type":"VEC3"},{"bufferView":1,"componentType":5126,"count":36,"max":[1,1,1],"min":[-1,-1,-1],"type":"VEC3"},{"bufferView":2,"componentType":5126,"count":36,"max":[0.014843749813735485,1],"min":[0,0.836718738079071],"type":"VEC2"},{"bufferView":3,"componentType":5126,"count":36,"max":[0.04374999925494194,1.306249976158142,-0.3499999940395355],"min":[0.02500000037252903,0,-0.46875],"type":"VEC3"},{"bufferView":4,"componentType":5126,"count":36,"max":[1,1,1],"min":[-1,-1,-1],"type":"VEC3"},{"bufferView":5,"componentType":5126,"count":36,"max":[0.014843749813735485,1],"min":[0,0.836718738079071],"type":"VEC2"},{"bufferView":6,"componentType":5126,"count":36,"max":[0.04374999925494194,1.306249976158142,-0.22499999403953552],"min":[0.02500000037252903,0,-0.34375],"type":"VEC3"},{"bufferView":7,"componentType":5126,"count":36,"max":[1,1,1],"min":[-1,-1,-1],"type":"VEC3"},{"bufferView":8,"componentType":5126,"count":36,"max":[0.014843749813735485,1],"min":[0,0.836718738079071],"type":"VEC2"},{"bufferView":9,"componentType":5126,"count":36,"max":[0.04374999925494194,1.306249976158142,-0.10000000149011612],"min":[0.02500000037252903,0,-0.21875],"type":"VEC3"},{"bufferView":10,"componentType":5126,"count":36,"max":[1,1,1],"min":[-1,-1,-1],"type":"VEC3"},{"bufferView":11,"componentType":5126,"count":36,"max":[0.014843749813735485,1],"min":[0,0.836718738079071],"type":"VEC2"},{"bufferView":12,"componentType":5126,"count":36,"max":[0.04374999925494194,1.306249976158142,0.02500000037252903],"min":[0.02500000037252903,0,-0.09375],"type":"VEC3"},{"bufferView":13,"componentType":5126,"count":36,"max":[1,1,1],"min":[-1,-1,-1],"type":"VEC3"},{"bufferView":14,"componentType":5126,"count":36,"max":[0.014843749813735485,1],"min":[0,0.836718738079071],"type":"VEC2"},{"bufferView":15,"componentType":5126,"count":36,"max":[0.04374999925494194,1.306249976158142,0.15000000596046448],"min":[0.02500000037252903,0,0.03125],"type":"VEC3"},{"bufferView":16,"componentType":5126,"count":36,"max":[1,1,1],"min":[-1,-1,-1],"type":"VEC3"},{"bufferView":17,"componentType":5126,"count":36,"max":[0.014843749813735485,1],"min":[0,0.836718738079071],"type":"VEC2"},{"bufferView":18,"componentType":5126,"count":36,"max":[0.04374999925494194,1.306249976158142,0.2750000059604645],"min":[0.02500000037252903,0,0.15625],"type":"VEC3"},{"bufferView":19,"componentType":5126,"count":36,"max":[1,1,1],"min":[-1,-1,-1],"type":"VEC3"},{"bufferView":20,"componentType":5126,"count":36,"max":[0.014843749813735485,1],"min":[0,0.836718738079071],"type":"VEC2"},{"bufferView":21,"componentType":5126,"count":36,"max":[0.04374999925494194,1.306249976158142,0.4000000059604645],"min":[0.02500000037252903,0,0.28125],"type":"VEC3"},{"bufferView":22,"componentType":5126,"count":36,"max":[1,1,1],"min":[-1,-1,-1],"type":"VEC3"},{"bufferView":23,"componentType":5126,"count":36,"max":[0.014843749813735485,1],"min":[0,0.836718738079071],"type":"VEC2"},{"bufferView":24,"componentType":5126,"count":36,"max":[0.04374999925494194,1.306249976158142,0.5249999761581421],"min":[0.02500000037252903,0,0.40625],"type":"VEC3"},{"bufferView":25,"componentType":5126,"count":36,"max":[1,1,1],"min":[-1,-1,-1],"type":"VEC3"},{"bufferView":26,"componentType":5126,"count":36,"max":[0.014843749813735485,1],"min":[0,0.836718738079071],"type":"VEC2"},{"bufferView":27,"componentType":5126,"count":36,"max":[0.04374999925494194,1.306249976158142,0.6499999761581421],"min":[0.02500000037252903,0,0.53125],"type":"VEC3"},{"bufferView":28,"componentType":5126,"count":36,"max":[1,1,1],"min":[-1,-1,-1],"type":"VEC3"},{"bufferView":29,"componentType":5126,"count":36,"max":[0.014843749813735485,1],"min":[0,0.836718738079071],"type":"VEC2"},{"bufferView":30,"componentType":5126,"count":36,"max":[0.04374999925494194,1.3312499523162842,-0.48750001192092896],"min":[0.02500000037252903,0.03125,-0.581250011920929],"type":"VEC3"},{"bufferView":31,"componentType":5126,"count":36,"max":[1,1,1],"min":[-1,-1,-1],"type":"VEC3"},{"bufferView":32,"componentType":5126,"count":36,"max":[0.01171875,1],"min":[0,0.8374999761581421],"type":"VEC2"},{"bufferView":33,"componentType":5126,"count":36,"max":[0.04374999925494194,1.3312499523162842,-0.36250001192092896],"min":[0.02500000037252903,0.03125,-0.45625001192092896],"type":"VEC3"},{"bufferView":34,"componentType":5126,"count":36,"max":[1,1,1],"min":[-1,-1,-1],"type":"VEC3"},{"bufferView":35,"componentType":5126,"count":36,"max":[0.01171875,1],"min":[0,0.8374999761581421],"type":"VEC2"},{"bufferView":36,"componentType":5126,"count":36,"max":[0.04374999925494194,1.3312499523162842,-0.23749999701976776],"min":[0.02500000037252903,0.03125,-0.33125001192092896],"type":"VEC3"},{"bufferView":37,"componentType":5126,"count":36,"max":[1,1,1],"min":[-1,-1,-1],"type":"VEC3"},{"bufferView":38,"componentType":5126,"count":36,"max":[0.01171875,1],"min":[0,0.8374999761581421],"type":"VEC2"},{"bufferView":39,"componentType":5126,"count":36,"max":[0.04374999925494194,1.3312499523162842,0.13750000298023224],"min":[0.02500000037252903,0.03125,0.04374999925494194],"type":"VEC3"},{"bufferView":40,"componentType":5126,"count":36,"max":[1,1,1],"min":[-1,-1,-1],"type":"VEC3"},{"bufferView":41,"componentType":5126,"count":36,"max":[0.01171875,1],"min":[0,0.8374999761581421],"type":"VEC2"},{"bufferView":42,"componentType":5126,"count":36,"max":[0.04374999925494194,1.3312499523162842,0.26249998807907104],"min":[0.02500000037252903,0.03125,0.16875000298023224],"type":"VEC3"},{"bufferView":43,"componentType":5126,"count":36,"max":[1,1,1],"min":[-1,-1,-1],"type":"VEC3"},{"bufferView":44,"componentType":5126,"count":36,"max":[0.01171875,1],"min":[0,0.8374999761581421],"type":"VEC2"},{"bufferView":45,"componentType":5126,"count":36,"max":[0.04374999925494194,1.3312499523162842,0.512499988079071],"min":[0.02500000037252903,0.03125,0.41874998807907104],"type":"VEC3"},{"bufferView":46,"componentType":5126,"count":36,"max":[1,1,1],"min":[-1,-1,-1],"type":"VEC3"},{"bufferView":47,"componentType":5126,"count":36,"max":[0.01171875,1],"min":[0,0.8374999761581421],"type":"VEC2"},{"bufferView":48,"componentType":5126,"count":36,"max":[0.04374999925494194,1.3312499523162842,-0.11249999701976776],"min":[0.02500000037252903,0.03125,-0.20624999701976776],"type":"VEC3"},{"bufferView":49,"componentType":5126,"count":36,"max":[1,1,1],"min":[-1,-1,-1],"type":"VEC3"},{"bufferView":50,"componentType":5126,"count":36,"max":[0.01171875,1],"min":[0,0.8374999761581421],"type":"VEC2"},{"bufferView":51,"componentType":5126,"count":36,"max":[0.04374999925494194,1.3312499523162842,0.012500000186264515],"min":[0.02500000037252903,0.03125,-0.08124999701976776],"type":"VEC3"},{"bufferView":52,"componentType":5126,"count":36,"max":[1,1,1],"min":[-1,-1,-1],"type":"VEC3"},{"bufferView":53,"componentType":5126,"count":36,"max":[0.01171875,1],"min":[0,0.8374999761581421],"type":"VEC2"},{"bufferView":54,"componentType":5126,"count":36,"max":[0.04374999925494194,1.3312499523162842,0.38749998807907104],"min":[0.02500000037252903,0.03125,0.29374998807907104],"type":"VEC3"},{"bufferView":55,"componentType":5126,"count":36,"max":[1,1,1],"min":[-1,-1,-1],"type":"VEC3"},{"bufferView":56,"componentType":5126,"count":36,"max":[0.01171875,1],"min":[0,0.8374999761581421],"type":"VEC2"},{"bufferView":57,"componentType":5126,"count":36,"max":[0.04374999925494194,1.3312499523162842,0.637499988079071],"min":[0.02500000037252903,0.03125,0.543749988079071],"type":"VEC3"},{"bufferView":58,"componentType":5126,"count":36,"max":[1,1,1],"min":[-1,-1,-1],"type":"VEC3"},{"bufferView":59,"componentType":5126,"count":36,"max":[0.01171875,1],"min":[0,0.8374999761581421],"type":"VEC2"},{"bufferView":60,"componentType":5126,"count":36,"max":[0.06875000149011612,1.359375,0.6187499761581421],"min":[0.04374999925494194,-0.04062499850988388,0.5562499761581421],"type":"VEC3"},{"bufferView":61,"componentType":5126,"count":36,"max":[1,1,1],"min":[-1,-1,-1],"type":"VEC3"},{"bufferView":62,"componentType":5126,"count":36,"max":[0.0078125,1],"min":[0,0.824999988079071],"type":"VEC2"},{"bufferView":63,"componentType":5126,"count":36,"max":[0.03750000149011612,1.3624999523162842,-0.581250011920929],"min":[-0.03750000149011612,0,-0.643750011920929],"type":"VEC3"},{"bufferView":64,"componentType":5126,"count":36,"max":[1,1,1],"min":[-1,-1,-1],"type":"VEC3"},{"bufferView":65,"componentType":5126,"count":36,"max":[0.00937500037252903,1],"min":[0,0.8296874761581421],"type":"VEC2"},{"bufferView":66,"componentType":5126,"count":36,"max":[0.05000000074505806,1.3312499523162842,-0.5687500238418579],"min":[-0.05000000074505806,0,-0.65625],"type":"VEC3"},{"bufferView":67,"componentType":5126,"count":36,"max":[1,1,1],"min":[-1,-1,-1],"type":"VEC3"},{"bufferView":68,"componentType":5126,"count":36,"max":[0.012500000186264515,1],"min":[0,0.8335937261581421],"type":"VEC2"},{"bufferView":69,"componentType":5126,"count":36,"max":[0.03750000149011612,1.3624999523162842,0.731249988079071],"min":[-0.03750000149011612,0,0.668749988079071],"type":"VEC3"},{"bufferView":70,"componentType":5126,"count":36,"max":[1,1,1],"min":[-1,-1,-1],"type":"VEC3"},{"bufferView":71,"componentType":5126,"count":36,"max":[0.00937500037252903,1],"min":[0,0.8296874761581421],"type":"VEC2"},{"bufferView":72,"componentType":5126,"count":36,"max":[0.05000000074505806,1.3312499523162842,0.7437499761581421],"min":[-0.05000000074505806,0,0.65625],"type":"VEC3"},{"bufferView":73,"componentType":5126,"count":36,"max":[1,1,1],"min":[-1,-1,-1],"type":"VEC3"},{"bufferView":74,"componentType":5126,"count":36,"max":[0.012500000186264515,1],"min":[0,0.8335937261581421],"type":"VEC2"},{"bufferView":75,"componentType":5126,"count":36,"max":[0.06875000149011612,1.359375,0.20000000298023224],"min":[0.04374999925494194,-0.04062499850988388,0.13750000298023224],"type":"VEC3"},{"bufferView":76,"componentType":5126,"count":36,"max":[1,1,1],"min":[-1,-1,-1],"type":"VEC3"},{"bufferView":77,"componentType":5126,"count":36,"max":[0.0078125,1],"min":[0,0.824999988079071],"type":"VEC2"},{"bufferView":78,"componentType":5126,"count":36,"max":[0.06875000149011612,1.359375,-0.19374999403953552],"min":[0.04374999925494194,-0.04062499850988388,-0.2562499940395355],"type":"VEC3"},{"bufferView":79,"componentType":5126,"count":36,"max":[1,1,1],"min":[-1,-1,-1],"type":"VEC3"},{"bufferView":80,"componentType":5126,"count":36,"max":[0.0078125,1],"min":[0,0.824999988079071],"type":"VEC2"}],"materials":[{"pbrMetallicRoughness":{"metallicFactor":0,"roughnessFactor":1,"baseColorTexture":{"index":0}},"alphaMode":"MASK","alphaCutoff":0.05,"doubleSided":true},{"pbrMetallicRoughness":{"metallicFactor":0,"roughnessFactor":1,"baseColorTexture":{"index":1}},"alphaMode":"MASK","alphaCutoff":0.05,"doubleSided":true}],"textures":[{"sampler":0,"source":0,"name":"wood"},{"sampler":1,"source":1,"name":"dark wood"}],"samplers":[{"magFilter":9728,"minFilter":9728,"wrapS":33071,"wrapT":33071},{"magFilter":9728,"minFilter":9728,"wrapS":33071,"wrapT":33071}],"images":[{"mimeType":"image/png","uri":"data:image/png;base64,"},{"mimeType":"image/png","uri":"data:image/png;base64,"}],"meshes":[{"primitives":[{"mode":4,"attributes":{"POSITION":0,"NORMAL":1,"TEXCOORD_0":2},"material":0}]},{"primitives":[{"mode":4,"attributes":{"POSITION":3,"NORMAL":4,"TEXCOORD_0":5},"material":0}]},{"primitives":[{"mode":4,"attributes":{"POSITION":6,"NORMAL":7,"TEXCOORD_0":8},"material":0}]},{"primitives":[{"mode":4,"attributes":{"POSITION":9,"NORMAL":10,"TEXCOORD_0":11},"material":0}]},{"primitives":[{"mode":4,"attributes":{"POSITION":12,"NORMAL":13,"TEXCOORD_0":14},"material":0}]},{"primitives":[{"mode":4,"attributes":{"POSITION":15,"NORMAL":16,"TEXCOORD_0":17},"material":0}]},{"primitives":[{"mode":4,"attributes":{"POSITION":18,"NORMAL":19,"TEXCOORD_0":20},"material":0}]},{"primitives":[{"mode":4,"attributes":{"POSITION":21,"NORMAL":22,"TEXCOORD_0":23},"material":0}]},{"primitives":[{"mode":4,"attributes":{"POSITION":24,"NORMAL":25,"TEXCOORD_0":26},"material":0}]},{"primitives":[{"mode":4,"attributes":{"POSITION":27,"NORMAL":28,"TEXCOORD_0":29},"material":0}]},{"primitives":[{"mode":4,"attributes":{"POSITION":30,"NORMAL":31,"TEXCOORD_0":32},"material":0}]},{"primitives":[{"mode":4,"attributes":{"POSITION":33,"NORMAL":34,"TEXCOORD_0":35},"material":0}]},{"primitives":[{"mode":4,"attributes":{"POSITION":36,"NORMAL":37,"TEXCOORD_0":38},"material":0}]},{"primitives":[{"mode":4,"attributes":{"POSITION":39,"NORMAL":40,"TEXCOORD_0":41},"material":0}]},{"primitives":[{"mode":4,"attributes":{"POSITION":42,"NORMAL":43,"TEXCOORD_0":44},"material":0}]},{"primitives":[{"mode":4,"attributes":{"POSITION":45,"NORMAL":46,"TEXCOORD_0":47},"material":0}]},{"primitives":[{"mode":4,"attributes":{"POSITION":48,"NORMAL":49,"TEXCOORD_0":50},"material":0}]},{"primitives":[{"mode":4,"attributes":{"POSITION":51,"NORMAL":52,"TEXCOORD_0":53},"material":0}]},{"primitives":[{"mode":4,"attributes":{"POSITION":54,"NORMAL":55,"TEXCOORD_0":56},"material":0}]},{"primitives":[{"mode":4,"attributes":{"POSITION":57,"NORMAL":58,"TEXCOORD_0":59},"material":0}]},{"primitives":[{"mode":4,"attributes":{"POSITION":60,"NORMAL":61,"TEXCOORD_0":62},"material":1}]},{"primitives":[{"mode":4,"attributes":{"POSITION":63,"NORMAL":64,"TEXCOORD_0":65},"material":1}]},{"primitives":[{"mode":4,"attributes":{"POSITION":66,"NORMAL":67,"TEXCOORD_0":68},"material":1}]},{"primitives":[{"mode":4,"attributes":{"POSITION":69,"NORMAL":70,"TEXCOORD_0":71},"material":1}]},{"primitives":[{"mode":4,"attributes":{"POSITION":72,"NORMAL":73,"TEXCOORD_0":74},"material":1}]},{"primitives":[{"mode":4,"attributes":{"POSITION":75,"NORMAL":76,"TEXCOORD_0":77},"material":1}]},{"primitives":[{"mode":4,"attributes":{"POSITION":78,"NORMAL":79,"TEXCOORD_0":80},"material":1}]}]}