{"asset":{"version":"2.0","generator":"Blockbench 3.9.2 glTF exporter"},"scenes":[{"nodes":[15,21,34],"name":"blockbench_export"}],"scene":0,"nodes":[{"name":"5fedc32b-6d65-db08-a3bf-c0898e0ae89c","mesh":0},{"name":"0a3cfab7-5a5f-e3ca-7a63-968910c07651","mesh":1},{"name":"240a326f-c1b4-8069-72b5-9d823ef5d569","mesh":2},{"name":"46637ce5-7703-433f-f184-1b59a8cf35c3","mesh":3},{"name":"3942196b-a77d-e19f-05df-a13614c13e06","mesh":4},{"name":"60430d37-bd65-6613-d115-23544d0b9728","mesh":5},{"name":"188dc0ba-f828-9213-bfd6-ff3bdaa87d0f","mesh":6},{"name":"fa14daf2-4c38-995c-d357-2d79fea9ce94","mesh":7},{"name":"f4eb4474-ed6b-30db-77cf-aea37260cb60","mesh":8},{"name":"60774cdc-ab9d-2f11-937b-deda561ed0e9","mesh":9},{"name":"7e3f9614-9f4c-fda1-20b5-c99649b0c3bf","mesh":10},{"name":"41fa9ffa-941d-4a89-42a7-bd9120923f54","mesh":11},{"name":"7466fd51-01d8-267f-6a5f-de203003dc23","mesh":12},{"name":"a7a5f56e-af32-4393-fad1-d66d5eb70196","mesh":13},{"name":"8f2a6c9f-8bfa-98ab-93c0-0a1c86eaad0b","mesh":14},{"name":"bone","children":[0,1,2,3,4,5,6,7,8,9,10,11,12,13,14]},{"name":"bone"},{"name":"7af2856a-f56b-1bfc-209b-daa076292e85","mesh":15},{"name":"491fd97e-b1da-b2c4-6e8b-3743abcce111","mesh":16},{"name":"d1e750eb-49c7-cbb5-6e8a-c75d8e621cbb","mesh":17},{"name":"bccd5ce6-e7af-aa34-9afe-e296417a06c1","mesh":18},{"name":"bone","children":[16,17,18,19,20]},{"name":"c145c0d2-d0b2-04d3-1300-1ef1b137cb5c","mesh":19},{"name":"babd92fc-acaf-2906-bc7f-d5428a583eb7","mesh":20},{"name":"af0aab9b-c2a3-d645-1e45-ac593a2b32d0","mesh":21},{"name":"0883bd42-780a-7ee3-cb60-99e27635b315","mesh":22},{"name":"29638f14-53d2-89a3-58af-09ca5d230022","mesh":23},{"name":"15eb0b86-8ddf-5359-8836-addb5c3b983a","mesh":24},{"name":"55f019ca-7453-2a5d-c0f6-1e457488c150","mesh":25},{"name":"2302afc9-9f59-c5e6-1332-518dc629b6e8","mesh":26},{"name":"5603b400-e932-2fbb-b5fd-9ff2d2440b94","mesh":27},{"name":"b44a5c61-6799-8cba-5618-5bfdd10bda1f","mesh":28},{"name":"fed598b2-3bb9-73b9-295a-0f89b9ec0522","mesh":29},{"name":"1f016956-3f7d-d4a7-f51a-5ef5b50eeba6","mesh":30},{"name":"bone","children":[22,23,24,25,26,27,28,29,30,31,32,33]}],"bufferViews":[{"buffer":0,"byteOffset":0,"byteLength":432,"target":34962,"byteStride":12},{"buffer":0,"byteOffset":432,"byteLength":432,"target":34962,"byteStride":12},{"buffer":0,"byteOffset":864,"byteLength":288,"target":34962,"byteStride":8},{"buffer":0,"byteOffset":1152,"byteLength":432,"target":34962,"byteStride":12},{"buffer":0,"byteOffset":1584,"byteLength":432,"target":34962,"byteStride":12},{"buffer":0,"byteOffset":2016,"byteLength":288,"target":34962,"byteStride":8},{"buffer":0,"byteOffset":2304,"byteLength":432,"target":34962,"byteStride":12},{"buffer":0,"byteOffset":2736,"byteLength":432,"target":34962,"byteStride":12},{"buffer":0,"byteOffset":3168,"byteLength":288,"target":34962,"byteStride":8},{"buffer":0,"byteOffset":3456,"byteLength":432,"target":34962,"byteStride":12},{"buffer":0,"byteOffset":3888,"byteLength":432,"target":34962,"byteStride":12},{"buffer":0,"byteOffset":4320,"byteLength":288,"target":34962,"byteStride":8},{"buffer":0,"byteOffset":4608,"byteLength":432,"target":34962,"byteStride":12},{"buffer":0,"byteOffset":5040,"byteLength":432,"target":34962,"byteStride":12},{"buffer":0,"byteOffset":5472,"byteLength":288,"target":34962,"byteStride":8},{"buffer":0,"byteOffset":5760,"byteLength":432,"target":34962,"byteStride":12},{"buffer":0,"byteOffset":6192,"byteLength":432,"target":34962,"byteStride":12},{"buffer":0,"byteOffset":6624,"byteLength":288,"target":34962,"byteStride":8},{"buffer":0,"byteOffset":6912,"byteLength":432,"target":34962,"byteStride":12},{"buffer":0,"byteOffset":7344,"byteLength":432,"target":34962,"byteStride":12},{"buffer":0,"byteOffset":7776,"byteLength":288,"target":34962,"byteStride":8},{"buffer":0,"byteOffset":8064,"byteLength":432,"target":34962,"byteStride":12},{"buffer":0,"byteOffset":8496,"byteLength":432,"target":34962,"byteStride":12},{"buffer":0,"byteOffset":8928,"byteLength":288,"target":34962,"byteStride":8},{"buffer":0,"byteOffset":9216,"byteLength":432,"target":34962,"byteStride":12},{"buffer":0,"byteOffset":9648,"byteLength":432,"target":34962,"byteStride":12},{"buffer":0,"byteOffset":10080,"byteLength":288,"target":34962,"byteStride":8},{"buffer":0,"byteOffset":10368,"byteLength":432,"target":34962,"byteStride":12},{"buffer":0,"byteOffset":10800,"byteLength":432,"target":34962,"byteStride":12},{"buffer":0,"byteOffset":11232,"byteLength":288,"target":34962,"byteStride":8},{"buffer":0,"byteOffset":11520,"byteLength":432,"target":34962,"byteStride":12},{"buffer":0,"byteOffset":11952,"byteLength":432,"target":34962,"byteStride":12},{"buffer":0,"byteOffset":12384,"byteLength":288,"target":34962,"byteStride":8},{"buffer":0,"byteOffset":12672,"byteLength":432,"target":34962,"byteStride":12},{"buffer":0,"byteOffset":13104,"byteLength":432,"target":34962,"byteStride":12},{"buffer":0,"byteOffset":13536,"byteLength":288,"target":34962,"byteStride":8},{"buffer":0,"byteOffset":13824,"byteLength":432,"target":34962,"byteStride":12},{"buffer":0,"byteOffset":14256,"byteLength":432,"target":34962,"byteStride":12},{"buffer":0,"byteOffset":14688,"byteLength":288,"target":34962,"byteStride":8},{"buffer":0,"byteOffset":14976,"byteLength":432,"target":34962,"byteStride":12},{"buffer":0,"byteOffset":15408,"byteLength":432,"target":34962,"byteStride":12},{"buffer":0,"byteOffset":15840,"byteLength":288,"target":34962,"byteStride":8},{"buffer":0,"byteOffset":16128,"byteLength":432,"target":34962,"byteStride":12},{"buffer":0,"byteOffset":16560,"byteLength":432,"target":34962,"byteStride":12},{"buffer":0,"byteOffset":16992,"byteLength":288,"target":34962,"byteStride":8},{"buffer":0,"byteOffset":17280,"byteLength":432,"target":34962,"byteStride":12},{"buffer":0,"byteOffset":17712,"byteLength":432,"target":34962,"byteStride":12},{"buffer":0,"byteOffset":18144,"byteLength":288,"target":34962,"byteStride":8},{"buffer":0,"byteOffset":18432,"byteLength":432,"target":34962,"byteStride":12},{"buffer":0,"byteOffset":18864,"byteLength":432,"target":34962,"byteStride":12},{"buffer":0,"byteOffset":19296,"byteLength":288,"target":34962,"byteStride":8},{"buffer":0,"byteOffset":19584,"byteLength":432,"target":34962,"byteStride":12},{"buffer":0,"byteOffset":20016,"byteLength":432,"target":34962,"byteStride":12},{"buffer":0,"byteOffset":20448,"byteLength":288,"target":34962,"byteStride":8},{"buffer":0,"byteOffset":20736,"byteLength":432,"target":34962,"byteStride":12},{"buffer":0,"byteOffset":21168,"byteLength":432,"target":34962,"byteStride":12},{"buffer":0,"byteOffset":21600,"byteLength":288,"target":34962,"byteStride":8},{"buffer":0,"byteOffset":21888,"byteLength":432,"target":34962,"byteStride":12},{"buffer":0,"byteOffset":22320,"byteLength":432,"target":34962,"byteStride":12},{"buffer":0,"byteOffset":22752,"byteLength":288,"target":34962,"byteStride":8},{"buffer":0,"byteOffset":23040,"byteLength":432,"target":34962,"byteStride":12},{"buffer":0,"byteOffset":23472,"byteLength":432,"target":34962,"byteStride":12},{"buffer":0,"byteOffset":23904,"byteLength":288,"target":34962,"byteStride":8},{"buffer":0,"byteOffset":24192,"byteLength":432,"target":34962,"byteStride":12},{"buffer":0,"byteOffset":24624,"byteLength":432,"target":34962,"byteStride":12},{"buffer":0,"byteOffset":25056,"byteLength":288,"target":34962,"byteStride":8},{"buffer":0,"byteOffset":25344,"byteLength":432,"target":34962,"byteStride":12},{"buffer":0,"byteOffset":25776,"byteLength":432,"target":34962,"byteStride":12},{"buffer":0,"byteOffset":26208,"byteLength":288,"target":34962,"byteStride":8},{"buffer":0,"byteOffset":26496,"byteLength":432,"target":34962,"byteStride":12},{"buffer":0,"byteOffset":26928,"byteLength":432,"target":34962,"byteStride":12},{"buffer":0,"byteOffset":27360,"byteLength":288,"target":34962,"byteStride":8},{"buffer":0,"byteOffset":27648,"byteLength":432,"target":34962,"byteStride":12},{"buffer":0,"byteOffset":28080,"byteLength":432,"target":34962,"byteStride":12},{"buffer":0,"byteOffset":28512,"byteLength":288,"target":34962,"byteStride":8},{"buffer":0,"byteOffset":28800,"byteLength":432,"target":34962,"byteStride":12},{"buffer":0,"byteOffset":29232,"byteLength":432,"target":34962,"byteStride":12},{"buffer":0,"byteOffset":29664,"byteLength":288,"target":34962,"byteStride":8},{"buffer":0,"byteOffset":29952,"byteLength":432,"target":34962,"byteStride":12},{"buffer":0,"byteOffset":30384,"byteLength":432,"target":34962,"byteStride":12},{"buffer":0,"byteOffset":30816,"byteLength":288,"target":34962,"byteStride":8},{"buffer":0,"byteOffset":31104,"byteLength":432,"target":34962,"byteStride":12},{"buffer":0,"byteOffset":31536,"byteLength":432,"target":34962,"byteStride":12},{"buffer":0,"byteOffset":31968,"byteLength":288,"target":34962,"byteStride":8},{"buffer":0,"byteOffset":32256,"byteLength":432,"target":34962,"byteStride":12},{"buffer":0,"byteOffset":32688,"byteLength":432,"target":34962,"byteStride":12},{"buffer":0,"byteOffset":33120,"byteLength":288,"target":34962,"byteStride":8},{"buffer":0,"byteOffset":33408,"byteLength":432,"target":34962,"byteStride":12},{"buffer":0,"byteOffset":33840,"byteLength":432,"target":34962,"byteStride":12},{"buffer":0,"byteOffset":34272,"byteLength":288,"target":34962,"byteStride":8},{"buffer":0,"byteOffset":34560,"byteLength":432,"target":34962,"byteStride":12},{"buffer":0,"byteOffset":34992,"byteLength":432,"target":34962,"byteStride":12},{"buffer":0,"byteOffset":35424,"byteLength":288,"target":34962,"byteStride":8}],"buffers":[{"byteLength":35712,"uri":"data:application/octet-stream;base64,"}],"accessors":[{"bufferView":0,"componentType":5126,"count":36,"max":[0.24375000596046448,0.574999988079071,0.75],"min":[0.19374999403953552,0.48750001192092896,-0.75],"type":"VEC3"},{"bufferView":1,"componentType":5126,"count":36,"max":[1,1,1],"min":[-1,-1,-1],"type":"VEC3"},{"bufferView":2,"componentType":5126,"count":36,"max":[0.1875,1],"min":[0,0.8125],"type":"VEC2"},{"bufferView":3,"componentType":5126,"count":36,"max":[0.24375000596046448,1.1375000476837158,0.75],"min":[0.19374999403953552,1.0499999523162842,-0.75],"type":"VEC3"},{"bufferView":4,"componentType":5126,"count":36,"max":[1,1,1],"min":[-1,-1,-1],"type":"VEC3"},{"bufferView":5,"componentType":5126,"count":36,"max":[0.1875,1],"min":[0,0.8125],"type":"VEC2"},{"bufferView":6,"componentType":5126,"count":36,"max":[0.23749999701976776,1.0625,0.03125],"min":[0.20000000298023224,0.5625,-0.03125],"type":"VEC3"},{"bufferView":7,"componentType":5126,"count":36,"max":[1,1,1],"min":[-1,-1,-1],"type":"VEC3"},{"bufferView":8,"componentType":5126,"count":36,"max":[0.0078125,1],"min":[0,0.9375],"type":"VEC2"},{"bufferView":9,"componentType":5126,"count":36,"max":[0.23749999701976776,1.0625,-0.09375],"min":[0.20000000298023224,0.5625,-0.15625],"type":"VEC3"},{"bufferView":10,"componentType":5126,"count":36,"max":[1,1,1],"min":[-1,-1,-1],"type":"VEC3"},{"bufferView":11,"componentType":5126,"count":36,"max":[0.0078125,1],"min":[0,0.9375],"type":"VEC2"},{"bufferView":12,"componentType":5126,"count":36,"max":[0.23749999701976776,1.0625,-0.21875],"min":[0.20000000298023224,0.5625,-0.28125],"type":"VEC3"},{"bufferView":13,"componentType":5126,"count":36,"max":[1,1,1],"min":[-1,-1,-1],"type":"VEC3"},{"bufferView":14,"componentType":5126,"count":36,"max":[0.0078125,1],"min":[0,0.9375],"type":"VEC2"},{"bufferView":15,"componentType":5126,"count":36,"max":[0.23749999701976776,1.0625,-0.34375],"min":[0.20000000298023224,0.5625,-0.40625],"type":"VEC3"},{"bufferView":16,"componentType":5126,"count":36,"max":[1,1,1],"min":[-1,-1,-1],"type":"VEC3"},{"bufferView":17,"componentType":5126,"count":36,"max":[0.0078125,1],"min":[0,0.9375],"type":"VEC2"},{"bufferView":18,"componentType":5126,"count":36,"max":[0.23749999701976776,1.0625,-0.46875],"min":[0.20000000298023224,0.5625,-0.53125],"type":"VEC3"},{"bufferView":19,"componentType":5126,"count":36,"max":[1,1,1],"min":[-1,-1,-1],"type":"VEC3"},{"bufferView":20,"componentType":5126,"count":36,"max":[0.0078125,1],"min":[0,0.9375],"type":"VEC2"},{"bufferView":21,"componentType":5126,"count":36,"max":[0.23749999701976776,1.0625,-0.59375],"min":[0.20000000298023224,0.5625,-0.65625],"type":"VEC3"},{"bufferView":22,"componentType":5126,"count":36,"max":[1,1,1],"min":[-1,-1,-1],"type":"VEC3"},{"bufferView":23,"componentType":5126,"count":36,"max":[0.0078125,1],"min":[0,0.9375],"type":"VEC2"},{"bufferView":24,"componentType":5126,"count":36,"max":[0.23749999701976776,1.0625,-0.71875],"min":[0.20000000298023224,0.5625,-0.78125],"type":"VEC3"},{"bufferView":25,"componentType":5126,"count":36,"max":[1,1,1],"min":[-1,-1,-1],"type":"VEC3"},{"bufferView":26,"componentType":5126,"count":36,"max":[0.0078125,1],"min":[0,0.9375],"type":"VEC2"},{"bufferView":27,"componentType":5126,"count":36,"max":[0.23749999701976776,1.0625,0.15625],"min":[0.20000000298023224,0.5625,0.09375],"type":"VEC3"},{"bufferView":28,"componentType":5126,"count":36,"max":[1,1,1],"min":[-1,-1,-1],"type":"VEC3"},{"bufferView":29,"componentType":5126,"count":36,"max":[0.0078125,1],"min":[0,0.9375],"type":"VEC2"},{"bufferView":30,"componentType":5126,"count":36,"max":[0.23749999701976776,1.0625,0.28125],"min":[0.20000000298023224,0.5625,0.21875],"type":"VEC3"},{"bufferView":31,"componentType":5126,"count":36,"max":[1,1,1],"min":[-1,-1,-1],"type":"VEC3"},{"bufferView":32,"componentType":5126,"count":36,"max":[0.0078125,1],"min":[0,0.9375],"type":"VEC2"},{"bufferView":33,"componentType":5126,"count":36,"max":[0.23749999701976776,1.0625,0.40625],"min":[0.20000000298023224,0.5625,0.34375],"type":"VEC3"},{"bufferView":34,"componentType":5126,"count":36,"max":[1,1,1],"min":[-1,-1,-1],"type":"VEC3"},{"bufferView":35,"componentType":5126,"count":36,"max":[0.0078125,1],"min":[0,0.9375],"type":"VEC2"},{"bufferView":36,"componentType":5126,"count":36,"max":[0.23749999701976776,1.0625,0.53125],"min":[0.20000000298023224,0.5625,0.46875],"type":"VEC3"},{"bufferView":37,"componentType":5126,"count":36,"max":[1,1,1],"min":[-1,-1,-1],"type":"VEC3"},{"bufferView":38,"componentType":5126,"count":36,"max":[0.0078125,1],"min":[0,0.9375],"type":"VEC2"},{"bufferView":39,"componentType":5126,"count":36,"max":[0.23749999701976776,1.0625,0.65625],"min":[0.20000000298023224,0.5625,0.59375],"type":"VEC3"},{"bufferView":40,"componentType":5126,"count":36,"max":[1,1,1],"min":[-1,-1,-1],"type":"VEC3"},{"bufferView":41,"componentType":5126,"count":36,"max":[0.0078125,1],"min":[0,0.9375],"type":"VEC2"},{"bufferView":42,"componentType":5126,"count":36,"max":[0.23749999701976776,1.0625,0.78125],"min":[0.20000000298023224,0.5625,0.71875],"type":"VEC3"},{"bufferView":43,"componentType":5126,"count":36,"max":[1,1,1],"min":[-1,-1,-1],"type":"VEC3"},{"bufferView":44,"componentType":5126,"count":36,"max":[0.0078125,1],"min":[0,0.9375],"type":"VEC2"},{"bufferView":45,"componentType":5126,"count":36,"max":[-0.125,0.4375,0.75],"min":[-0.25,0.375,-0.75],"type":"VEC3"},{"bufferView":46,"componentType":5126,"count":36,"max":[1,1,1],"min":[-1,-1,-1],"type":"VEC3"},{"bufferView":47,"componentType":5126,"count":36,"max":[0.1875,1],"min":[0,0.8125],"type":"VEC2"},{"bufferView":48,"componentType":5126,"count":36,"max":[-0.03125,0.4375,0.75],"min":[-0.09375,0.375,-0.75],"type":"VEC3"},{"bufferView":49,"componentType":5126,"count":36,"max":[1,1,1],"min":[-1,-1,-1],"type":"VEC3"},{"bufferView":50,"componentType":5126,"count":36,"max":[0.1875,1],"min":[0,0.8125],"type":"VEC2"},{"bufferView":51,"componentType":5126,"count":36,"max":[0.0625,0.4375,0.75],"min":[-2.7755575615628914e-17,0.375,-0.75],"type":"VEC3"},{"bufferView":52,"componentType":5126,"count":36,"max":[1,1,1],"min":[-1,-1,-1],"type":"VEC3"},{"bufferView":53,"componentType":5126,"count":36,"max":[0.1875,1],"min":[0,0.8125],"type":"VEC2"},{"bufferView":54,"componentType":5126,"count":36,"max":[0.25,0.4375,0.75],"min":[0.10000000149011612,0.375,-0.75],"type":"VEC3"},{"bufferView":55,"componentType":5126,"count":36,"max":[1,1,1],"min":[-1,-1,-1],"type":"VEC3"},{"bufferView":56,"componentType":5126,"count":36,"max":[0.1875,1],"min":[0,0.8125],"type":"VEC2"},{"bufferView":57,"componentType":5126,"count":36,"max":[0.26875001192092896,1.1875,-0.75],"min":[0.1875,0,-0.8125],"type":"VEC3"},{"bufferView":58,"componentType":5126,"count":36,"max":[1,1,1],"min":[-1,-1,-1],"type":"VEC3"},{"bufferView":59,"componentType":5126,"count":36,"max":[0.01015624962747097,1],"min":[0,0.8515625],"type":"VEC2"},{"bufferView":60,"componentType":5126,"count":36,"max":[-0.1875,0.625,-0.75],"min":[-0.26249998807907104,0,-0.8125],"type":"VEC3"},{"bufferView":61,"componentType":5126,"count":36,"max":[1,1,1],"min":[-1,-1,-1],"type":"VEC3"},{"bufferView":62,"componentType":5126,"count":36,"max":[0.00937500037252903,1],"min":[0,0.921875],"type":"VEC2"},{"bufferView":63,"componentType":5126,"count":36,"max":[0.26875001192092896,1.1875,0.8125],"min":[0.1875,0,0.75],"type":"VEC3"},{"bufferView":64,"componentType":5126,"count":36,"max":[1,1,1],"min":[-1,-1,-1],"type":"VEC3"},{"bufferView":65,"componentType":5126,"count":36,"max":[0.01015624962747097,1],"min":[0,0.8515625],"type":"VEC2"},{"bufferView":66,"componentType":5126,"count":36,"max":[-0.1875,0.625,0.8125],"min":[-0.26249998807907104,0,0.75],"type":"VEC3"},{"bufferView":67,"componentType":5126,"count":36,"max":[1,1,1],"min":[-1,-1,-1],"type":"VEC3"},{"bufferView":68,"componentType":5126,"count":36,"max":[0.00937500037252903,1],"min":[0,0.921875],"type":"VEC2"},{"bufferView":69,"componentType":5126,"count":36,"max":[0.1875,0.4375,0.8125],"min":[-0.1875,0.375,0.75],"type":"VEC3"},{"bufferView":70,"componentType":5126,"count":36,"max":[1,1,1],"min":[-1,-1,-1],"type":"VEC3"},{"bufferView":71,"componentType":5126,"count":36,"max":[0.046875,1],"min":[0,0.9921875],"type":"VEC2"},{"bufferView":72,"componentType":5126,"count":36,"max":[0.1875,0.4375,-0.75],"min":[-0.1875,0.375,-0.8125],"type":"VEC3"},{"bufferView":73,"componentType":5126,"count":36,"max":[1,1,1],"min":[-1,-1,-1],"type":"VEC3"},{"bufferView":74,"componentType":5126,"count":36,"max":[0.046875,1],"min":[0,0.9921875],"type":"VEC2"},{"bufferView":75,"componentType":5126,"count":36,"max":[0.1875,0.125,0.8062499761581421],"min":[-0.1875,0.0625,0.7562500238418579],"type":"VEC3"},{"bufferView":76,"componentType":5126,"count":36,"max":[1,1,1],"min":[-1,-1,-1],"type":"VEC3"},{"bufferView":77,"componentType":5126,"count":36,"max":[0.046875,1],"min":[0,0.9921875],"type":"VEC2"},{"bufferView":78,"componentType":5126,"count":36,"max":[0.1875,0.125,-0.7562500238418579],"min":[-0.1875,0.0625,-0.8062499761581421],"type":"VEC3"},{"bufferView":79,"componentType":5126,"count":36,"max":[1,1,1],"min":[-1,-1,-1],"type":"VEC3"},{"bufferView":80,"componentType":5126,"count":36,"max":[0.046875,1],"min":[0,0.9921875],"type":"VEC2"},{"bufferView":81,"componentType":5126,"count":36,"max":[0.1875,0.6875,-0.7250000238418579],"min":[-0.3125,0.625,-0.8125],"type":"VEC3"},{"bufferView":82,"componentType":5126,"count":36,"max":[1,1,1],"min":[-1,-1,-1],"type":"VEC3"},{"bufferView":83,"componentType":5126,"count":36,"max":[0.0625,1],"min":[0,0.989062488079071],"type":"VEC2"},{"bufferView":84,"componentType":5126,"count":36,"max":[0.1875,0.6875,0.8125],"min":[-0.3125,0.625,0.7250000238418579],"type":"VEC3"},{"bufferView":85,"componentType":5126,"count":36,"max":[1,1,1],"min":[-1,-1,-1],"type":"VEC3"},{"bufferView":86,"componentType":5126,"count":36,"max":[0.0625,1],"min":[0,0.989062488079071],"type":"VEC2"},{"bufferView":87,"componentType":5126,"count":36,"max":[0.28125,1.2000000476837158,-0.737500011920929],"min":[0.17499999701976776,1.125,-0.824999988079071],"type":"VEC3"},{"bufferView":88,"componentType":5126,"count":36,"max":[1,1,1],"min":[-1,-1,-1],"type":"VEC3"},{"bufferView":89,"componentType":5126,"count":36,"max":[0.01328125037252903,1],"min":[0,0.989062488079071],"type":"VEC2"},{"bufferView":90,"componentType":5126,"count":36,"max":[0.28125,1.2000000476837158,0.824999988079071],"min":[0.17499999701976776,1.125,0.737500011920929],"type":"VEC3"},{"bufferView":91,"componentType":5126,"count":36,"max":[1,1,1],"min":[-1,-1,-1],"type":"VEC3"},{"bufferView":92,"componentType":5126,"count":36,"max":[0.01328125037252903,1],"min":[0,0.989062488079071],"type":"VEC2"}],"materials":[{"pbrMetallicRoughness":{"metallicFactor":0,"roughnessFactor":1,"baseColorTexture":{"index":0}},"alphaMode":"MASK","alphaCutoff":0.05,"doubleSided":true},{"pbrMetallicRoughness":{"metallicFactor":0,"roughnessFactor":1,"baseColorTexture":{"index":1}},"alphaMode":"MASK","alphaCutoff":0.05,"doubleSided":true}],"textures":[{"sampler":0,"source":0,"name":"dark wood"},{"sampler":1,"source":1,"name":"wood"}],"samplers":[{"magFilter":9728,"minFilter":9728,"wrapS":33071,"wrapT":33071},{"magFilter":9728,"minFilter":9728,"wrapS":33071,"wrapT":33071}],"images":[{"mimeType":"image/png","uri":"data:image/png;base64,"},{"mimeType":"image/png","uri":"data:image/png;base64,"}],"meshes":[{"primitives":[{"mode":4,"attributes":{"POSITION":0,"NORMAL":1,"TEXCOORD_0":2},"material":0}]},{"primitives":[{"mode":4,"attributes":{"POSITION":3,"NORMAL":4,"TEXCOORD_0":5},"material":0}]},{"primitives":[{"mode":4,"attributes":{"POSITION":6,"NORMAL":7,"TEXCOORD_0":8},"material":1}]},{"primitives":[{"mode":4,"attributes":{"POSITION":9,"NORMAL":10,"TEXCOORD_0":11},"material":1}]},{"primitives":[{"mode":4,"attributes":{"POSITION":12,"NORMAL":13,"TEXCOORD_0":14},"material":1}]},{"primitives":[{"mode":4,"attributes":{"POSITION":15,"NORMAL":16,"TEXCOORD_0":17},"material":1}]},{"primitives":[{"mode":4,"attributes":{"POSITION":18,"NORMAL":19,"TEXCOORD_0":20},"material":1}]},{"primitives":[{"mode":4,"attributes":{"POSITION":21,"NORMAL":22,"TEXCOORD_0":23},"material":1}]},{"primitives":[{"mode":4,"attributes":{"POSITION":24,"NORMAL":25,"TEXCOORD_0":26},"material":1}]},{"primitives":[{"mode":4,"attributes":{"POSITION":27,"NORMAL":28,"TEXCOORD_0":29},"material":1}]},{"primitives":[{"mode":4,"attributes":{"POSITION":30,"NORMAL":31,"TEXCOORD_0":32},"material":1}]},{"primitives":[{"mode":4,"attributes":{"POSITION":33,"NORMAL":34,"TEXCOORD_0":35},"material":1}]},{"primitives":[{"mode":4,"attributes":{"POSITION":36,"NORMAL":37,"TEXCOORD_0":38},"material":1}]},{"primitives":[{"mode":4,"attributes":{"POSITION":39,"NORMAL":40,"TEXCOORD_0":41},"material":1}]},{"primitives":[{"mode":4,"attributes":{"POSITION":42,"NORMAL":43,"TEXCOORD_0":44},"material":1}]},{"primitives":[{"mode":4,"attributes":{"POSITION":45,"NORMAL":46,"TEXCOORD_0":47},"material":1}]},{"primitives":[{"mode":4,"attributes":{"POSITION":48,"NORMAL":49,"TEXCOORD_0":50},"material":1}]},{"primitives":[{"mode":4,"attributes":{"POSITION":51,"NORMAL":52,"TEXCOORD_0":53},"material":1}]},{"primitives":[{"mode":4,"attributes":{"POSITION":54,"NORMAL":55,"TEXCOORD_0":56},"material":1}]},{"primitives":[{"mode":4,"attributes":{"POSITION":57,"NORMAL":58,"TEXCOORD_0":59},"material":1}]},{"primitives":[{"mode":4,"attributes":{"POSITION":60,"NORMAL":61,"TEXCOORD_0":62},"material":1}]},{"primitives":[{"mode":4,"attributes":{"POSITION":63,"NORMAL":64,"TEXCOORD_0":65},"material":1}]},{"primitives":[{"mode":4,"attributes":{"POSITION":66,"NORMAL":67,"TEXCOORD_0":68},"material":1}]},{"primitives":[{"mode":4,"attributes":{"POSITION":69,"NORMAL":70,"TEXCOORD_0":71},"material":0}]},{"primitives":[{"mode":4,"attributes":{"POSITION":72,"NORMAL":73,"TEXCOORD_0":74},"material":0}]},{"primitives":[{"mode":4,"attributes":{"POSITION":75,"NORMAL":76,"TEXCOORD_0":77},"material":0}]},{"primitives":[{"mode":4,"attributes":{"POSITION":78,"NORMAL":79,"TEXCOORD_0":80},"material":0}]},{"primitives":[{"mode":4,"attributes":{"POSITION":81,"NORMAL":82,"TEXCOORD_0":83},"material":0}]},{"primitives":[{"mode":4,"attributes":{"POSITION":84,"NORMAL":85,"TEXCOORD_0":86},"material":0}]},{"primitives":[{"mode":4,"attributes":{"POSITION":87,"NORMAL":88,"TEXCOORD_0":89},"material":0}]},{"primitives":[{"mode":4,"attributes":{"POSITION":90,"NORMAL":91,"TEXCOORD_0":92},"material":0}]}]}