{"asset":{"version":"2.0","generator":"Blockbench 3.9.3 glTF exporter"},"scenes":[{"nodes":[0,1,2,3,4,5,6,7,8],"name":"blockbench_export"}],"scene":0,"nodes":[{"rotation":[0,-0.6427876096865389,0,0.7660444431189785],"translation":[0.37939000861314887,0.03125,0.26362254033527244],"name":"ca10e3a0-3b3e-a651-2142-bc16dfeb4a77","mesh":0},{"rotation":[0,-0.15212338618991667,0,0.9883615104677607],"translation":[-0.26958446032737116,0.03125,-0.3800698948877693],"name":"592fde29-d749-6b02-3361-fa0340cff997","mesh":1},{"name":"b1cd123b-e95a-b22c-11b3-b1e0f7417589","mesh":2},{"rotation":[0,-0.38268343236508984,0,0.9238795325112867],"name":"1ea359e0-ed6f-1071-3fcf-c2c90e0423fe","mesh":3},{"name":"1317d90d-124f-79cd-8435-d04e90181d59","mesh":4},{"name":"522bd1c5-c4a5-8ec9-b545-b19956a9cebc","mesh":5},{"rotation":[3.313870358775352e-17,0.9238795325112867,3.313870358775352e-17,0.38268343236508984],"translation":[-0.46874999999999967,0.034375,-5.551115123125783e-17],"name":"101984cf-2e8b-ceb9-f8f6-283a15fae889","mesh":6},{"rotation":[0,0.7071067811865475,0,0.7071067811865476],"translation":[0,0.040625,0.46875],"name":"6f10052e-bb80-6da4-2ed8-9e78e8305608","mesh":7},{"name":"e15317d8-3ab5-c334-29b0-786b7138c37c","mesh":8}],"bufferViews":[{"buffer":0,"byteOffset":0,"byteLength":432,"target":34962,"byteStride":12},{"buffer":0,"byteOffset":432,"byteLength":432,"target":34962,"byteStride":12},{"buffer":0,"byteOffset":864,"byteLength":288,"target":34962,"byteStride":8},{"buffer":0,"byteOffset":1152,"byteLength":432,"target":34962,"byteStride":12},{"buffer":0,"byteOffset":1584,"byteLength":432,"target":34962,"byteStride":12},{"buffer":0,"byteOffset":2016,"byteLength":288,"target":34962,"byteStride":8},{"buffer":0,"byteOffset":2304,"byteLength":432,"target":34962,"byteStride":12},{"buffer":0,"byteOffset":2736,"byteLength":432,"target":34962,"byteStride":12},{"buffer":0,"byteOffset":3168,"byteLength":288,"target":34962,"byteStride":8},{"buffer":0,"byteOffset":3456,"byteLength":432,"target":34962,"byteStride":12},{"buffer":0,"byteOffset":3888,"byteLength":432,"target":34962,"byteStride":12},{"buffer":0,"byteOffset":4320,"byteLength":288,"target":34962,"byteStride":8},{"buffer":0,"byteOffset":4608,"byteLength":432,"target":34962,"byteStride":12},{"buffer":0,"byteOffset":5040,"byteLength":432,"target":34962,"byteStride":12},{"buffer":0,"byteOffset":5472,"byteLength":288,"target":34962,"byteStride":8},{"buffer":0,"byteOffset":5760,"byteLength":432,"target":34962,"byteStride":12},{"buffer":0,"byteOffset":6192,"byteLength":432,"target":34962,"byteStride":12},{"buffer":0,"byteOffset":6624,"byteLength":288,"target":34962,"byteStride":8},{"buffer":0,"byteOffset":6912,"byteLength":432,"target":34962,"byteStride":12},{"buffer":0,"byteOffset":7344,"byteLength":432,"target":34962,"byteStride":12},{"buffer":0,"byteOffset":7776,"byteLength":288,"target":34962,"byteStride":8},{"buffer":0,"byteOffset":8064,"byteLength":432,"target":34962,"byteStride":12},{"buffer":0,"byteOffset":8496,"byteLength":432,"target":34962,"byteStride":12},{"buffer":0,"byteOffset":8928,"byteLength":288,"target":34962,"byteStride":8},{"buffer":0,"byteOffset":9216,"byteLength":432,"target":34962,"byteStride":12},{"buffer":0,"byteOffset":9648,"byteLength":432,"target":34962,"byteStride":12},{"buffer":0,"byteOffset":10080,"byteLength":288,"target":34962,"byteStride":8}],"buffers":[{"byteLength":10368,"uri":"data:application/octet-stream;base64,"}],"accessors":[{"bufferView":0,"componentType":5126,"count":36,"max":[0.15937499701976776,0.03125,0.02812499925494194],"min":[-0.03437500074505806,-0.03125,-0.09687499701976776],"type":"VEC3"},{"bufferView":1,"componentType":5126,"count":36,"max":[1,1,1],"min":[-1,-1,-1],"type":"VEC3"},{"bufferView":2,"componentType":5126,"count":36,"max":[0.19374999403953552,1],"min":[0,0.875],"type":"VEC2"},{"bufferView":3,"componentType":5126,"count":36,"max":[0.03437500074505806,0.03125,0.03437500074505806],"min":[-0.15937499701976776,-0.03125,-0.07187499850988388],"type":"VEC3"},{"bufferView":4,"componentType":5126,"count":36,"max":[1,1,1],"min":[-1,-1,-1],"type":"VEC3"},{"bufferView":5,"componentType":5126,"count":36,"max":[0.19374999403953552,1],"min":[0,0.893750011920929],"type":"VEC2"},{"bufferView":6,"componentType":5126,"count":36,"max":[0.29374998807907104,0.0625,-0.06875000149011612],"min":[0.07500000298023224,0,-0.36250001192092896],"type":"VEC3"},{"bufferView":7,"componentType":5126,"count":36,"max":[1,1,1],"min":[-1,-1,-1],"type":"VEC3"},{"bufferView":8,"componentType":5126,"count":36,"max":[0.29374998807907104,1],"min":[0,0.706250011920929],"type":"VEC2"},{"bufferView":9,"componentType":5126,"count":36,"max":[0.48124998807907104,0.0625,-0.0062500000931322575],"min":[-0.48750001192092896,0,-0.22499999403953552],"type":"VEC3"},{"bufferView":10,"componentType":5126,"count":36,"max":[1,1,1],"min":[-1,-1,-1],"type":"VEC3"},{"bufferView":11,"componentType":5126,"count":36,"max":[0.96875,1],"min":[0,0.78125],"type":"VEC2"},{"bufferView":12,"componentType":5126,"count":36,"max":[0.48124998807907104,0.0625,0.24375000596046448],"min":[0.20000000298023224,0,-0.48750001192092896],"type":"VEC3"},{"bufferView":13,"componentType":5126,"count":36,"max":[1,1,1],"min":[-1,-1,-1],"type":"VEC3"},{"bufferView":14,"componentType":5126,"count":36,"max":[0.731249988079071,1],"min":[0,0.26875001192092896],"type":"VEC2"},{"bufferView":15,"componentType":5126,"count":36,"max":[0.48124998807907104,0.0625,-0.19374999403953552],"min":[-0.23749999701976776,0,-0.48750001192092896],"type":"VEC3"},{"bufferView":16,"componentType":5126,"count":36,"max":[1,1,1],"min":[-1,-1,-1],"type":"VEC3"},{"bufferView":17,"componentType":5126,"count":36,"max":[0.71875,1],"min":[0,0.706250011920929],"type":"VEC2"},{"bufferView":18,"componentType":5126,"count":36,"max":[0.3499999940395355,0.04062499850988388,0.35624998807907104],"min":[-1.024999976158142,-0.04062499850988388,0.29374998807907104],"type":"VEC3"},{"bufferView":19,"componentType":5126,"count":36,"max":[1,1,1],"min":[-1,-1,-1],"type":"VEC3"},{"bufferView":20,"componentType":5126,"count":36,"max":[1,1],"min":[0,0.918749988079071],"type":"VEC2"},{"bufferView":21,"componentType":5126,"count":36,"max":[0.96875,0.04062499850988388,0.5062500238418579],"min":[-0.03125,-0.04062499850988388,0.4437499940395355],"type":"VEC3"},{"bufferView":22,"componentType":5126,"count":36,"max":[1,1,1],"min":[-1,-1,-1],"type":"VEC3"},{"bufferView":23,"componentType":5126,"count":36,"max":[1,1],"min":[0,0.918749988079071],"type":"VEC2"},{"bufferView":24,"componentType":5126,"count":36,"max":[0.5,0.08124999701976776,-0.4437499940395355],"min":[-0.5,-0.0062500000931322575,-0.5062500238418579],"type":"VEC3"},{"bufferView":25,"componentType":5126,"count":36,"max":[1,1,1],"min":[-1,-1,-1],"type":"VEC3"},{"bufferView":26,"componentType":5126,"count":36,"max":[1,1],"min":[0,0.9125000238418579],"type":"VEC2"}],"materials":[{"pbrMetallicRoughness":{"metallicFactor":0,"roughnessFactor":1,"baseColorTexture":{"index":0}},"alphaMode":"MASK","alphaCutoff":0.05,"doubleSided":true},{"pbrMetallicRoughness":{"metallicFactor":0,"roughnessFactor":1,"baseColorTexture":{"index":1}},"alphaMode":"MASK","alphaCutoff":0.05,"doubleSided":true}],"textures":[{"sampler":0,"source":0,"name":"dirt"},{"sampler":1,"source":1,"name":"wood"}],"samplers":[{"magFilter":9728,"minFilter":9728,"wrapS":33071,"wrapT":33071},{"magFilter":9728,"minFilter":9728,"wrapS":33071,"wrapT":33071}],"images":[{"mimeType":"image/png","uri":"data:image/png;base64,"},{"mimeType":"image/png","uri":"data:image/png;base64,"}],"meshes":[{"primitives":[{"mode":4,"attributes":{"POSITION":0,"NORMAL":1,"TEXCOORD_0":2},"material":0}]},{"primitives":[{"mode":4,"attributes":{"POSITION":3,"NORMAL":4,"TEXCOORD_0":5},"material":0}]},{"primitives":[{"mode":4,"attributes":{"POSITION":6,"NORMAL":7,"TEXCOORD_0":8},"material":0}]},{"primitives":[{"mode":4,"attributes":{"POSITION":9,"NORMAL":10,"TEXCOORD_0":11},"material":0}]},{"primitives":[{"mode":4,"attributes":{"POSITION":12,"NORMAL":13,"TEXCOORD_0":14},"material":0}]},{"primitives":[{"mode":4,"attributes":{"POSITION":15,"NORMAL":16,"TEXCOORD_0":17},"material":0}]},{"primitives":[{"mode":4,"attributes":{"POSITION":18,"NORMAL":19,"TEXCOORD_0":20},"material":1}]},{"primitives":[{"mode":4,"attributes":{"POSITION":21,"NORMAL":22,"TEXCOORD_0":23},"material":1}]},{"primitives":[{"mode":4,"attributes":{"POSITION":24,"NORMAL":25,"TEXCOORD_0":26},"material":1}]}]}