{"asset":{"version":"2.0","generator":"Blockbench 3.9.3 glTF exporter"},"scenes":[{"nodes":[0,1,2,3,6,9,12,15,18,21,24,27,28,29,30,31,32,33,34,35,36,37,38,39,40,41,42,43,44],"name":"blockbench_export"}],"scene":0,"nodes":[{"name":"efd6273c-aba6-debe-f27b-6f33033be7f0","mesh":0},{"name":"dfa3b4a6-89e8-d27c-24e3-e5299da74170","mesh":1},{"name":"3c0d928f-0d67-13c7-e106-da1e7089fdcf","mesh":2},{"name":"df7fd52a-61e0-497d-0bf7-f1d8e14a3dd6","mesh":3},{"name":"883568ed-31c0-374b-2c40-81b076083bad","mesh":4},{"name":"f40501d4-1429-7740-49d4-c7f0dbdf4efe","mesh":5},{"rotation":[0.06042461245791972,0.9219014355138967,0.02502869398120891,0.38186407776108244],"translation":[0.0375,0,0.03750000000000001],"name":"leaf7","children":[4,5]},{"name":"e74ec27e-bf76-8ac7-93b5-e792ab15c26a","mesh":6},{"name":"3e9e37a5-3ce0-8750-a50f-914dbbbf843e","mesh":7},{"rotation":[-0.06042461245792002,0.921901435513897,-0.02502869398120893,0.3818640777610816],"translation":[-0.0062500000000000056,0,-0.006249999999999993],"name":"leaf6","children":[7,8]},{"name":"8690b2cf-ff88-8a6c-5164-de518f45082f","mesh":8},{"name":"0ba61dbf-a39a-b9e2-a77d-fea74aee14a8","mesh":9},{"rotation":[-0.0250286939812088,0.38186407776108205,-0.06042461245791987,0.9219014355138968],"translation":[0.006249999999999997,0,-0.012499999999999994],"name":"leaf5","children":[10,11]},{"name":"fbca2149-087c-93a6-9936-c27c55f00220","mesh":10},{"name":"a7985ba0-5c5f-cb13-09c1-4077bd655a0d","mesh":11},{"rotation":[0.025028693981208716,0.38186407776108183,0.06042461245791983,0.9219014355138969],"translation":[-0.05,0,0.043750000000000004],"name":"leaf4","children":[13,14]},{"name":"2c472115-aecf-55bb-1079-051131a8bc27","mesh":12},{"name":"109e067f-7044-b9ac-b134-731f70819040","mesh":13},{"rotation":[0.06162841671622066,0.7044160264027582,0.0616284167162206,0.7044160264027586],"translation":[-0.006249999999999999,0,0.05625],"name":"leaf3","children":[16,17]},{"name":"5e8d7cec-d786-92fa-ef6a-eb02404b3f24","mesh":14},{"name":"8f23b5e1-e71d-31cb-96b7-6c0b07e0aedf","mesh":15},{"rotation":[-0.0769805072464862,0.7029039659951741,-0.07698050366233655,0.7029039892817665],"translation":[-0.006249999999999999,0,0],"name":"leaf2","children":[19,20]},{"name":"ef463186-65f2-e2e4-f537-5e224c1b37a4","mesh":16},{"name":"3ba38dc0-c53d-4de4-619f-f765bf2ed9cd","mesh":17},{"rotation":[0,0,0.10886687485196457,0.9940563382223196],"translation":[-0.05,0,0],"name":"leaf","children":[22,23]},{"name":"2ce741f4-fe3b-09fd-6b25-078f2a8ad77e","mesh":18},{"name":"73e2029b-66b8-8a17-f23a-d61b88bd55d6","mesh":19},{"rotation":[0,0,-0.06540312923014306,0.9978589232386035],"name":"bone","children":[25,26]},{"name":"leaf"},{"rotation":[0,0,0.21643961393810288,0.9762960071199334],"translation":[-0.12500000000000006,0.196875,0],"name":"leaf2"},{"rotation":[8.538493774107444e-18,0.25881904510252074,2.208204633897422e-18,0.9659258262890683],"translation":[-0.6249999999999999,0.01875,-0.3666666666666656],"name":"Cuces12"},{"rotation":[6.756062232105916e-18,0.6494480483301838,5.6690093271707604e-18,0.7604059656000308],"translation":[-0.4625,0.01875,0.23333333333333428],"name":"Cuces11"},{"rotation":[2.38689837594468e-17,0.8746197071393957,2.38689837594468e-17,0.48480962024633706],"translation":[-0.5374999999999998,0.01875,0.6520833333333342],"name":"Cuces10"},{"rotation":[8.364493191492917e-17,0.8660254037844386,8.364493191492917e-17,-0.5000000000000001],"translation":[-0.10624999999999987,0.01875,0.8395833333333338],"name":"Cuces9"},{"rotation":[7.34372384845637e-17,0.9743700647852352,7.34372384845637e-17,-0.22495105434386492],"translation":[-0.03124999999999986,0.01875,0.2833333333333339],"name":"Cuces8"},{"rotation":[3.2439284827425586e-17,0.9205048534524403,3.2439284827425586e-17,0.390731128489274],"translation":[0.3875000000000002,0.01875,0.6395833333333338],"name":"Cuces7"},{"rotation":[0,0.6494480483301838,0,0.7604059656000308],"translation":[0.4062500000000001,0.01875,0.15208333333333432],"name":"Cuces6"},{"rotation":[0,-0.6755902076156599,0,0.7372773368101244],"translation":[0.4125000000000001,0.01875,-0.4604166666666657],"name":"Cuces5"},{"rotation":[0,-0.40274668985873724,0,0.9153114791194471],"translation":[0.2875000000000001,0.01875,-0.8604166666666658],"name":"Cuces4"},{"rotation":[0,0.27982901403099203,0,0.9600498543859287],"translation":[-0.275,0.018750000000000003,-0.8604166666666657],"name":"Cuces3"},{"rotation":[0,0.5482932295199138,0,0.8362861558477596],"translation":[0.06250000000000006,0.03125,-0.4416666666666665],"name":"Cuces2"},{"rotation":[0,0.10886687485196457,0,0.9940563382223196],"translation":[-0.125,0.03125,-0.1791666666666666],"name":"Cuces"},{"translation":[0,-0.4375,0],"name":"Base"},{"name":"Stems"},{"translation":[0.5249999999999999,0.0875,0.4],"name":"Leaves"}],"bufferViews":[{"buffer":0,"byteOffset":0,"byteLength":432,"target":34962,"byteStride":12},{"buffer":0,"byteOffset":432,"byteLength":432,"target":34962,"byteStride":12},{"buffer":0,"byteOffset":864,"byteLength":288,"target":34962,"byteStride":8},{"buffer":0,"byteOffset":1152,"byteLength":432,"target":34962,"byteStride":12},{"buffer":0,"byteOffset":1584,"byteLength":432,"target":34962,"byteStride":12},{"buffer":0,"byteOffset":2016,"byteLength":288,"target":34962,"byteStride":8},{"buffer":0,"byteOffset":2304,"byteLength":432,"target":34962,"byteStride":12},{"buffer":0,"byteOffset":2736,"byteLength":432,"target":34962,"byteStride":12},{"buffer":0,"byteOffset":3168,"byteLength":288,"target":34962,"byteStride":8},{"buffer":0,"byteOffset":3456,"byteLength":432,"target":34962,"byteStride":12},{"buffer":0,"byteOffset":3888,"byteLength":432,"target":34962,"byteStride":12},{"buffer":0,"byteOffset":4320,"byteLength":288,"target":34962,"byteStride":8},{"buffer":0,"byteOffset":4608,"byteLength":432,"target":34962,"byteStride":12},{"buffer":0,"byteOffset":5040,"byteLength":432,"target":34962,"byteStride":12},{"buffer":0,"byteOffset":5472,"byteLength":288,"target":34962,"byteStride":8},{"buffer":0,"byteOffset":5760,"byteLength":432,"target":34962,"byteStride":12},{"buffer":0,"byteOffset":6192,"byteLength":432,"target":34962,"byteStride":12},{"buffer":0,"byteOffset":6624,"byteLength":288,"target":34962,"byteStride":8},{"buffer":0,"byteOffset":6912,"byteLength":432,"target":34962,"byteStride":12},{"buffer":0,"byteOffset":7344,"byteLength":432,"target":34962,"byteStride":12},{"buffer":0,"byteOffset":7776,"byteLength":288,"target":34962,"byteStride":8},{"buffer":0,"byteOffset":8064,"byteLength":432,"target":34962,"byteStride":12},{"buffer":0,"byteOffset":8496,"byteLength":432,"target":34962,"byteStride":12},{"buffer":0,"byteOffset":8928,"byteLength":288,"target":34962,"byteStride":8},{"buffer":0,"byteOffset":9216,"byteLength":432,"target":34962,"byteStride":12},{"buffer":0,"byteOffset":9648,"byteLength":432,"target":34962,"byteStride":12},{"buffer":0,"byteOffset":10080,"byteLength":288,"target":34962,"byteStride":8},{"buffer":0,"byteOffset":10368,"byteLength":432,"target":34962,"byteStride":12},{"buffer":0,"byteOffset":10800,"byteLength":432,"target":34962,"byteStride":12},{"buffer":0,"byteOffset":11232,"byteLength":288,"target":34962,"byteStride":8},{"buffer":0,"byteOffset":11520,"byteLength":432,"target":34962,"byteStride":12},{"buffer":0,"byteOffset":11952,"byteLength":432,"target":34962,"byteStride":12},{"buffer":0,"byteOffset":12384,"byteLength":288,"target":34962,"byteStride":8},{"buffer":0,"byteOffset":12672,"byteLength":432,"target":34962,"byteStride":12},{"buffer":0,"byteOffset":13104,"byteLength":432,"target":34962,"byteStride":12},{"buffer":0,"byteOffset":13536,"byteLength":288,"target":34962,"byteStride":8},{"buffer":0,"byteOffset":13824,"byteLength":432,"target":34962,"byteStride":12},{"buffer":0,"byteOffset":14256,"byteLength":432,"target":34962,"byteStride":12},{"buffer":0,"byteOffset":14688,"byteLength":288,"target":34962,"byteStride":8},{"buffer":0,"byteOffset":14976,"byteLength":432,"target":34962,"byteStride":12},{"buffer":0,"byteOffset":15408,"byteLength":432,"target":34962,"byteStride":12},{"buffer":0,"byteOffset":15840,"byteLength":288,"target":34962,"byteStride":8},{"buffer":0,"byteOffset":16128,"byteLength":432,"target":34962,"byteStride":12},{"buffer":0,"byteOffset":16560,"byteLength":432,"target":34962,"byteStride":12},{"buffer":0,"byteOffset":16992,"byteLength":288,"target":34962,"byteStride":8},{"buffer":0,"byteOffset":17280,"byteLength":432,"target":34962,"byteStride":12},{"buffer":0,"byteOffset":17712,"byteLength":432,"target":34962,"byteStride":12},{"buffer":0,"byteOffset":18144,"byteLength":288,"target":34962,"byteStride":8},{"buffer":0,"byteOffset":18432,"byteLength":432,"target":34962,"byteStride":12},{"buffer":0,"byteOffset":18864,"byteLength":432,"target":34962,"byteStride":12},{"buffer":0,"byteOffset":19296,"byteLength":288,"target":34962,"byteStride":8},{"buffer":0,"byteOffset":19584,"byteLength":432,"target":34962,"byteStride":12},{"buffer":0,"byteOffset":20016,"byteLength":432,"target":34962,"byteStride":12},{"buffer":0,"byteOffset":20448,"byteLength":288,"target":34962,"byteStride":8},{"buffer":0,"byteOffset":20736,"byteLength":432,"target":34962,"byteStride":12},{"buffer":0,"byteOffset":21168,"byteLength":432,"target":34962,"byteStride":12},{"buffer":0,"byteOffset":21600,"byteLength":288,"target":34962,"byteStride":8},{"buffer":0,"byteOffset":21888,"byteLength":432,"target":34962,"byteStride":12},{"buffer":0,"byteOffset":22320,"byteLength":432,"target":34962,"byteStride":12},{"buffer":0,"byteOffset":22752,"byteLength":288,"target":34962,"byteStride":8}],"buffers":[{"byteLength":23040,"uri":"data:application/octet-stream;base64,"}],"accessors":[{"bufferView":0,"componentType":5126,"count":36,"max":[0.04374999925494194,0.01875000074505806,0.05000000074505806],"min":[-0.05624999850988388,0,-0.05000000074505806],"type":"VEC3"},{"bufferView":1,"componentType":5126,"count":36,"max":[1,1,1],"min":[-1,-1,-1],"type":"VEC3"},{"bufferView":2,"componentType":5126,"count":36,"max":[1,1],"min":[0,0],"type":"VEC2"},{"bufferView":3,"componentType":5126,"count":36,"max":[0.04374999925494194,0.03750000149011612,0.05000000074505806],"min":[-0.05624999850988388,0.01875000074505806,-0.05000000074505806],"type":"VEC3"},{"bufferView":4,"componentType":5126,"count":36,"max":[1,1,1],"min":[-1,-1,-1],"type":"VEC3"},{"bufferView":5,"componentType":5126,"count":36,"max":[1,1],"min":[0,0],"type":"VEC2"},{"bufferView":6,"componentType":5126,"count":36,"max":[0.02500000037252903,0.2874999940395355,0.03125],"min":[-0.03750000149011612,0.20000000298023224,-0.03125],"type":"VEC3"},{"bufferView":7,"componentType":5126,"count":36,"max":[1,1,1],"min":[-1,-1,-1],"type":"VEC3"},{"bufferView":8,"componentType":5126,"count":36,"max":[1,1],"min":[0,0],"type":"VEC2"},{"bufferView":9,"componentType":5126,"count":36,"max":[0.03750000149011612,0.26875001192092896,0.04374999925494194],"min":[-0.05000000074505806,0.20000000298023224,-0.04374999925494194],"type":"VEC3"},{"bufferView":10,"componentType":5126,"count":36,"max":[1,1,1],"min":[-1,-1,-1],"type":"VEC3"},{"bufferView":11,"componentType":5126,"count":36,"max":[1,1],"min":[0,0],"type":"VEC2"},{"bufferView":12,"componentType":5126,"count":36,"max":[0.03125,0.2750000059604645,0.03125],"min":[0.01875000074505806,0,-0.03125],"type":"VEC3"},{"bufferView":13,"componentType":5126,"count":36,"max":[1,1,1],"min":[-1,-1,-1],"type":"VEC3"},{"bufferView":14,"componentType":5126,"count":36,"max":[0.0625,1],"min":[0,0.7250000238418579],"type":"VEC2"},{"bufferView":15,"componentType":5126,"count":36,"max":[0.03125,0.2562499940395355,0.07500000298023224],"min":[0.01875000074505806,0.10000000149011612,-0.07500000298023224],"type":"VEC3"},{"bufferView":16,"componentType":5126,"count":36,"max":[1,1,1],"min":[-1,-1,-1],"type":"VEC3"},{"bufferView":17,"componentType":5126,"count":36,"max":[0.15000000596046448,1],"min":[0,0.84375],"type":"VEC2"},{"bufferView":18,"componentType":5126,"count":36,"max":[0.03125,0.2750000059604645,0.03125],"min":[0.01875000074505806,0,-0.03125],"type":"VEC3"},{"bufferView":19,"componentType":5126,"count":36,"max":[1,1,1],"min":[-1,-1,-1],"type":"VEC3"},{"bufferView":20,"componentType":5126,"count":36,"max":[0.0625,1],"min":[0,0.7250000238418579],"type":"VEC2"},{"bufferView":21,"componentType":5126,"count":36,"max":[0.03125,0.2562499940395355,0.07500000298023224],"min":[0.01875000074505806,0.10000000149011612,-0.07500000298023224],"type":"VEC3"},{"bufferView":22,"componentType":5126,"count":36,"max":[1,1,1],"min":[-1,-1,-1],"type":"VEC3"},{"bufferView":23,"componentType":5126,"count":36,"max":[0.15000000596046448,1],"min":[0,0.84375],"type":"VEC2"},{"bufferView":24,"componentType":5126,"count":36,"max":[0.03125,0.2750000059604645,0.03125],"min":[0.01875000074505806,0,-0.03125],"type":"VEC3"},{"bufferView":25,"componentType":5126,"count":36,"max":[1,1,1],"min":[-1,-1,-1],"type":"VEC3"},{"bufferView":26,"componentType":5126,"count":36,"max":[0.0625,1],"min":[0,0.7250000238418579],"type":"VEC2"},{"bufferView":27,"componentType":5126,"count":36,"max":[0.03125,0.2562499940395355,0.07500000298023224],"min":[0.01875000074505806,0.10000000149011612,-0.07500000298023224],"type":"VEC3"},{"bufferView":28,"componentType":5126,"count":36,"max":[1,1,1],"min":[-1,-1,-1],"type":"VEC3"},{"bufferView":29,"componentType":5126,"count":36,"max":[0.15000000596046448,1],"min":[0,0.84375],"type":"VEC2"},{"bufferView":30,"componentType":5126,"count":36,"max":[0.03125,0.2750000059604645,0.03125],"min":[0.01875000074505806,0,-0.03125],"type":"VEC3"},{"bufferView":31,"componentType":5126,"count":36,"max":[1,1,1],"min":[-1,-1,-1],"type":"VEC3"},{"bufferView":32,"componentType":5126,"count":36,"max":[0.0625,1],"min":[0,0.7250000238418579],"type":"VEC2"},{"bufferView":33,"componentType":5126,"count":36,"max":[0.03125,0.2562499940395355,0.07500000298023224],"min":[0.01875000074505806,0.10000000149011612,-0.07500000298023224],"type":"VEC3"},{"bufferView":34,"componentType":5126,"count":36,"max":[1,1,1],"min":[-1,-1,-1],"type":"VEC3"},{"bufferView":35,"componentType":5126,"count":36,"max":[0.15000000596046448,1],"min":[0,0.84375],"type":"VEC2"},{"bufferView":36,"componentType":5126,"count":36,"max":[0.03125,0.2750000059604645,0.03125],"min":[0.01875000074505806,0,-0.03125],"type":"VEC3"},{"bufferView":37,"componentType":5126,"count":36,"max":[1,1,1],"min":[-1,-1,-1],"type":"VEC3"},{"bufferView":38,"componentType":5126,"count":36,"max":[0.0625,1],"min":[0,0.7250000238418579],"type":"VEC2"},{"bufferView":39,"componentType":5126,"count":36,"max":[0.03125,0.2562499940395355,0.07500000298023224],"min":[0.01875000074505806,0.10000000149011612,-0.07500000298023224],"type":"VEC3"},{"bufferView":40,"componentType":5126,"count":36,"max":[1,1,1],"min":[-1,-1,-1],"type":"VEC3"},{"bufferView":41,"componentType":5126,"count":36,"max":[0.15000000596046448,1],"min":[0,0.84375],"type":"VEC2"},{"bufferView":42,"componentType":5126,"count":36,"max":[0.03125,0.2750000059604645,0.03125],"min":[0.01875000074505806,0,-0.03125],"type":"VEC3"},{"bufferView":43,"componentType":5126,"count":36,"max":[1,1,1],"min":[-1,-1,-1],"type":"VEC3"},{"bufferView":44,"componentType":5126,"count":36,"max":[0.0625,1],"min":[0,0.7250000238418579],"type":"VEC2"},{"bufferView":45,"componentType":5126,"count":36,"max":[0.03125,0.2562499940395355,0.07500000298023224],"min":[0.01875000074505806,0.10000000149011612,-0.07500000298023224],"type":"VEC3"},{"bufferView":46,"componentType":5126,"count":36,"max":[1,1,1],"min":[-1,-1,-1],"type":"VEC3"},{"bufferView":47,"componentType":5126,"count":36,"max":[0.15000000596046448,1],"min":[0,0.84375],"type":"VEC2"},{"bufferView":48,"componentType":5126,"count":36,"max":[0.03125,0.2750000059604645,0.03125],"min":[0.01875000074505806,0,-0.03125],"type":"VEC3"},{"bufferView":49,"componentType":5126,"count":36,"max":[1,1,1],"min":[-1,-1,-1],"type":"VEC3"},{"bufferView":50,"componentType":5126,"count":36,"max":[0.0625,1],"min":[0,0.7250000238418579],"type":"VEC2"},{"bufferView":51,"componentType":5126,"count":36,"max":[0.03125,0.2562499940395355,0.07500000298023224],"min":[0.01875000074505806,0.10000000149011612,-0.07500000298023224],"type":"VEC3"},{"bufferView":52,"componentType":5126,"count":36,"max":[1,1,1],"min":[-1,-1,-1],"type":"VEC3"},{"bufferView":53,"componentType":5126,"count":36,"max":[0.15000000596046448,1],"min":[0,0.84375],"type":"VEC2"},{"bufferView":54,"componentType":5126,"count":36,"max":[0.03125,0.2750000059604645,0.03125],"min":[0.01875000074505806,0,-0.03125],"type":"VEC3"},{"bufferView":55,"componentType":5126,"count":36,"max":[1,1,1],"min":[-1,-1,-1],"type":"VEC3"},{"bufferView":56,"componentType":5126,"count":36,"max":[0.0625,1],"min":[0,0.7250000238418579],"type":"VEC2"},{"bufferView":57,"componentType":5126,"count":36,"max":[0.03125,0.2562499940395355,0.07500000298023224],"min":[0.01875000074505806,0.10000000149011612,-0.07500000298023224],"type":"VEC3"},{"bufferView":58,"componentType":5126,"count":36,"max":[1,1,1],"min":[-1,-1,-1],"type":"VEC3"},{"bufferView":59,"componentType":5126,"count":36,"max":[0.15000000596046448,1],"min":[0,0.84375],"type":"VEC2"}],"materials":[{"pbrMetallicRoughness":{"metallicFactor":0,"roughnessFactor":1,"baseColorTexture":{"index":0}},"alphaMode":"MASK","alphaCutoff":0.05,"doubleSided":true},{"pbrMetallicRoughness":{"metallicFactor":0,"roughnessFactor":1,"baseColorTexture":{"index":1}},"alphaMode":"MASK","alphaCutoff":0.05,"doubleSided":true},{"pbrMetallicRoughness":{"metallicFactor":0,"roughnessFactor":1,"baseColorTexture":{"index":2}},"alphaMode":"MASK","alphaCutoff":0.05,"doubleSided":true}],"textures":[{"sampler":0,"source":0,"name":"dirt"},{"sampler":1,"source":1,"name":"dark stem"},{"sampler":2,"source":2,"name":"stem"}],"samplers":[{"magFilter":9728,"minFilter":9728,"wrapS":33071,"wrapT":33071},{"magFilter":9728,"minFilter":9728,"wrapS":33071,"wrapT":33071},{"magFilter":9728,"minFilter":9728,"wrapS":33071,"wrapT":33071}],"images":[{"mimeType":"image/png","uri":"data:image/png;base64,"},{"mimeType":"image/png","uri":"data:image/png;base64,"},{"mimeType":"image/png","uri":"data:image/png;base64,"}],"meshes":[{"primitives":[{"mode":4,"attributes":{"POSITION":0,"NORMAL":1,"TEXCOORD_0":2},"material":0}]},{"primitives":[{"mode":4,"attributes":{"POSITION":3,"NORMAL":4,"TEXCOORD_0":5},"material":1}]},{"primitives":[{"mode":4,"attributes":{"POSITION":6,"NORMAL":7,"TEXCOORD_0":8},"material":2}]},{"primitives":[{"mode":4,"attributes":{"POSITION":9,"NORMAL":10,"TEXCOORD_0":11},"material":2}]},{"primitives":[{"mode":4,"attributes":{"POSITION":12,"NORMAL":13,"TEXCOORD_0":14},"material":2}]},{"primitives":[{"mode":4,"attributes":{"POSITION":15,"NORMAL":16,"TEXCOORD_0":17},"material":2}]},{"primitives":[{"mode":4,"attributes":{"POSITION":18,"NORMAL":19,"TEXCOORD_0":20},"material":2}]},{"primitives":[{"mode":4,"attributes":{"POSITION":21,"NORMAL":22,"TEXCOORD_0":23},"material":2}]},{"primitives":[{"mode":4,"attributes":{"POSITION":24,"NORMAL":25,"TEXCOORD_0":26},"material":2}]},{"primitives":[{"mode":4,"attributes":{"POSITION":27,"NORMAL":28,"TEXCOORD_0":29},"material":2}]},{"primitives":[{"mode":4,"attributes":{"POSITION":30,"NORMAL":31,"TEXCOORD_0":32},"material":2}]},{"primitives":[{"mode":4,"attributes":{"POSITION":33,"NORMAL":34,"TEXCOORD_0":35},"material":2}]},{"primitives":[{"mode":4,"attributes":{"POSITION":36,"NORMAL":37,"TEXCOORD_0":38},"material":2}]},{"primitives":[{"mode":4,"attributes":{"POSITION":39,"NORMAL":40,"TEXCOORD_0":41},"material":2}]},{"primitives":[{"mode":4,"attributes":{"POSITION":42,"NORMAL":43,"TEXCOORD_0":44},"material":2}]},{"primitives":[{"mode":4,"attributes":{"POSITION":45,"NORMAL":46,"TEXCOORD_0":47},"material":2}]},{"primitives":[{"mode":4,"attributes":{"POSITION":48,"NORMAL":49,"TEXCOORD_0":50},"material":2}]},{"primitives":[{"mode":4,"attributes":{"POSITION":51,"NORMAL":52,"TEXCOORD_0":53},"material":2}]},{"primitives":[{"mode":4,"attributes":{"POSITION":54,"NORMAL":55,"TEXCOORD_0":56},"material":2}]},{"primitives":[{"mode":4,"attributes":{"POSITION":57,"NORMAL":58,"TEXCOORD_0":59},"material":2}]}]}