{"asset":{"version":"2.0","generator":"Blockbench 3.9.3 glTF exporter"},"scenes":[{"nodes":[0,1,2,3,4,5,6,7,8,9,10,11,12,13,14,15,16,17,18,19,20,21,22,23,24,25,26,27,28,29,30],"name":"blockbench_export"}],"scene":0,"nodes":[{"rotation":[0.07698050614354557,0.702903967124318,0.07698050476527746,0.7029039881526227],"translation":[-6.938893903907228e-18,0.2578125,0.08750000000000005],"name":"3d41e8e3-a269-95d3-a20c-298ea32a573d","mesh":0},{"rotation":[0.07698050614354557,0.702903967124318,0.07698050476527746,0.7029039881526227],"translation":[-6.938893903907228e-18,0.2578125,0.08750000000000005],"name":"64548ba1-5763-6766-bcf6-d7028d019cfd","mesh":1},{"name":"9957bfee-9a69-e6ca-7165-b37492287b0e","mesh":2},{"rotation":[0.07391278599886852,0.7032331671630672,0.07391278440826543,0.7032331853437408],"translation":[0,0.2578125,0.08750000000000005],"name":"bdea8213-2a73-d02a-12c1-4626254549c3","mesh":3},{"rotation":[0.07391278599886852,0.7032331671630672,0.07391278440826543,0.7032331853437408],"translation":[0,0.2578125,0.08750000000000005],"name":"565ab2b6-61eb-30d0-ed5e-785b3bc0a115","mesh":4},{"rotation":[0,0,-0.08715574274765817,0.9961946980917455],"translation":[0.0875,0.2578125,1.3877787807814457e-17],"name":"25350d42-66f2-6186-537a-ab7f83b23297","mesh":5},{"rotation":[0,0,-0.08715574274765817,0.9961946980917455],"translation":[0.0875,0.2578125,1.3877787807814457e-17],"name":"8353df06-7f97-7b7e-9a93-50a79a9a40dd","mesh":6},{"rotation":[0,0,0.08715574274765817,0.9961946980917455],"translation":[-0.0875,0.2578125,1.3877787807814457e-17],"name":"189f8e24-43dd-e103-ac9b-8e3104090a98","mesh":7},{"rotation":[0,0,0.08715574274765817,0.9961946980917455],"translation":[-0.0875,0.2578125,1.3877787807814457e-17],"name":"1b849455-a034-aee8-bb8d-ebd06e8a1e13","mesh":8},{"rotation":[-0.06162841704121025,0.7044160189592692,-0.06162841639123101,0.704416033846248],"translation":[1.3877787807814457e-17,0.2578125,-0.0875],"name":"d6ac031d-40b4-2569-13de-b16756bceae7","mesh":9},{"rotation":[-0.06162841704121025,0.7044160189592692,-0.06162841639123101,0.704416033846248],"translation":[1.3877787807814457e-17,0.2578125,-0.0875],"name":"da3e6d24-9786-edd3-1f3e-1b66dd4d2912","mesh":10},{"rotation":[0.049950211252314886,0.37940952255126065,0.12059047744873963,0.9159756150367534],"translation":[-0.04419417382415916,0.2578125,0.04508252147247771],"name":"97bb0cde-9963-9c42-c2de-fbcb19f6171a","mesh":11},{"rotation":[0.049950211252314886,0.37940952255126065,0.12059047744873963,0.9159756150367534],"translation":[-0.04419417382415916,0.2578125,0.04508252147247771],"name":"971144e5-1359-00f1-cfa7-6c864fb0cfbc","mesh":12},{"rotation":[-0.0416615493392106,-0.3804088914751904,0.10057987744419773,0.918388305046718],"translation":[-0.04508252147247768,0.2578125,-0.044194173824159244],"name":"42eaa438-0ff4-e6e0-6ba4-513d063ffa67","mesh":13},{"rotation":[-0.0416615493392106,-0.3804088914751904,0.10057987744419773,0.918388305046718],"translation":[-0.04508252147247768,0.2578125,-0.044194173824159244],"name":"c227a223-e6ed-b4d3-d92d-617996608ae3","mesh":14},{"rotation":[-0.0416615493392106,0.3804088914751904,-0.10057987744419773,0.918388305046718],"translation":[0.04419417382415927,0.2578125,-0.04330582617584075],"name":"296c8bd9-f866-aff4-569f-f72af167a881","mesh":15},{"rotation":[-0.0416615493392106,0.3804088914751904,-0.10057987744419773,0.918388305046718],"translation":[0.04419417382415927,0.2578125,-0.04330582617584075],"name":"6f83df76-65af-22e3-ef4a-646d61bc494e","mesh":16},{"rotation":[0.049950211252314886,-0.37940952255126065,-0.12059047744873963,0.9159756150367534],"translation":[0.043305826175840764,0.2578125,0.04419417382415923],"name":"97de941c-9916-41d6-0b2d-cb03f378782a","mesh":17},{"rotation":[0.049950211252314886,-0.37940952255126065,-0.12059047744873963,0.9159756150367534],"translation":[0.043305826175840764,0.2578125,0.04419417382415923],"name":"bd943805-91a4-1f89-6729-13ab9dd79cd3","mesh":18},{"name":"a8a0d16a-f91f-afb5-f83a-37bc561a963e","mesh":19},{"name":"800cf0b4-2051-3f5b-676b-918c06f6a7c0","mesh":20},{"name":"4dfb8d0a-a6ca-b0a5-5574-1bdaf1771f5c","mesh":21},{"rotation":[-0.01723753835343243,0.15641063931349802,0.0027301578646810086,0.9875379108768891],"translation":[-0.13750000000000004,0,0.7812500000000001],"name":"carot7"},{"rotation":[-0.014029236648890487,-0.3172563293690215,0.010381089032541858,0.9481792209202028],"translation":[-0.13750000000000004,0,-0.15624999999999994],"name":"carot9"},{"rotation":[-0.016004905145574625,-0.09583115474787525,0.006959130817371628,0.9952445947048577],"translation":[-0.13750000000000004,0,5.551115123125783e-17],"name":"carot8"},{"rotation":[-5.3402072612070405e-18,-0.04361938736533601,-1.2231085509071792e-16,0.9990482215818578],"translation":[-0.006250000000000026,0,0.15625000000000008],"name":"carot6"},{"rotation":[-5.3668630455068913e-17,-0.4383711467890774,-1.1003699919432754e-16,0.898794046299167],"translation":[0.13125,0,0.15625000000000008],"name":"carot5"},{"rotation":[8.656593147227565e-17,0.7253743710122886,8.656593147227565e-17,-0.688354575693753],"translation":[0.13125,0,0.037500000000000054],"name":"carot4"},{"rotation":[0,-0.5446390350150271,0,0.838670567945424],"translation":[0.13125,0,-0.09374999999999997],"name":"carot3"},{"rotation":[0,-0.33380685923377096,0,0.9426414910921784],"translation":[0,0,-0.13125],"name":"carot2"},{"name":"carot"}],"bufferViews":[{"buffer":0,"byteOffset":0,"byteLength":432,"target":34962,"byteStride":12},{"buffer":0,"byteOffset":432,"byteLength":432,"target":34962,"byteStride":12},{"buffer":0,"byteOffset":864,"byteLength":288,"target":34962,"byteStride":8},{"buffer":0,"byteOffset":1152,"byteLength":432,"target":34962,"byteStride":12},{"buffer":0,"byteOffset":1584,"byteLength":432,"target":34962,"byteStride":12},{"buffer":0,"byteOffset":2016,"byteLength":288,"target":34962,"byteStride":8},{"buffer":0,"byteOffset":2304,"byteLength":432,"target":34962,"byteStride":12},{"buffer":0,"byteOffset":2736,"byteLength":432,"target":34962,"byteStride":12},{"buffer":0,"byteOffset":3168,"byteLength":288,"target":34962,"byteStride":8},{"buffer":0,"byteOffset":3456,"byteLength":432,"target":34962,"byteStride":12},{"buffer":0,"byteOffset":3888,"byteLength":432,"target":34962,"byteStride":12},{"buffer":0,"byteOffset":4320,"byteLength":288,"target":34962,"byteStride":8},{"buffer":0,"byteOffset":4608,"byteLength":432,"target":34962,"byteStride":12},{"buffer":0,"byteOffset":5040,"byteLength":432,"target":34962,"byteStride":12},{"buffer":0,"byteOffset":5472,"byteLength":288,"target":34962,"byteStride":8},{"buffer":0,"byteOffset":5760,"byteLength":432,"target":34962,"byteStride":12},{"buffer":0,"byteOffset":6192,"byteLength":432,"target":34962,"byteStride":12},{"buffer":0,"byteOffset":6624,"byteLength":288,"target":34962,"byteStride":8},{"buffer":0,"byteOffset":6912,"byteLength":432,"target":34962,"byteStride":12},{"buffer":0,"byteOffset":7344,"byteLength":432,"target":34962,"byteStride":12},{"buffer":0,"byteOffset":7776,"byteLength":288,"target":34962,"byteStride":8},{"buffer":0,"byteOffset":8064,"byteLength":432,"target":34962,"byteStride":12},{"buffer":0,"byteOffset":8496,"byteLength":432,"target":34962,"byteStride":12},{"buffer":0,"byteOffset":8928,"byteLength":288,"target":34962,"byteStride":8},{"buffer":0,"byteOffset":9216,"byteLength":432,"target":34962,"byteStride":12},{"buffer":0,"byteOffset":9648,"byteLength":432,"target":34962,"byteStride":12},{"buffer":0,"byteOffset":10080,"byteLength":288,"target":34962,"byteStride":8},{"buffer":0,"byteOffset":10368,"byteLength":432,"target":34962,"byteStride":12},{"buffer":0,"byteOffset":10800,"byteLength":432,"target":34962,"byteStride":12},{"buffer":0,"byteOffset":11232,"byteLength":288,"target":34962,"byteStride":8},{"buffer":0,"byteOffset":11520,"byteLength":432,"target":34962,"byteStride":12},{"buffer":0,"byteOffset":11952,"byteLength":432,"target":34962,"byteStride":12},{"buffer":0,"byteOffset":12384,"byteLength":288,"target":34962,"byteStride":8},{"buffer":0,"byteOffset":12672,"byteLength":432,"target":34962,"byteStride":12},{"buffer":0,"byteOffset":13104,"byteLength":432,"target":34962,"byteStride":12},{"buffer":0,"byteOffset":13536,"byteLength":288,"target":34962,"byteStride":8},{"buffer":0,"byteOffset":13824,"byteLength":432,"target":34962,"byteStride":12},{"buffer":0,"byteOffset":14256,"byteLength":432,"target":34962,"byteStride":12},{"buffer":0,"byteOffset":14688,"byteLength":288,"target":34962,"byteStride":8},{"buffer":0,"byteOffset":14976,"byteLength":432,"target":34962,"byteStride":12},{"buffer":0,"byteOffset":15408,"byteLength":432,"target":34962,"byteStride":12},{"buffer":0,"byteOffset":15840,"byteLength":288,"target":34962,"byteStride":8},{"buffer":0,"byteOffset":16128,"byteLength":432,"target":34962,"byteStride":12},{"buffer":0,"byteOffset":16560,"byteLength":432,"target":34962,"byteStride":12},{"buffer":0,"byteOffset":16992,"byteLength":288,"target":34962,"byteStride":8},{"buffer":0,"byteOffset":17280,"byteLength":432,"target":34962,"byteStride":12},{"buffer":0,"byteOffset":17712,"byteLength":432,"target":34962,"byteStride":12},{"buffer":0,"byteOffset":18144,"byteLength":288,"target":34962,"byteStride":8},{"buffer":0,"byteOffset":18432,"byteLength":432,"target":34962,"byteStride":12},{"buffer":0,"byteOffset":18864,"byteLength":432,"target":34962,"byteStride":12},{"buffer":0,"byteOffset":19296,"byteLength":288,"target":34962,"byteStride":8},{"buffer":0,"byteOffset":19584,"byteLength":432,"target":34962,"byteStride":12},{"buffer":0,"byteOffset":20016,"byteLength":432,"target":34962,"byteStride":12},{"buffer":0,"byteOffset":20448,"byteLength":288,"target":34962,"byteStride":8},{"buffer":0,"byteOffset":20736,"byteLength":432,"target":34962,"byteStride":12},{"buffer":0,"byteOffset":21168,"byteLength":432,"target":34962,"byteStride":12},{"buffer":0,"byteOffset":21600,"byteLength":288,"target":34962,"byteStride":8},{"buffer":0,"byteOffset":21888,"byteLength":432,"target":34962,"byteStride":12},{"buffer":0,"byteOffset":22320,"byteLength":432,"target":34962,"byteStride":12},{"buffer":0,"byteOffset":22752,"byteLength":288,"target":34962,"byteStride":8},{"buffer":0,"byteOffset":23040,"byteLength":432,"target":34962,"byteStride":12},{"buffer":0,"byteOffset":23472,"byteLength":432,"target":34962,"byteStride":12},{"buffer":0,"byteOffset":23904,"byteLength":288,"target":34962,"byteStride":8},{"buffer":0,"byteOffset":24192,"byteLength":432,"target":34962,"byteStride":12},{"buffer":0,"byteOffset":24624,"byteLength":432,"target":34962,"byteStride":12},{"buffer":0,"byteOffset":25056,"byteLength":288,"target":34962,"byteStride":8}],"buffers":[{"byteLength":25344,"uri":"data:application/octet-stream;base64,"}],"accessors":[{"bufferView":0,"componentType":5126,"count":36,"max":[0.0062500000931322575,0.15468749403953552,0.08749999850988388],"min":[-0.0062500000931322575,-0.10781250149011612,-0.08749999850988388],"type":"VEC3"},{"bufferView":1,"componentType":5126,"count":36,"max":[1,1,1],"min":[-1,-1,-1],"type":"VEC3"},{"bufferView":2,"componentType":5126,"count":36,"max":[0.17499999701976776,1],"min":[0,0.737500011920929],"type":"VEC2"},{"bufferView":3,"componentType":5126,"count":36,"max":[0.0062500000931322575,0.18593749403953552,0.05000000074505806],"min":[-0.0062500000931322575,-0.23281249403953552,-0.05000000074505806],"type":"VEC3"},{"bufferView":4,"componentType":5126,"count":36,"max":[1,1,1],"min":[-1,-1,-1],"type":"VEC3"},{"bufferView":5,"componentType":5126,"count":36,"max":[0.10000000149011612,1],"min":[0,0.581250011920929],"type":"VEC2"},{"bufferView":6,"componentType":5126,"count":36,"max":[0.03750000149011612,0.44999998807907104,0.03750000149011612],"min":[-0.03750000149011612,0.20624999701976776,-0.03750000149011612],"type":"VEC3"},{"bufferView":7,"componentType":5126,"count":36,"max":[1,1,1],"min":[-1,-1,-1],"type":"VEC3"},{"bufferView":8,"componentType":5126,"count":36,"max":[0.07500000298023224,1],"min":[0,0.7562500238418579],"type":"VEC2"},{"bufferView":9,"componentType":5126,"count":36,"max":[0.0062500000931322575,0.18593749403953552,0.05000000074505806],"min":[-0.0062500000931322575,-0.23281249403953552,-0.05000000074505806],"type":"VEC3"},{"bufferView":10,"componentType":5126,"count":36,"max":[1,1,1],"min":[-1,-1,-1],"type":"VEC3"},{"bufferView":11,"componentType":5126,"count":36,"max":[0.10000000149011612,1],"min":[0,0.581250011920929],"type":"VEC2"},{"bufferView":12,"componentType":5126,"count":36,"max":[0.0062500000931322575,0.15468749403953552,0.08749999850988388],"min":[-0.0062500000931322575,-0.10781250149011612,-0.08749999850988388],"type":"VEC3"},{"bufferView":13,"componentType":5126,"count":36,"max":[1,1,1],"min":[-1,-1,-1],"type":"VEC3"},{"bufferView":14,"componentType":5126,"count":36,"max":[0.17499999701976776,1],"min":[0,0.737500011920929],"type":"VEC2"},{"bufferView":15,"componentType":5126,"count":36,"max":[0.0062500000931322575,0.15468749403953552,0.08749999850988388],"min":[-0.0062500000931322575,-0.10781250149011612,-0.08749999850988388],"type":"VEC3"},{"bufferView":16,"componentType":5126,"count":36,"max":[1,1,1],"min":[-1,-1,-1],"type":"VEC3"},{"bufferView":17,"componentType":5126,"count":36,"max":[0.17499999701976776,1],"min":[0,0.737500011920929],"type":"VEC2"},{"bufferView":18,"componentType":5126,"count":36,"max":[0.0062500000931322575,0.18593749403953552,0.05000000074505806],"min":[-0.0062500000931322575,-0.23281249403953552,-0.05000000074505806],"type":"VEC3"},{"bufferView":19,"componentType":5126,"count":36,"max":[1,1,1],"min":[-1,-1,-1],"type":"VEC3"},{"bufferView":20,"componentType":5126,"count":36,"max":[0.10000000149011612,1],"min":[0,0.581250011920929],"type":"VEC2"},{"bufferView":21,"componentType":5126,"count":36,"max":[0.0062500000931322575,0.15468749403953552,0.08749999850988388],"min":[-0.0062500000931322575,-0.10781250149011612,-0.08749999850988388],"type":"VEC3"},{"bufferView":22,"componentType":5126,"count":36,"max":[1,1,1],"min":[-1,-1,-1],"type":"VEC3"},{"bufferView":23,"componentType":5126,"count":36,"max":[0.17499999701976776,1],"min":[0,0.737500011920929],"type":"VEC2"},{"bufferView":24,"componentType":5126,"count":36,"max":[0.0062500000931322575,0.18593749403953552,0.05000000074505806],"min":[-0.0062500000931322575,-0.23281249403953552,-0.05000000074505806],"type":"VEC3"},{"bufferView":25,"componentType":5126,"count":36,"max":[1,1,1],"min":[-1,-1,-1],"type":"VEC3"},{"bufferView":26,"componentType":5126,"count":36,"max":[0.10000000149011612,1],"min":[0,0.581250011920929],"type":"VEC2"},{"bufferView":27,"componentType":5126,"count":36,"max":[0.0062500000931322575,0.15468749403953552,0.08749999850988388],"min":[-0.0062500000931322575,-0.10781250149011612,-0.08749999850988388],"type":"VEC3"},{"bufferView":28,"componentType":5126,"count":36,"max":[1,1,1],"min":[-1,-1,-1],"type":"VEC3"},{"bufferView":29,"componentType":5126,"count":36,"max":[0.17499999701976776,1],"min":[0,0.737500011920929],"type":"VEC2"},{"bufferView":30,"componentType":5126,"count":36,"max":[0.0062500000931322575,0.18593749403953552,0.05000000074505806],"min":[-0.0062500000931322575,-0.23281249403953552,-0.05000000074505806],"type":"VEC3"},{"bufferView":31,"componentType":5126,"count":36,"max":[1,1,1],"min":[-1,-1,-1],"type":"VEC3"},{"bufferView":32,"componentType":5126,"count":36,"max":[0.10000000149011612,1],"min":[0,0.581250011920929],"type":"VEC2"},{"bufferView":33,"componentType":5126,"count":36,"max":[0.0062500000931322575,0.15468749403953552,0.08749999850988388],"min":[-0.0062500000931322575,-0.10781250149011612,-0.08749999850988388],"type":"VEC3"},{"bufferView":34,"componentType":5126,"count":36,"max":[1,1,1],"min":[-1,-1,-1],"type":"VEC3"},{"bufferView":35,"componentType":5126,"count":36,"max":[0.17499999701976776,1],"min":[0,0.737500011920929],"type":"VEC2"},{"bufferView":36,"componentType":5126,"count":36,"max":[0.0062500000931322575,0.18593749403953552,0.05000000074505806],"min":[-0.0062500000931322575,-0.23281249403953552,-0.05000000074505806],"type":"VEC3"},{"bufferView":37,"componentType":5126,"count":36,"max":[1,1,1],"min":[-1,-1,-1],"type":"VEC3"},{"bufferView":38,"componentType":5126,"count":36,"max":[0.10000000149011612,1],"min":[0,0.581250011920929],"type":"VEC2"},{"bufferView":39,"componentType":5126,"count":36,"max":[0.0062500000931322575,0.15468749403953552,0.08749999850988388],"min":[-0.0062500000931322575,-0.10781250149011612,-0.08749999850988388],"type":"VEC3"},{"bufferView":40,"componentType":5126,"count":36,"max":[1,1,1],"min":[-1,-1,-1],"type":"VEC3"},{"bufferView":41,"componentType":5126,"count":36,"max":[0.17499999701976776,1],"min":[0,0.737500011920929],"type":"VEC2"},{"bufferView":42,"componentType":5126,"count":36,"max":[0.0062500000931322575,0.18593749403953552,0.05000000074505806],"min":[-0.0062500000931322575,-0.23281249403953552,-0.05000000074505806],"type":"VEC3"},{"bufferView":43,"componentType":5126,"count":36,"max":[1,1,1],"min":[-1,-1,-1],"type":"VEC3"},{"bufferView":44,"componentType":5126,"count":36,"max":[0.10000000149011612,1],"min":[0,0.581250011920929],"type":"VEC2"},{"bufferView":45,"componentType":5126,"count":36,"max":[0.0062500000931322575,0.15468749403953552,0.08749999850988388],"min":[-0.0062500000931322575,-0.10781250149011612,-0.08749999850988388],"type":"VEC3"},{"bufferView":46,"componentType":5126,"count":36,"max":[1,1,1],"min":[-1,-1,-1],"type":"VEC3"},{"bufferView":47,"componentType":5126,"count":36,"max":[0.17499999701976776,1],"min":[0,0.737500011920929],"type":"VEC2"},{"bufferView":48,"componentType":5126,"count":36,"max":[0.0062500000931322575,0.18593749403953552,0.05000000074505806],"min":[-0.0062500000931322575,-0.23281249403953552,-0.05000000074505806],"type":"VEC3"},{"bufferView":49,"componentType":5126,"count":36,"max":[1,1,1],"min":[-1,-1,-1],"type":"VEC3"},{"bufferView":50,"componentType":5126,"count":36,"max":[0.10000000149011612,1],"min":[0,0.581250011920929],"type":"VEC2"},{"bufferView":51,"componentType":5126,"count":36,"max":[0.0062500000931322575,0.18593749403953552,0.05000000074505806],"min":[-0.0062500000931322575,-0.23281249403953552,-0.05000000074505806],"type":"VEC3"},{"bufferView":52,"componentType":5126,"count":36,"max":[1,1,1],"min":[-1,-1,-1],"type":"VEC3"},{"bufferView":53,"componentType":5126,"count":36,"max":[0.10000000149011612,1],"min":[0,0.581250011920929],"type":"VEC2"},{"bufferView":54,"componentType":5126,"count":36,"max":[0.0062500000931322575,0.15468749403953552,0.08749999850988388],"min":[-0.0062500000931322575,-0.10781250149011612,-0.08749999850988388],"type":"VEC3"},{"bufferView":55,"componentType":5126,"count":36,"max":[1,1,1],"min":[-1,-1,-1],"type":"VEC3"},{"bufferView":56,"componentType":5126,"count":36,"max":[0.17499999701976776,1],"min":[0,0.737500011920929],"type":"VEC2"},{"bufferView":57,"componentType":5126,"count":36,"max":[0.0625,0.4124999940395355,0.0625],"min":[-0.0625,0.20624999701976776,-0.0625],"type":"VEC3"},{"bufferView":58,"componentType":5126,"count":36,"max":[1,1,1],"min":[-1,-1,-1],"type":"VEC3"},{"bufferView":59,"componentType":5126,"count":36,"max":[0.125,1],"min":[0,0.793749988079071],"type":"VEC2"},{"bufferView":60,"componentType":5126,"count":36,"max":[0.09375,0.03750000149011612,0.09375],"min":[-0.09375,0.01875000074505806,-0.09375],"type":"VEC3"},{"bufferView":61,"componentType":5126,"count":36,"max":[1,1,1],"min":[-1,-1,-1],"type":"VEC3"},{"bufferView":62,"componentType":5126,"count":36,"max":[0.1875,1],"min":[0,0.8125],"type":"VEC2"},{"bufferView":63,"componentType":5126,"count":36,"max":[0.09375,0.01875000074505806,0.09375],"min":[-0.09375,0,-0.09375],"type":"VEC3"},{"bufferView":64,"componentType":5126,"count":36,"max":[1,1,1],"min":[-1,-1,-1],"type":"VEC3"},{"bufferView":65,"componentType":5126,"count":36,"max":[0.1875,1],"min":[0,0.8125],"type":"VEC2"}],"materials":[{"pbrMetallicRoughness":{"metallicFactor":0,"roughnessFactor":1,"baseColorTexture":{"index":0}},"alphaMode":"MASK","alphaCutoff":0.05,"doubleSided":true},{"pbrMetallicRoughness":{"metallicFactor":0,"roughnessFactor":1,"baseColorTexture":{"index":1}},"alphaMode":"MASK","alphaCutoff":0.05,"doubleSided":true}],"textures":[{"sampler":0,"source":0,"name":"stem"},{"sampler":1,"source":1,"name":"dirt"}],"samplers":[{"magFilter":9728,"minFilter":9728,"wrapS":33071,"wrapT":33071},{"magFilter":9728,"minFilter":9728,"wrapS":33071,"wrapT":33071}],"images":[{"mimeType":"image/png","uri":"data:image/png;base64,"},{"mimeType":"image/png","uri":"data:image/png;base64,"}],"meshes":[{"primitives":[{"mode":4,"attributes":{"POSITION":0,"NORMAL":1,"TEXCOORD_0":2},"material":0}]},{"primitives":[{"mode":4,"attributes":{"POSITION":3,"NORMAL":4,"TEXCOORD_0":5},"material":0}]},{"primitives":[{"mode":4,"attributes":{"POSITION":6,"NORMAL":7,"TEXCOORD_0":8},"material":0}]},{"primitives":[{"mode":4,"attributes":{"POSITION":9,"NORMAL":10,"TEXCOORD_0":11},"material":0}]},{"primitives":[{"mode":4,"attributes":{"POSITION":12,"NORMAL":13,"TEXCOORD_0":14},"material":0}]},{"primitives":[{"mode":4,"attributes":{"POSITION":15,"NORMAL":16,"TEXCOORD_0":17},"material":0}]},{"primitives":[{"mode":4,"attributes":{"POSITION":18,"NORMAL":19,"TEXCOORD_0":20},"material":0}]},{"primitives":[{"mode":4,"attributes":{"POSITION":21,"NORMAL":22,"TEXCOORD_0":23},"material":0}]},{"primitives":[{"mode":4,"attributes":{"POSITION":24,"NORMAL":25,"TEXCOORD_0":26},"material":0}]},{"primitives":[{"mode":4,"attributes":{"POSITION":27,"NORMAL":28,"TEXCOORD_0":29},"material":0}]},{"primitives":[{"mode":4,"attributes":{"POSITION":30,"NORMAL":31,"TEXCOORD_0":32},"material":0}]},{"primitives":[{"mode":4,"attributes":{"POSITION":33,"NORMAL":34,"TEXCOORD_0":35},"material":0}]},{"primitives":[{"mode":4,"attributes":{"POSITION":36,"NORMAL":37,"TEXCOORD_0":38},"material":0}]},{"primitives":[{"mode":4,"attributes":{"POSITION":39,"NORMAL":40,"TEXCOORD_0":41},"material":0}]},{"primitives":[{"mode":4,"attributes":{"POSITION":42,"NORMAL":43,"TEXCOORD_0":44},"material":0}]},{"primitives":[{"mode":4,"attributes":{"POSITION":45,"NORMAL":46,"TEXCOORD_0":47},"material":0}]},{"primitives":[{"mode":4,"attributes":{"POSITION":48,"NORMAL":49,"TEXCOORD_0":50},"material":0}]},{"primitives":[{"mode":4,"attributes":{"POSITION":51,"NORMAL":52,"TEXCOORD_0":53},"material":0}]},{"primitives":[{"mode":4,"attributes":{"POSITION":54,"NORMAL":55,"TEXCOORD_0":56},"material":0}]},{"primitives":[{"mode":4,"attributes":{"POSITION":57,"NORMAL":58,"TEXCOORD_0":59},"material":0}]},{"primitives":[{"mode":4,"attributes":{"POSITION":60,"NORMAL":61,"TEXCOORD_0":62},"material":0}]},{"primitives":[{"mode":4,"attributes":{"POSITION":63,"NORMAL":64,"TEXCOORD_0":65},"material":1}]}]}