{"asset":{"version":"2.0","generator":"Blockbench 3.9.3 glTF exporter"},"scenes":[{"nodes":[0,1,2,3,4,5,6,7,8,9,10,11,12,13,14,15,16,17,18,19,20,21,22,23,24],"name":"blockbench_export"}],"scene":0,"nodes":[{"rotation":[0.25681664770373147,0.11728058461703078,-0.4039896029013206,0.8701050940442414],"translation":[0.02649306861159452,0.10785444431189778,-0.048966597257071726],"name":"e983057c-dc8f-4695-0968-4d0820bd48e2","mesh":0},{"rotation":[-0.18068327687130817,-0.4991020148783595,0.22945458276624725,0.815843935229634],"translation":[-0.04326560297665124,0.1016145640574857,0.02310296184467621],"name":"669e649b-61bf-ada4-9d67-6ad912f7f7b5","mesh":1},{"rotation":[-0.24485019716109116,-0.210370297268992,0.1591987218653516,0.9329782880290244],"translation":[-0.04326560297665124,0.1016145640574857,0.02310296184467621],"name":"205fc29f-6a34-33fc-73df-7c44fee3a892","mesh":2},{"rotation":[5.6636235853595e-18,0.7518398074789774,5.6636235853595e-18,0.6593458151000688],"translation":[-0.02771908853681943,0.03125,-0.01442964416359481],"name":"253b89f4-3d26-6fce-afde-3bc6e6e04aaa","mesh":3},{"rotation":[0.1437921571975182,0.5366396363910694,0.2152001710879079,0.8031379722975873],"translation":[-0.02771908853681943,0.03125,-0.01442964416359481],"name":"ef57ffad-e03d-53f4-dc79-9935519f7797","mesh":4},{"rotation":[0,0.27982901403099203,0,0.9600498543859287],"translation":[-0.02771908853681943,0.03125,-0.01442964416359481],"name":"70fb888e-8435-ae58-2540-58360c13f28b","mesh":5},{"rotation":[0,-0.2376858923261731,0,0.9713420698132614],"translation":[-0.027719088536819425,0.03125,-0.014429644163594817],"name":"8acc42b4-d51d-2834-5d48-55817bde3679","mesh":6},{"rotation":[0,-0.49242356010346716,0,0.8703556959398997],"translation":[0.16250000000000003,0.049999999999999996,-0.16249999999999998],"name":"abaffc20-63b2-b6f3-d03f-195ff2801d62","mesh":7},{"rotation":[6.609257795237519e-17,0.9965655024977618,6.609257795237519e-17,-0.0828082075122006],"translation":[0.21306051737943346,0.04375,-0.021843910781957118],"name":"fd5896d4-e0c5-fceb-7e35-c933d182c751","mesh":8},{"rotation":[8.623233078624248e-17,0.7688418320734619,8.623233078624248e-17,-0.6394390019805819],"translation":[0.19255902076156603,0.056249999999999994,0.08877226631898763],"name":"3f6b004b-a59d-85b7-bb04-2d43ad3f3004","mesh":9},{"rotation":[0,-0.36243803828370147,0,0.9320078692827986],"translation":[0.125,0.049999999999999996,0.1625000000000001],"name":"de2b034d-2bf8-7093-b1b1-9497bbe04a00","mesh":10},{"rotation":[0,0.4067366430758001,0,0.913545457642601],"translation":[-0.07815900666271441,0.05,0.22694910743728108],"name":"c522d54e-9f7c-cda8-321a-6554753c0f44","mesh":11},{"rotation":[0,-0.09584575252022398,0,0.9953961983671789],"translation":[-0.1386629269891518,0.05625,0.14515156392201337],"name":"d7e5c456-3573-6b6e-0da1-3fbf1cafc3c0","mesh":12},{"rotation":[0,0.35836794954530027,0,0.9335804264972017],"translation":[-0.20139392133529482,0.056249999999999994,0.07548173653350765],"name":"bdbca4fe-4afd-0e8d-e153-f56ab065a42a","mesh":13},{"rotation":[8.28117895032996e-17,0.882947592858927,8.28117895032996e-17,-0.46947156278589075],"translation":[-0.18338881346279792,0.056249999999999994,-0.10899311926609312],"name":"5eb5b693-9168-e661-cf70-a54600a8ca64","mesh":14},{"rotation":[0,-0.6087614290087208,0,0.793353340291235],"translation":[-0.1182817320451934,0.049999999999999996,-0.2040842226842439],"name":"45d8d317-7a18-7207-4a8d-4f7222c69f1f","mesh":15},{"translation":[0.03125,0,-0.03125],"name":"a4e5c807-0826-d6b8-aff7-03987272ac07","mesh":16},{"rotation":[0,-0.13052619222005157,0,0.9914448613738104],"translation":[-0.2375000000000002,0.049999999999999996,-0.03125],"name":"a2cec83a-be0d-e72b-84e4-3f733a0ce68b","mesh":17},{"translation":[0.03125,0,-0.03125],"name":"61570f57-71fc-9523-1d49-a1fb5e687694","mesh":18},{"rotation":[0,-0.3214394653031616,0,0.9469301294951057],"translation":[-0.08750000000000002,0.049999999999999996,-0.2749999999999999],"name":"152a24bd-e237-d83d-bc60-0d14a579ade1","mesh":19},{"translation":[0.03125,0,-0.03125],"name":"45b9cb65-1d8c-7432-31f6-ab26ce6e5f77","mesh":20},{"name":"body"},{"name":"grill"},{"name":"legs"},{"translation":[0,0.03125,0],"name":"Lid"}],"bufferViews":[{"buffer":0,"byteOffset":0,"byteLength":432,"target":34962,"byteStride":12},{"buffer":0,"byteOffset":432,"byteLength":432,"target":34962,"byteStride":12},{"buffer":0,"byteOffset":864,"byteLength":288,"target":34962,"byteStride":8},{"buffer":0,"byteOffset":1152,"byteLength":432,"target":34962,"byteStride":12},{"buffer":0,"byteOffset":1584,"byteLength":432,"target":34962,"byteStride":12},{"buffer":0,"byteOffset":2016,"byteLength":288,"target":34962,"byteStride":8},{"buffer":0,"byteOffset":2304,"byteLength":432,"target":34962,"byteStride":12},{"buffer":0,"byteOffset":2736,"byteLength":432,"target":34962,"byteStride":12},{"buffer":0,"byteOffset":3168,"byteLength":288,"target":34962,"byteStride":8},{"buffer":0,"byteOffset":3456,"byteLength":432,"target":34962,"byteStride":12},{"buffer":0,"byteOffset":3888,"byteLength":432,"target":34962,"byteStride":12},{"buffer":0,"byteOffset":4320,"byteLength":288,"target":34962,"byteStride":8},{"buffer":0,"byteOffset":4608,"byteLength":432,"target":34962,"byteStride":12},{"buffer":0,"byteOffset":5040,"byteLength":432,"target":34962,"byteStride":12},{"buffer":0,"byteOffset":5472,"byteLength":288,"target":34962,"byteStride":8},{"buffer":0,"byteOffset":5760,"byteLength":432,"target":34962,"byteStride":12},{"buffer":0,"byteOffset":6192,"byteLength":432,"target":34962,"byteStride":12},{"buffer":0,"byteOffset":6624,"byteLength":288,"target":34962,"byteStride":8},{"buffer":0,"byteOffset":6912,"byteLength":432,"target":34962,"byteStride":12},{"buffer":0,"byteOffset":7344,"byteLength":432,"target":34962,"byteStride":12},{"buffer":0,"byteOffset":7776,"byteLength":288,"target":34962,"byteStride":8},{"buffer":0,"byteOffset":8064,"byteLength":432,"target":34962,"byteStride":12},{"buffer":0,"byteOffset":8496,"byteLength":432,"target":34962,"byteStride":12},{"buffer":0,"byteOffset":8928,"byteLength":288,"target":34962,"byteStride":8},{"buffer":0,"byteOffset":9216,"byteLength":432,"target":34962,"byteStride":12},{"buffer":0,"byteOffset":9648,"byteLength":432,"target":34962,"byteStride":12},{"buffer":0,"byteOffset":10080,"byteLength":288,"target":34962,"byteStride":8},{"buffer":0,"byteOffset":10368,"byteLength":432,"target":34962,"byteStride":12},{"buffer":0,"byteOffset":10800,"byteLength":432,"target":34962,"byteStride":12},{"buffer":0,"byteOffset":11232,"byteLength":288,"target":34962,"byteStride":8},{"buffer":0,"byteOffset":11520,"byteLength":432,"target":34962,"byteStride":12},{"buffer":0,"byteOffset":11952,"byteLength":432,"target":34962,"byteStride":12},{"buffer":0,"byteOffset":12384,"byteLength":288,"target":34962,"byteStride":8},{"buffer":0,"byteOffset":12672,"byteLength":432,"target":34962,"byteStride":12},{"buffer":0,"byteOffset":13104,"byteLength":432,"target":34962,"byteStride":12},{"buffer":0,"byteOffset":13536,"byteLength":288,"target":34962,"byteStride":8},{"buffer":0,"byteOffset":13824,"byteLength":432,"target":34962,"byteStride":12},{"buffer":0,"byteOffset":14256,"byteLength":432,"target":34962,"byteStride":12},{"buffer":0,"byteOffset":14688,"byteLength":288,"target":34962,"byteStride":8},{"buffer":0,"byteOffset":14976,"byteLength":432,"target":34962,"byteStride":12},{"buffer":0,"byteOffset":15408,"byteLength":432,"target":34962,"byteStride":12},{"buffer":0,"byteOffset":15840,"byteLength":288,"target":34962,"byteStride":8},{"buffer":0,"byteOffset":16128,"byteLength":432,"target":34962,"byteStride":12},{"buffer":0,"byteOffset":16560,"byteLength":432,"target":34962,"byteStride":12},{"buffer":0,"byteOffset":16992,"byteLength":288,"target":34962,"byteStride":8},{"buffer":0,"byteOffset":17280,"byteLength":432,"target":34962,"byteStride":12},{"buffer":0,"byteOffset":17712,"byteLength":432,"target":34962,"byteStride":12},{"buffer":0,"byteOffset":18144,"byteLength":288,"target":34962,"byteStride":8},{"buffer":0,"byteOffset":18432,"byteLength":432,"target":34962,"byteStride":12},{"buffer":0,"byteOffset":18864,"byteLength":432,"target":34962,"byteStride":12},{"buffer":0,"byteOffset":19296,"byteLength":288,"target":34962,"byteStride":8},{"buffer":0,"byteOffset":19584,"byteLength":432,"target":34962,"byteStride":12},{"buffer":0,"byteOffset":20016,"byteLength":432,"target":34962,"byteStride":12},{"buffer":0,"byteOffset":20448,"byteLength":288,"target":34962,"byteStride":8},{"buffer":0,"byteOffset":20736,"byteLength":432,"target":34962,"byteStride":12},{"buffer":0,"byteOffset":21168,"byteLength":432,"target":34962,"byteStride":12},{"buffer":0,"byteOffset":21600,"byteLength":288,"target":34962,"byteStride":8},{"buffer":0,"byteOffset":21888,"byteLength":432,"target":34962,"byteStride":12},{"buffer":0,"byteOffset":22320,"byteLength":432,"target":34962,"byteStride":12},{"buffer":0,"byteOffset":22752,"byteLength":288,"target":34962,"byteStride":8},{"buffer":0,"byteOffset":23040,"byteLength":432,"target":34962,"byteStride":12},{"buffer":0,"byteOffset":23472,"byteLength":432,"target":34962,"byteStride":12},{"buffer":0,"byteOffset":23904,"byteLength":288,"target":34962,"byteStride":8}],"buffers":[{"byteLength":24192,"uri":"data:application/octet-stream;base64,"}],"accessors":[{"bufferView":0,"componentType":5126,"count":36,"max":[0.125,0.03125,0.03125],"min":[-0.125,-0.03125,-0.03125],"type":"VEC3"},{"bufferView":1,"componentType":5126,"count":36,"max":[1,1,1],"min":[-1,-1,-1],"type":"VEC3"},{"bufferView":2,"componentType":5126,"count":36,"max":[0.25,1],"min":[0,0.9375],"type":"VEC2"},{"bufferView":3,"componentType":5126,"count":36,"max":[0.08749999850988388,0.06875000149011612,0.0062500000931322575],"min":[-0.16249999403953552,0.0062500000931322575,-0.05624999850988388],"type":"VEC3"},{"bufferView":4,"componentType":5126,"count":36,"max":[1,1,1],"min":[-1,-1,-1],"type":"VEC3"},{"bufferView":5,"componentType":5126,"count":36,"max":[0.25,1],"min":[0,0.9375],"type":"VEC2"},{"bufferView":6,"componentType":5126,"count":36,"max":[0.125,0.03125,0.03125],"min":[-0.125,-0.03125,-0.03125],"type":"VEC3"},{"bufferView":7,"componentType":5126,"count":36,"max":[1,1,1],"min":[-1,-1,-1],"type":"VEC3"},{"bufferView":8,"componentType":5126,"count":36,"max":[0.25,1],"min":[0,0.9375],"type":"VEC2"},{"bufferView":9,"componentType":5126,"count":36,"max":[0.125,0.03125,0.03125],"min":[-0.125,-0.03125,-0.03125],"type":"VEC3"},{"bufferView":10,"componentType":5126,"count":36,"max":[1,1,1],"min":[-1,-1,-1],"type":"VEC3"},{"bufferView":11,"componentType":5126,"count":36,"max":[0.25,1],"min":[0,0.9375],"type":"VEC2"},{"bufferView":12,"componentType":5126,"count":36,"max":[0.125,0.11249999701976776,0.03125],"min":[-0.125,0.05000000074505806,-0.03125],"type":"VEC3"},{"bufferView":13,"componentType":5126,"count":36,"max":[1,1,1],"min":[-1,-1,-1],"type":"VEC3"},{"bufferView":14,"componentType":5126,"count":36,"max":[0.25,1],"min":[0,0.9375],"type":"VEC2"},{"bufferView":15,"componentType":5126,"count":36,"max":[0.125,0.03125,0.03125],"min":[-0.125,-0.03125,-0.03125],"type":"VEC3"},{"bufferView":16,"componentType":5126,"count":36,"max":[1,1,1],"min":[-1,-1,-1],"type":"VEC3"},{"bufferView":17,"componentType":5126,"count":36,"max":[0.25,1],"min":[0,0.9375],"type":"VEC2"},{"bufferView":18,"componentType":5126,"count":36,"max":[0.125,0.03125,0.03125],"min":[-0.125,-0.03125,-0.03125],"type":"VEC3"},{"bufferView":19,"componentType":5126,"count":36,"max":[1,1,1],"min":[-1,-1,-1],"type":"VEC3"},{"bufferView":20,"componentType":5126,"count":36,"max":[0.25,1],"min":[0,0.9375],"type":"VEC2"},{"bufferView":21,"componentType":5126,"count":36,"max":[0.05000000074505806,0.05624999850988388,0.08749999850988388],"min":[-0.05000000074505806,-0.04374999925494194,-0.012500000186264515],"type":"VEC3"},{"bufferView":22,"componentType":5126,"count":36,"max":[1,1,1],"min":[-1,-1,-1],"type":"VEC3"},{"bufferView":23,"componentType":5126,"count":36,"max":[0.10000000149011612,1],"min":[0,0.8999999761581421],"type":"VEC2"},{"bufferView":24,"componentType":5126,"count":36,"max":[0.05000000074505806,0.05000000074505806,0.0062500000931322575],"min":[-0.05000000074505806,-0.05000000074505806,-0.09375],"type":"VEC3"},{"bufferView":25,"componentType":5126,"count":36,"max":[1,1,1],"min":[-1,-1,-1],"type":"VEC3"},{"bufferView":26,"componentType":5126,"count":36,"max":[0.10000000149011612,1],"min":[0,0.8999999761581421],"type":"VEC2"},{"bufferView":27,"componentType":5126,"count":36,"max":[0.05000000074505806,0.03750000149011612,0.05000000074505806],"min":[-0.05000000074505806,-0.0625,-0.05000000074505806],"type":"VEC3"},{"bufferView":28,"componentType":5126,"count":36,"max":[1,1,1],"min":[-1,-1,-1],"type":"VEC3"},{"bufferView":29,"componentType":5126,"count":36,"max":[0.10000000149011612,1],"min":[0,0.8999999761581421],"type":"VEC2"},{"bufferView":30,"componentType":5126,"count":36,"max":[0.05000000074505806,0.05624999850988388,0.05624999850988388],"min":[-0.05000000074505806,-0.04374999925494194,-0.04374999925494194],"type":"VEC3"},{"bufferView":31,"componentType":5126,"count":36,"max":[1,1,1],"min":[-1,-1,-1],"type":"VEC3"},{"bufferView":32,"componentType":5126,"count":36,"max":[0.10000000149011612,1],"min":[0,0.8999999761581421],"type":"VEC2"},{"bufferView":33,"componentType":5126,"count":36,"max":[0.08124999701976776,0.05000000074505806,0.04374999925494194],"min":[-0.01875000074505806,-0.05000000074505806,-0.05624999850988388],"type":"VEC3"},{"bufferView":34,"componentType":5126,"count":36,"max":[1,1,1],"min":[-1,-1,-1],"type":"VEC3"},{"bufferView":35,"componentType":5126,"count":36,"max":[0.10000000149011612,1],"min":[0,0.8999999761581421],"type":"VEC2"},{"bufferView":36,"componentType":5126,"count":36,"max":[0.05000000074505806,0.05624999850988388,0.05000000074505806],"min":[-0.05000000074505806,-0.04374999925494194,-0.05000000074505806],"type":"VEC3"},{"bufferView":37,"componentType":5126,"count":36,"max":[1,1,1],"min":[-1,-1,-1],"type":"VEC3"},{"bufferView":38,"componentType":5126,"count":36,"max":[0.10000000149011612,1],"min":[0,0.8999999761581421],"type":"VEC2"},{"bufferView":39,"componentType":5126,"count":36,"max":[0.05000000074505806,0.05000000074505806,0.05000000074505806],"min":[-0.05000000074505806,-0.05000000074505806,-0.05000000074505806],"type":"VEC3"},{"bufferView":40,"componentType":5126,"count":36,"max":[1,1,1],"min":[-1,-1,-1],"type":"VEC3"},{"bufferView":41,"componentType":5126,"count":36,"max":[0.10000000149011612,1],"min":[0,0.8999999761581421],"type":"VEC2"},{"bufferView":42,"componentType":5126,"count":36,"max":[0.05000000074505806,0.03750000149011612,0.05000000074505806],"min":[-0.05000000074505806,-0.0625,-0.05000000074505806],"type":"VEC3"},{"bufferView":43,"componentType":5126,"count":36,"max":[1,1,1],"min":[-1,-1,-1],"type":"VEC3"},{"bufferView":44,"componentType":5126,"count":36,"max":[0.10000000149011612,1],"min":[0,0.8999999761581421],"type":"VEC2"},{"bufferView":45,"componentType":5126,"count":36,"max":[0.05000000074505806,0.05624999850988388,0.05000000074505806],"min":[-0.05000000074505806,-0.04374999925494194,-0.05000000074505806],"type":"VEC3"},{"bufferView":46,"componentType":5126,"count":36,"max":[1,1,1],"min":[-1,-1,-1],"type":"VEC3"},{"bufferView":47,"componentType":5126,"count":36,"max":[0.10000000149011612,1],"min":[0,0.8999999761581421],"type":"VEC2"},{"bufferView":48,"componentType":5126,"count":36,"max":[0.06875000149011612,0.09375,-0.125],"min":[-0.03125,-0.0062500000931322575,-0.22499999403953552],"type":"VEC3"},{"bufferView":49,"componentType":5126,"count":36,"max":[1,1,1],"min":[-1,-1,-1],"type":"VEC3"},{"bufferView":50,"componentType":5126,"count":36,"max":[0.10000000149011612,1],"min":[0,0.8999999761581421],"type":"VEC2"},{"bufferView":51,"componentType":5126,"count":36,"max":[0.05000000074505806,0.05000000074505806,0.05000000074505806],"min":[-0.05000000074505806,-0.05000000074505806,-0.05000000074505806],"type":"VEC3"},{"bufferView":52,"componentType":5126,"count":36,"max":[1,1,1],"min":[-1,-1,-1],"type":"VEC3"},{"bufferView":53,"componentType":5126,"count":36,"max":[0.10000000149011612,1],"min":[0,0.8999999761581421],"type":"VEC2"},{"bufferView":54,"componentType":5126,"count":36,"max":[0.05000000074505806,0.11249999701976776,0.3125],"min":[-0.05000000074505806,0.012500000186264515,0.21250000596046448],"type":"VEC3"},{"bufferView":55,"componentType":5126,"count":36,"max":[1,1,1],"min":[-1,-1,-1],"type":"VEC3"},{"bufferView":56,"componentType":5126,"count":36,"max":[0.10000000149011612,1],"min":[0,0.8999999761581421],"type":"VEC2"},{"bufferView":57,"componentType":5126,"count":36,"max":[0.14374999701976776,0.05000000074505806,0.07500000298023224],"min":[0.04374999925494194,-0.05000000074505806,-0.02500000037252903],"type":"VEC3"},{"bufferView":58,"componentType":5126,"count":36,"max":[1,1,1],"min":[-1,-1,-1],"type":"VEC3"},{"bufferView":59,"componentType":5126,"count":36,"max":[0.10000000149011612,1],"min":[0,0.8999999761581421],"type":"VEC2"},{"bufferView":60,"componentType":5126,"count":36,"max":[0.21250000596046448,0.10000000149011612,0.03125],"min":[0.11249999701976776,0,-0.06875000149011612],"type":"VEC3"},{"bufferView":61,"componentType":5126,"count":36,"max":[1,1,1],"min":[-1,-1,-1],"type":"VEC3"},{"bufferView":62,"componentType":5126,"count":36,"max":[0.10000000149011612,1],"min":[0,0.8999999761581421],"type":"VEC2"}],"materials":[{"pbrMetallicRoughness":{"metallicFactor":0,"roughnessFactor":1,"baseColorTexture":{"index":0}},"alphaMode":"MASK","alphaCutoff":0.05,"doubleSided":true},{"pbrMetallicRoughness":{"metallicFactor":0,"roughnessFactor":1,"baseColorTexture":{"index":1}},"alphaMode":"MASK","alphaCutoff":0.05,"doubleSided":true},{"pbrMetallicRoughness":{"metallicFactor":0,"roughnessFactor":1,"baseColorTexture":{"index":2}},"alphaMode":"MASK","alphaCutoff":0.05,"doubleSided":true}],"textures":[{"sampler":0,"source":0,"name":"wood"},{"sampler":1,"source":1,"name":"Metal"},{"sampler":2,"source":2,"name":"dark metal"}],"samplers":[{"magFilter":9728,"minFilter":9728,"wrapS":33071,"wrapT":33071},{"magFilter":9728,"minFilter":9728,"wrapS":33071,"wrapT":33071},{"magFilter":9728,"minFilter":9728,"wrapS":33071,"wrapT":33071}],"images":[{"mimeType":"image/png","uri":"data:image/png;base64,"},{"mimeType":"image/png","uri":"data:image/png;base64,"},{"mimeType":"image/png","uri":"data:image/png;base64,"}],"meshes":[{"primitives":[{"mode":4,"attributes":{"POSITION":0,"NORMAL":1,"TEXCOORD_0":2},"material":0}]},{"primitives":[{"mode":4,"attributes":{"POSITION":3,"NORMAL":4,"TEXCOORD_0":5},"material":0}]},{"primitives":[{"mode":4,"attributes":{"POSITION":6,"NORMAL":7,"TEXCOORD_0":8},"material":0}]},{"primitives":[{"mode":4,"attributes":{"POSITION":9,"NORMAL":10,"TEXCOORD_0":11},"material":0}]},{"primitives":[{"mode":4,"attributes":{"POSITION":12,"NORMAL":13,"TEXCOORD_0":14},"material":0}]},{"primitives":[{"mode":4,"attributes":{"POSITION":15,"NORMAL":16,"TEXCOORD_0":17},"material":0}]},{"primitives":[{"mode":4,"attributes":{"POSITION":18,"NORMAL":19,"TEXCOORD_0":20},"material":0}]},{"primitives":[{"mode":4,"attributes":{"POSITION":21,"NORMAL":22,"TEXCOORD_0":23},"material":1}]},{"primitives":[{"mode":4,"attributes":{"POSITION":24,"NORMAL":25,"TEXCOORD_0":26},"material":2}]},{"primitives":[{"mode":4,"attributes":{"POSITION":27,"NORMAL":28,"TEXCOORD_0":29},"material":2}]},{"primitives":[{"mode":4,"attributes":{"POSITION":30,"NORMAL":31,"TEXCOORD_0":32},"material":1}]},{"primitives":[{"mode":4,"attributes":{"POSITION":33,"NORMAL":34,"TEXCOORD_0":35},"material":1}]},{"primitives":[{"mode":4,"attributes":{"POSITION":36,"NORMAL":37,"TEXCOORD_0":38},"material":1}]},{"primitives":[{"mode":4,"attributes":{"POSITION":39,"NORMAL":40,"TEXCOORD_0":41},"material":2}]},{"primitives":[{"mode":4,"attributes":{"POSITION":42,"NORMAL":43,"TEXCOORD_0":44},"material":2}]},{"primitives":[{"mode":4,"attributes":{"POSITION":45,"NORMAL":46,"TEXCOORD_0":47},"material":1}]},{"primitives":[{"mode":4,"attributes":{"POSITION":48,"NORMAL":49,"TEXCOORD_0":50},"material":2}]},{"primitives":[{"mode":4,"attributes":{"POSITION":51,"NORMAL":52,"TEXCOORD_0":53},"material":1}]},{"primitives":[{"mode":4,"attributes":{"POSITION":54,"NORMAL":55,"TEXCOORD_0":56},"material":2}]},{"primitives":[{"mode":4,"attributes":{"POSITION":57,"NORMAL":58,"TEXCOORD_0":59},"material":1}]},{"primitives":[{"mode":4,"attributes":{"POSITION":60,"NORMAL":61,"TEXCOORD_0":62},"material":1}]}]}