{"asset":{"version":"2.0","generator":"Blockbench 3.9.3 glTF exporter"},"scenes":[{"nodes":[0,1,2,3,4,5,6,7,8,9,10,11,12,13,14,15],"name":"blockbench_export"}],"scene":0,"nodes":[{"name":"56b1870f-73c1-a17b-6bf9-f73c0fb80947","mesh":0},{"rotation":[0,0,0.1908089953765448,0.981627183447664],"translation":[0.29903602071386576,0.6553588666121383,0.03125],"name":"21c7ba2b-ccaf-cfd6-6f1a-e380af4c4b34","mesh":1},{"rotation":[0,0,0.1908089953765448,0.981627183447664],"translation":[0.29903602071386565,0.6553588666121384,1.28125],"name":"6d8387a9-91b7-2b6b-6051-06d0867aec03","mesh":2},{"translation":[0,0,2.5],"name":"0a5a75f1-e2bb-15b1-d313-87d59ea49e87","mesh":3},{"rotation":[0,0,0.1908089953765448,0.981627183447664],"translation":[0.29903602071386565,0.6553588666121384,-1.21875],"name":"21dd8a5c-979c-03af-3312-1003e5383f26","mesh":4},{"name":"987ea1ea-657c-b9f8-d981-d028455a593a","mesh":5},{"name":"cbda56fe-ca47-4630-3ee8-0e13d424e20d","mesh":6},{"name":"9004e85a-fe7b-1263-1405-c12922cae81e","mesh":7},{"name":"774e8de0-8156-6419-46d4-cdb1e80ad207","mesh":8},{"name":"6033794a-3753-d0da-ac49-371fb1832325","mesh":9},{"name":"7897f098-c432-c862-c7d1-d5d7b4b0fdc6","mesh":10},{"name":"801b0774-09ed-b173-f566-3afe1f36d744","mesh":11},{"name":"body"},{"name":"grill"},{"name":"legs"},{"translation":[0,0.03125,0],"name":"Lid"}],"bufferViews":[{"buffer":0,"byteOffset":0,"byteLength":432,"target":34962,"byteStride":12},{"buffer":0,"byteOffset":432,"byteLength":432,"target":34962,"byteStride":12},{"buffer":0,"byteOffset":864,"byteLength":288,"target":34962,"byteStride":8},{"buffer":0,"byteOffset":1152,"byteLength":432,"target":34962,"byteStride":12},{"buffer":0,"byteOffset":1584,"byteLength":432,"target":34962,"byteStride":12},{"buffer":0,"byteOffset":2016,"byteLength":288,"target":34962,"byteStride":8},{"buffer":0,"byteOffset":2304,"byteLength":432,"target":34962,"byteStride":12},{"buffer":0,"byteOffset":2736,"byteLength":432,"target":34962,"byteStride":12},{"buffer":0,"byteOffset":3168,"byteLength":288,"target":34962,"byteStride":8},{"buffer":0,"byteOffset":3456,"byteLength":432,"target":34962,"byteStride":12},{"buffer":0,"byteOffset":3888,"byteLength":432,"target":34962,"byteStride":12},{"buffer":0,"byteOffset":4320,"byteLength":288,"target":34962,"byteStride":8},{"buffer":0,"byteOffset":4608,"byteLength":432,"target":34962,"byteStride":12},{"buffer":0,"byteOffset":5040,"byteLength":432,"target":34962,"byteStride":12},{"buffer":0,"byteOffset":5472,"byteLength":288,"target":34962,"byteStride":8},{"buffer":0,"byteOffset":5760,"byteLength":432,"target":34962,"byteStride":12},{"buffer":0,"byteOffset":6192,"byteLength":432,"target":34962,"byteStride":12},{"buffer":0,"byteOffset":6624,"byteLength":288,"target":34962,"byteStride":8},{"buffer":0,"byteOffset":6912,"byteLength":432,"target":34962,"byteStride":12},{"buffer":0,"byteOffset":7344,"byteLength":432,"target":34962,"byteStride":12},{"buffer":0,"byteOffset":7776,"byteLength":288,"target":34962,"byteStride":8},{"buffer":0,"byteOffset":8064,"byteLength":432,"target":34962,"byteStride":12},{"buffer":0,"byteOffset":8496,"byteLength":432,"target":34962,"byteStride":12},{"buffer":0,"byteOffset":8928,"byteLength":288,"target":34962,"byteStride":8},{"buffer":0,"byteOffset":9216,"byteLength":432,"target":34962,"byteStride":12},{"buffer":0,"byteOffset":9648,"byteLength":432,"target":34962,"byteStride":12},{"buffer":0,"byteOffset":10080,"byteLength":288,"target":34962,"byteStride":8},{"buffer":0,"byteOffset":10368,"byteLength":432,"target":34962,"byteStride":12},{"buffer":0,"byteOffset":10800,"byteLength":432,"target":34962,"byteStride":12},{"buffer":0,"byteOffset":11232,"byteLength":288,"target":34962,"byteStride":8},{"buffer":0,"byteOffset":11520,"byteLength":432,"target":34962,"byteStride":12},{"buffer":0,"byteOffset":11952,"byteLength":432,"target":34962,"byteStride":12},{"buffer":0,"byteOffset":12384,"byteLength":288,"target":34962,"byteStride":8},{"buffer":0,"byteOffset":12672,"byteLength":432,"target":34962,"byteStride":12},{"buffer":0,"byteOffset":13104,"byteLength":432,"target":34962,"byteStride":12},{"buffer":0,"byteOffset":13536,"byteLength":288,"target":34962,"byteStride":8}],"buffers":[{"byteLength":13824,"uri":"data:application/octet-stream;base64,"}],"accessors":[{"bufferView":0,"componentType":5126,"count":36,"max":[0.06875000149011612,1.287500023841858,1.25],"min":[-0.46875,1.274999976158142,-1.1875],"type":"VEC3"},{"bufferView":1,"componentType":5126,"count":36,"max":[1,1,1],"min":[-1,-1,-1],"type":"VEC3"},{"bufferView":2,"componentType":5126,"count":36,"max":[1,1],"min":[0,0],"type":"VEC2"},{"bufferView":3,"componentType":5126,"count":36,"max":[0.0062500000931322575,0.6937500238418579,1.21875],"min":[-0.0062500000931322575,-0.6937500238418579,-1.21875],"type":"VEC3"},{"bufferView":4,"componentType":5126,"count":36,"max":[1,1,1],"min":[-1,-1,-1],"type":"VEC3"},{"bufferView":5,"componentType":5126,"count":36,"max":[1,1],"min":[0,-0.09375],"type":"VEC2"},{"bufferView":6,"componentType":5126,"count":36,"max":[0.03125,0.6937500238418579,0.03125],"min":[-0.03125,-0.6937500238418579,-0.03125],"type":"VEC3"},{"bufferView":7,"componentType":5126,"count":36,"max":[1,1,1],"min":[-1,-1,-1],"type":"VEC3"},{"bufferView":8,"componentType":5126,"count":36,"max":[0.0625,1],"min":[0,0],"type":"VEC2"},{"bufferView":9,"componentType":5126,"count":36,"max":[0.06875000149011612,1.3125,-1.1875],"min":[-0.46875,1.25,-1.25],"type":"VEC3"},{"bufferView":10,"componentType":5126,"count":36,"max":[1,1,1],"min":[-1,-1,-1],"type":"VEC3"},{"bufferView":11,"componentType":5126,"count":36,"max":[0.5375000238418579,1],"min":[0,0.9375],"type":"VEC2"},{"bufferView":12,"componentType":5126,"count":36,"max":[0.03125,0.6937500238418579,0.03125],"min":[-0.03125,-0.6937500238418579,-0.03125],"type":"VEC3"},{"bufferView":13,"componentType":5126,"count":36,"max":[1,1,1],"min":[-1,-1,-1],"type":"VEC3"},{"bufferView":14,"componentType":5126,"count":36,"max":[0.0625,1],"min":[0,0],"type":"VEC2"},{"bufferView":15,"componentType":5126,"count":36,"max":[0.06875000149011612,1.3125,-1.1875],"min":[-0.46875,1.25,-1.25],"type":"VEC3"},{"bufferView":16,"componentType":5126,"count":36,"max":[1,1,1],"min":[-1,-1,-1],"type":"VEC3"},{"bufferView":17,"componentType":5126,"count":36,"max":[0.5375000238418579,1],"min":[0,0.9375],"type":"VEC2"},{"bufferView":18,"componentType":5126,"count":36,"max":[-0.46875,1.25,-1.1875],"min":[-0.53125,0.0625,-1.25],"type":"VEC3"},{"bufferView":19,"componentType":5126,"count":36,"max":[1,1,1],"min":[-1,-1,-1],"type":"VEC3"},{"bufferView":20,"componentType":5126,"count":36,"max":[0.0625,1],"min":[0,0],"type":"VEC2"},{"bufferView":21,"componentType":5126,"count":36,"max":[-0.46875,1.25,1.3125],"min":[-0.53125,0.0625,1.25],"type":"VEC3"},{"bufferView":22,"componentType":5126,"count":36,"max":[1,1,1],"min":[-1,-1,-1],"type":"VEC3"},{"bufferView":23,"componentType":5126,"count":36,"max":[0.0625,1],"min":[0,0],"type":"VEC2"},{"bufferView":24,"componentType":5126,"count":36,"max":[0.59375,0.0625,-1.1875],"min":[-0.53125,0,-1.25],"type":"VEC3"},{"bufferView":25,"componentType":5126,"count":36,"max":[1,1,1],"min":[-1,-1,-1],"type":"VEC3"},{"bufferView":26,"componentType":5126,"count":36,"max":[1,1],"min":[0,0.9375],"type":"VEC2"},{"bufferView":27,"componentType":5126,"count":36,"max":[0.59375,0.0625,1.3125],"min":[-0.53125,0,1.25],"type":"VEC3"},{"bufferView":28,"componentType":5126,"count":36,"max":[1,1,1],"min":[-1,-1,-1],"type":"VEC3"},{"bufferView":29,"componentType":5126,"count":36,"max":[1,1],"min":[0,0.9375],"type":"VEC2"},{"bufferView":30,"componentType":5126,"count":36,"max":[0.59375,0.0625,1.3125],"min":[0.53125,0,-1.25],"type":"VEC3"},{"bufferView":31,"componentType":5126,"count":36,"max":[1,1,1],"min":[-1,-1,-1],"type":"VEC3"},{"bufferView":32,"componentType":5126,"count":36,"max":[1,1],"min":[0,0],"type":"VEC2"},{"bufferView":33,"componentType":5126,"count":36,"max":[-0.46875,1.3125,1.3125],"min":[-0.53125,1.25,-1.25],"type":"VEC3"},{"bufferView":34,"componentType":5126,"count":36,"max":[1,1,1],"min":[-1,-1,-1],"type":"VEC3"},{"bufferView":35,"componentType":5126,"count":36,"max":[1,1],"min":[0,0],"type":"VEC2"}],"materials":[{"pbrMetallicRoughness":{"metallicFactor":0,"roughnessFactor":1,"baseColorTexture":{"index":0}},"alphaMode":"MASK","alphaCutoff":0.05,"doubleSided":true},{"pbrMetallicRoughness":{"metallicFactor":0,"roughnessFactor":1,"baseColorTexture":{"index":1}},"alphaMode":"MASK","alphaCutoff":0.05,"doubleSided":true}],"textures":[{"sampler":0,"source":0,"name":"net"},{"sampler":1,"source":1,"name":"plastic"}],"samplers":[{"magFilter":9728,"minFilter":9728,"wrapS":33071,"wrapT":33071},{"magFilter":9728,"minFilter":9728,"wrapS":33071,"wrapT":33071}],"images":[{"mimeType":"image/png","uri":"data:image/png;base64,"},{"mimeType":"image/png","uri":"data:image/png;base64,"}],"meshes":[{"primitives":[{"mode":4,"attributes":{"POSITION":0,"NORMAL":1,"TEXCOORD_0":2},"material":0}]},{"primitives":[{"mode":4,"attributes":{"POSITION":3,"NORMAL":4,"TEXCOORD_0":5},"material":0}]},{"primitives":[{"mode":4,"attributes":{"POSITION":6,"NORMAL":7,"TEXCOORD_0":8},"material":1}]},{"primitives":[{"mode":4,"attributes":{"POSITION":9,"NORMAL":10,"TEXCOORD_0":11},"material":1}]},{"primitives":[{"mode":4,"attributes":{"POSITION":12,"NORMAL":13,"TEXCOORD_0":14},"material":1}]},{"primitives":[{"mode":4,"attributes":{"POSITION":15,"NORMAL":16,"TEXCOORD_0":17},"material":1}]},{"primitives":[{"mode":4,"attributes":{"POSITION":18,"NORMAL":19,"TEXCOORD_0":20},"material":1}]},{"primitives":[{"mode":4,"attributes":{"POSITION":21,"NORMAL":22,"TEXCOORD_0":23},"material":1}]},{"primitives":[{"mode":4,"attributes":{"POSITION":24,"NORMAL":25,"TEXCOORD_0":26},"material":1}]},{"primitives":[{"mode":4,"attributes":{"POSITION":27,"NORMAL":28,"TEXCOORD_0":29},"material":1}]},{"primitives":[{"mode":4,"attributes":{"POSITION":30,"NORMAL":31,"TEXCOORD_0":32},"material":1}]},{"primitives":[{"mode":4,"attributes":{"POSITION":33,"NORMAL":34,"TEXCOORD_0":35},"material":1}]}]}