{"asset":{"version":"2.0","generator":"Blockbench 3.9.3 glTF exporter"},"scenes":[{"nodes":[0,1,2,3,4,5,6,7,8],"name":"blockbench_export"}],"scene":0,"nodes":[{"name":"9e4f82f1-ffbe-f581-0325-eee4af293d87","mesh":0},{"name":"086b2b92-aaff-dcec-d005-7fc734dcd1de","mesh":1},{"name":"b250280f-9ce3-f99f-ea41-7a91caf4b54c","mesh":2},{"name":"63540136-8f82-5cac-274a-c626cea725d4","mesh":3},{"name":"4d23239b-65f2-3167-3d58-63064fd1d763","mesh":4},{"name":"body"},{"name":"grill"},{"name":"legs"},{"translation":[0,0.03125,0],"name":"Lid"}],"bufferViews":[{"buffer":0,"byteOffset":0,"byteLength":432,"target":34962,"byteStride":12},{"buffer":0,"byteOffset":432,"byteLength":432,"target":34962,"byteStride":12},{"buffer":0,"byteOffset":864,"byteLength":288,"target":34962,"byteStride":8},{"buffer":0,"byteOffset":1152,"byteLength":432,"target":34962,"byteStride":12},{"buffer":0,"byteOffset":1584,"byteLength":432,"target":34962,"byteStride":12},{"buffer":0,"byteOffset":2016,"byteLength":288,"target":34962,"byteStride":8},{"buffer":0,"byteOffset":2304,"byteLength":432,"target":34962,"byteStride":12},{"buffer":0,"byteOffset":2736,"byteLength":432,"target":34962,"byteStride":12},{"buffer":0,"byteOffset":3168,"byteLength":288,"target":34962,"byteStride":8},{"buffer":0,"byteOffset":3456,"byteLength":432,"target":34962,"byteStride":12},{"buffer":0,"byteOffset":3888,"byteLength":432,"target":34962,"byteStride":12},{"buffer":0,"byteOffset":4320,"byteLength":288,"target":34962,"byteStride":8},{"buffer":0,"byteOffset":4608,"byteLength":432,"target":34962,"byteStride":12},{"buffer":0,"byteOffset":5040,"byteLength":432,"target":34962,"byteStride":12},{"buffer":0,"byteOffset":5472,"byteLength":288,"target":34962,"byteStride":8}],"buffers":[{"byteLength":5760,"uri":"data:application/octet-stream;base64,"}],"accessors":[{"bufferView":0,"componentType":5126,"count":36,"max":[0.6812499761581421,0.0625,0.6875],"min":[-0.6812499761581421,0,-0.6875],"type":"VEC3"},{"bufferView":1,"componentType":5126,"count":36,"max":[1,1,1],"min":[-1,-1,-1],"type":"VEC3"},{"bufferView":2,"componentType":5126,"count":36,"max":[1,1],"min":[0,0],"type":"VEC2"},{"bufferView":3,"componentType":5126,"count":36,"max":[0.78125,0.13124999403953552,0.78125],"min":[-0.78125,0,0.65625],"type":"VEC3"},{"bufferView":4,"componentType":5126,"count":36,"max":[1,1,1],"min":[-1,-1,-1],"type":"VEC3"},{"bufferView":5,"componentType":5126,"count":36,"max":[1,1],"min":[0,0.8687499761581421],"type":"VEC2"},{"bufferView":6,"componentType":5126,"count":36,"max":[0.78125,0.13124999403953552,-0.65625],"min":[-0.78125,0,-0.78125],"type":"VEC3"},{"bufferView":7,"componentType":5126,"count":36,"max":[1,1,1],"min":[-1,-1,-1],"type":"VEC3"},{"bufferView":8,"componentType":5126,"count":36,"max":[1,1],"min":[0,0.8687499761581421],"type":"VEC2"},{"bufferView":9,"componentType":5126,"count":36,"max":[-0.65625,0.125,0.78125],"min":[-0.78125,0,-0.78125],"type":"VEC3"},{"bufferView":10,"componentType":5126,"count":36,"max":[1,1,1],"min":[-1,-1,-1],"type":"VEC3"},{"bufferView":11,"componentType":5126,"count":36,"max":[1,1],"min":[0,0],"type":"VEC2"},{"bufferView":12,"componentType":5126,"count":36,"max":[0.78125,0.125,0.78125],"min":[0.65625,0,-0.78125],"type":"VEC3"},{"bufferView":13,"componentType":5126,"count":36,"max":[1,1,1],"min":[-1,-1,-1],"type":"VEC3"},{"bufferView":14,"componentType":5126,"count":36,"max":[1,1],"min":[0,0],"type":"VEC2"}],"materials":[{"pbrMetallicRoughness":{"metallicFactor":0,"roughnessFactor":1,"baseColorTexture":{"index":0}},"alphaMode":"MASK","alphaCutoff":0.05,"doubleSided":true},{"pbrMetallicRoughness":{"metallicFactor":0,"roughnessFactor":1,"baseColorTexture":{"index":1}},"alphaMode":"MASK","alphaCutoff":0.05,"doubleSided":true}],"textures":[{"sampler":0,"source":0,"name":"sand"},{"sampler":1,"source":1,"name":"wood"}],"samplers":[{"magFilter":9728,"minFilter":9728,"wrapS":33071,"wrapT":33071},{"magFilter":9728,"minFilter":9728,"wrapS":33071,"wrapT":33071}],"images":[{"mimeType":"image/png","uri":"data:image/png;base64,"},{"mimeType":"image/png","uri":"data:image/png;base64,"}],"meshes":[{"primitives":[{"mode":4,"attributes":{"POSITION":0,"NORMAL":1,"TEXCOORD_0":2},"material":0}]},{"primitives":[{"mode":4,"attributes":{"POSITION":3,"NORMAL":4,"TEXCOORD_0":5},"material":1}]},{"primitives":[{"mode":4,"attributes":{"POSITION":6,"NORMAL":7,"TEXCOORD_0":8},"material":1}]},{"primitives":[{"mode":4,"attributes":{"POSITION":9,"NORMAL":10,"TEXCOORD_0":11},"material":1}]},{"primitives":[{"mode":4,"attributes":{"POSITION":12,"NORMAL":13,"TEXCOORD_0":14},"material":1}]}]}