{"asset":{"version":"2.0","generator":"Blockbench 3.9.3 glTF exporter"},"scenes":[{"nodes":[0,1,2,3,4,5,6,7,8,9,10,11,12,13],"name":"blockbench_export"}],"scene":0,"nodes":[{"name":"43d2c8e2-977d-5863-f570-353f3c980375","mesh":0},{"rotation":[-0.06540312923014306,0,0,0.9978589232386035],"translation":[0.03125,1.446875,-0.4],"name":"14f1fbbf-fe0e-ca47-62c8-1f55f88804f1","mesh":1},{"rotation":[0.06540312923014306,0,0,0.9978589232386035],"translation":[0.03125,1.446875,0.475],"name":"fb959b1e-15b4-0054-4b5e-953784ebeddd","mesh":2},{"name":"e06970e8-1de3-dfcc-aeec-cfa8b5dd0780","mesh":3},{"name":"2d9344d0-2e18-1cb9-d61b-ea14b37474b7","mesh":4},{"rotation":[0.02148346791310578,-0.0037881150322651284,-0.17360685410302246,0.9845733954354956],"translation":[-0.45386632404577315,1.1823550322209015,-1.03125],"name":"1bf76e12-a2ef-db78-d427-cfc48b8ff02d","mesh":5},{"rotation":[0.02148346791310578,0.0037881150322651284,0.17360685410302246,0.9845733954354956],"translation":[0.78125,1.15625,-1.03125],"name":"6fd572b6-c55f-ccdb-85f8-f1c289065681","mesh":6},{"rotation":[-0.02148346791310578,0.0037881150322651284,-0.17360685410302246,0.9845733954354956],"translation":[-0.65625,1.15625,1.15625],"name":"7fe286d5-d9fc-186f-e4d2-f1f50b0ad54c","mesh":7},{"rotation":[-0.02148346791310578,-0.0037881150322651284,0.17360685410302246,0.9845733954354956],"translation":[0.78125,1.15625,1.15625],"name":"b10a4d99-73f2-64a6-1f55-77a2882f1d17","mesh":8},{"name":"944571f7-f18e-8dd1-eece-acad35b6e77d","mesh":9},{"name":"body"},{"name":"grill"},{"name":"legs"},{"translation":[0,0.03125,0],"name":"Lid"}],"bufferViews":[{"buffer":0,"byteOffset":0,"byteLength":432,"target":34962,"byteStride":12},{"buffer":0,"byteOffset":432,"byteLength":432,"target":34962,"byteStride":12},{"buffer":0,"byteOffset":864,"byteLength":288,"target":34962,"byteStride":8},{"buffer":0,"byteOffset":1152,"byteLength":432,"target":34962,"byteStride":12},{"buffer":0,"byteOffset":1584,"byteLength":432,"target":34962,"byteStride":12},{"buffer":0,"byteOffset":2016,"byteLength":288,"target":34962,"byteStride":8},{"buffer":0,"byteOffset":2304,"byteLength":432,"target":34962,"byteStride":12},{"buffer":0,"byteOffset":2736,"byteLength":432,"target":34962,"byteStride":12},{"buffer":0,"byteOffset":3168,"byteLength":288,"target":34962,"byteStride":8},{"buffer":0,"byteOffset":3456,"byteLength":432,"target":34962,"byteStride":12},{"buffer":0,"byteOffset":3888,"byteLength":432,"target":34962,"byteStride":12},{"buffer":0,"byteOffset":4320,"byteLength":288,"target":34962,"byteStride":8},{"buffer":0,"byteOffset":4608,"byteLength":432,"target":34962,"byteStride":12},{"buffer":0,"byteOffset":5040,"byteLength":432,"target":34962,"byteStride":12},{"buffer":0,"byteOffset":5472,"byteLength":288,"target":34962,"byteStride":8},{"buffer":0,"byteOffset":5760,"byteLength":432,"target":34962,"byteStride":12},{"buffer":0,"byteOffset":6192,"byteLength":432,"target":34962,"byteStride":12},{"buffer":0,"byteOffset":6624,"byteLength":288,"target":34962,"byteStride":8},{"buffer":0,"byteOffset":6912,"byteLength":432,"target":34962,"byteStride":12},{"buffer":0,"byteOffset":7344,"byteLength":432,"target":34962,"byteStride":12},{"buffer":0,"byteOffset":7776,"byteLength":288,"target":34962,"byteStride":8},{"buffer":0,"byteOffset":8064,"byteLength":432,"target":34962,"byteStride":12},{"buffer":0,"byteOffset":8496,"byteLength":432,"target":34962,"byteStride":12},{"buffer":0,"byteOffset":8928,"byteLength":288,"target":34962,"byteStride":8},{"buffer":0,"byteOffset":9216,"byteLength":432,"target":34962,"byteStride":12},{"buffer":0,"byteOffset":9648,"byteLength":432,"target":34962,"byteStride":12},{"buffer":0,"byteOffset":10080,"byteLength":288,"target":34962,"byteStride":8},{"buffer":0,"byteOffset":10368,"byteLength":432,"target":34962,"byteStride":12},{"buffer":0,"byteOffset":10800,"byteLength":432,"target":34962,"byteStride":12},{"buffer":0,"byteOffset":11232,"byteLength":288,"target":34962,"byteStride":8}],"buffers":[{"byteLength":11520,"uri":"data:application/octet-stream;base64,"}],"accessors":[{"bufferView":0,"componentType":5126,"count":36,"max":[0.21875,0.8374999761581421,0.34375],"min":[-0.15625,0.7875000238418579,-0.2750000059604645],"type":"VEC3"},{"bufferView":1,"componentType":5126,"count":36,"max":[1,1,1],"min":[-1,-1,-1],"type":"VEC3"},{"bufferView":2,"componentType":5126,"count":36,"max":[0.6187499761581421,1],"min":[0,0.3812499940395355],"type":"VEC2"},{"bufferView":3,"componentType":5126,"count":36,"max":[0.012500000186264515,0.6156250238418579,0.08749999850988388],"min":[-0.012500000186264515,-0.6156250238418579,0.0625],"type":"VEC3"},{"bufferView":4,"componentType":5126,"count":36,"max":[1,1,1],"min":[-1,-1,-1],"type":"VEC3"},{"bufferView":5,"componentType":5126,"count":36,"max":[0.02500000037252903,1],"min":[0,0],"type":"VEC2"},{"bufferView":6,"componentType":5126,"count":36,"max":[0.012500000186264515,0.590624988079071,-0.0625],"min":[-0.012500000186264515,-0.640625,-0.08749999850988388],"type":"VEC3"},{"bufferView":7,"componentType":5126,"count":36,"max":[1,1,1],"min":[-1,-1,-1],"type":"VEC3"},{"bufferView":8,"componentType":5126,"count":36,"max":[0.02500000037252903,1],"min":[0,0],"type":"VEC2"},{"bufferView":9,"componentType":5126,"count":36,"max":[0.06875000149011612,2.125,-0.36250001192092896],"min":[-0.0062500000931322575,2.018749952316284,-0.4375],"type":"VEC3"},{"bufferView":10,"componentType":5126,"count":36,"max":[1,1,1],"min":[-1,-1,-1],"type":"VEC3"},{"bufferView":11,"componentType":5126,"count":36,"max":[0.07500000298023224,1],"min":[0,0.893750011920929],"type":"VEC2"},{"bufferView":12,"componentType":5126,"count":36,"max":[0.06875000149011612,2.125,0.512499988079071],"min":[-0.0062500000931322575,2.018749952316284,0.4375],"type":"VEC3"},{"bufferView":13,"componentType":5126,"count":36,"max":[1,1,1],"min":[-1,-1,-1],"type":"VEC3"},{"bufferView":14,"componentType":5126,"count":36,"max":[0.07500000298023224,1],"min":[0,0.893750011920929],"type":"VEC2"},{"bufferView":15,"componentType":5126,"count":36,"max":[0.0625,1.25,0.0625],"min":[-0.0625,-1.25,-0.0625],"type":"VEC3"},{"bufferView":16,"componentType":5126,"count":36,"max":[1,1,1],"min":[-1,-1,-1],"type":"VEC3"},{"bufferView":17,"componentType":5126,"count":36,"max":[0.125,1],"min":[0,0],"type":"VEC2"},{"bufferView":18,"componentType":5126,"count":36,"max":[-0.15625,1.34375,-0.0625],"min":[-0.28125,-1.15625,-0.1875],"type":"VEC3"},{"bufferView":19,"componentType":5126,"count":36,"max":[1,1,1],"min":[-1,-1,-1],"type":"VEC3"},{"bufferView":20,"componentType":5126,"count":36,"max":[0.125,1],"min":[0,0],"type":"VEC2"},{"bufferView":21,"componentType":5126,"count":36,"max":[0.24375000596046448,1.34375,-0.0625],"min":[0.11874999850988388,-1.15625,-0.1875],"type":"VEC3"},{"bufferView":22,"componentType":5126,"count":36,"max":[1,1,1],"min":[-1,-1,-1],"type":"VEC3"},{"bufferView":23,"componentType":5126,"count":36,"max":[0.125,1],"min":[0,0],"type":"VEC2"},{"bufferView":24,"componentType":5126,"count":36,"max":[-0.15625,1.34375,0.0625],"min":[-0.28125,-1.15625,-0.0625],"type":"VEC3"},{"bufferView":25,"componentType":5126,"count":36,"max":[1,1,1],"min":[-1,-1,-1],"type":"VEC3"},{"bufferView":26,"componentType":5126,"count":36,"max":[0.125,1],"min":[0,0],"type":"VEC2"},{"bufferView":27,"componentType":5126,"count":36,"max":[0.09375,2.25,1.375],"min":[-0.03125,2.125,-1.3125],"type":"VEC3"},{"bufferView":28,"componentType":5126,"count":36,"max":[1,1,1],"min":[-1,-1,-1],"type":"VEC3"},{"bufferView":29,"componentType":5126,"count":36,"max":[1,1],"min":[0,0],"type":"VEC2"}],"materials":[{"pbrMetallicRoughness":{"metallicFactor":0,"roughnessFactor":1,"baseColorTexture":{"index":0}},"alphaMode":"MASK","alphaCutoff":0.05,"doubleSided":true},{"pbrMetallicRoughness":{"metallicFactor":0,"roughnessFactor":1,"baseColorTexture":{"index":1}},"alphaMode":"MASK","alphaCutoff":0.05,"doubleSided":true},{"pbrMetallicRoughness":{"metallicFactor":0,"roughnessFactor":1,"baseColorTexture":{"index":2}},"alphaMode":"MASK","alphaCutoff":0.05,"doubleSided":true}],"textures":[{"sampler":0,"source":0,"name":"wood"},{"sampler":1,"source":1,"name":"dark metal"},{"sampler":2,"source":2,"name":"light metal"}],"samplers":[{"magFilter":9728,"minFilter":9728,"wrapS":33071,"wrapT":33071},{"magFilter":9728,"minFilter":9728,"wrapS":33071,"wrapT":33071},{"magFilter":9728,"minFilter":9728,"wrapS":33071,"wrapT":33071}],"images":[{"mimeType":"image/png","uri":"data:image/png;base64,"},{"mimeType":"image/png","uri":"data:image/png;base64,"},{"mimeType":"image/png","uri":"data:image/png;base64,"}],"meshes":[{"primitives":[{"mode":4,"attributes":{"POSITION":0,"NORMAL":1,"TEXCOORD_0":2},"material":0}]},{"primitives":[{"mode":4,"attributes":{"POSITION":3,"NORMAL":4,"TEXCOORD_0":5},"material":1}]},{"primitives":[{"mode":4,"attributes":{"POSITION":6,"NORMAL":7,"TEXCOORD_0":8},"material":1}]},{"primitives":[{"mode":4,"attributes":{"POSITION":9,"NORMAL":10,"TEXCOORD_0":11},"material":2}]},{"primitives":[{"mode":4,"attributes":{"POSITION":12,"NORMAL":13,"TEXCOORD_0":14},"material":2}]},{"primitives":[{"mode":4,"attributes":{"POSITION":15,"NORMAL":16,"TEXCOORD_0":17},"material":0}]},{"primitives":[{"mode":4,"attributes":{"POSITION":18,"NORMAL":19,"TEXCOORD_0":20},"material":0}]},{"primitives":[{"mode":4,"attributes":{"POSITION":21,"NORMAL":22,"TEXCOORD_0":23},"material":0}]},{"primitives":[{"mode":4,"attributes":{"POSITION":24,"NORMAL":25,"TEXCOORD_0":26},"material":0}]},{"primitives":[{"mode":4,"attributes":{"POSITION":27,"NORMAL":28,"TEXCOORD_0":29},"material":0}]}]}