{"asset":{"version":"2.0","generator":"Blockbench 3.9.3 glTF exporter"},"scenes":[{"nodes":[20,21],"name":"blockbench_export"}],"scene":0,"nodes":[{"rotation":[0,-0.7071067811865475,0,0.7071067811865476],"translation":[0,0,-5.551115123125783e-17],"name":"fb4f10db-031a-c53a-c5c2-0aac2ff49b2d","mesh":0},{"translation":[0,-0.9375,-5.551115123125783e-17],"name":"52942585-3229-d97f-2636-427560c31cca","mesh":1},{"translation":[0,-0.90625,-5.551115123125783e-17],"name":"08eeee49-d1c8-8403-e501-237fbcf2336f","mesh":2},{"rotation":[-0.016692416874629225,0.38231920253318435,-0.040299059207515336,0.923000203911279],"translation":[0,0,-5.551115123125783e-17],"name":"6e9d4138-4100-a9bb-bcc9-680ca79e0740","mesh":3},{"rotation":[-0.016692416874629225,-0.38231920253318435,0.040299059207515336,0.923000203911279],"translation":[0,0,-5.551115123125783e-17],"name":"70e2d5b8-fb36-3673-6394-4382a56b1b57","mesh":4},{"rotation":[0.02502869398120871,0.381864077761082,0.060424612457919864,0.9219014355138968],"translation":[0,0,-5.551115123125783e-17],"name":"0cba9fad-0adc-b3a2-8696-2442c2e0c0a3","mesh":5},{"rotation":[0.016692416874629225,-0.38231920253318435,-0.040299059207515336,0.923000203911279],"translation":[0,0,-5.551115123125783e-17],"name":"5e36d5f6-5c8c-c5db-3223-4b51d02703ab","mesh":6},{"translation":[0,-0.90625,-5.551115123125783e-17],"name":"76d5f1e0-da0c-5dad-d6c1-a25b473d68ca","mesh":7},{"rotation":[-0.05734067330306217,-0.031458170611882136,-0.47995893504376164,0.8748496164247679],"translation":[0.16250000000000023,2.4625,-0.0062500000000000056],"name":"flowerhead","children":[0,1,2,3,4,5,6,7]},{"rotation":[0.22215751524107424,-0.27906198037484553,0.009098418073699308,0.9341775357605949],"name":"923728d6-7e14-abfe-4ef2-f1e9526024a1","mesh":8},{"rotation":[0.26687767399252077,0.08414620738868192,0.08367385813378672,0.9563965748430145],"name":"4a72571e-9fbe-2ec7-f372-8be7525caeb4","mesh":9},{"translation":[-0.03568004968298878,1.1800855124563299,0.1736829068845478],"name":"leaf","children":[9,10]},{"rotation":[0.22215751524107424,-0.27906198037484553,0.009098418073699308,0.9341775357605949],"name":"3d3684a8-469f-cd9f-9ad0-0c3af5637bec","mesh":10},{"rotation":[0.26687767399252077,0.08414620738868192,0.08367385813378672,0.9563965748430145],"name":"3a6cfa20-1c8c-8196-f0b9-668acd8f6ec1","mesh":11},{"rotation":[0.10759982886859236,0.016561197646394715,-0.15121921623392834,0.9824870239354629],"translation":[0.039319950317011215,1.9300855124563299,0.22993290688454784],"name":"leaf3","children":[12,13]},{"rotation":[0.22215751524107424,-0.27906198037484553,0.009098418073699308,0.9341775357605949],"name":"3b1a7608-53c4-af62-febc-fd05c231e23b","mesh":12},{"rotation":[0.26687767399252077,0.08414620738868192,0.08367385813378672,0.9563965748430145],"name":"5f7cde42-c6fc-0e75-28b9-ba564dd4921e","mesh":13},{"rotation":[7.926195186853526e-17,0.9320078692827984,7.926195186853526e-17,-0.3624380382837017],"translation":[-0.08568004968298878,1.642585512456331,-0.1388170931154522],"name":"leaf2","children":[15,16]},{"name":"2f95a8cc-bbbc-db35-044c-f79740e91d66","mesh":14},{"rotation":[0,0,-0.2588190451025207,0.9659258262890683],"translation":[0.05625,2.3375,0],"name":"1c1d66ed-9e6c-5e8b-8d97-fb99c0bffa9e","mesh":15},{"translation":[0,-0.4375,0],"name":"Flower","children":[8,11,14,17,18,19]},{"name":"pot"}],"bufferViews":[{"buffer":0,"byteOffset":0,"byteLength":432,"target":34962,"byteStride":12},{"buffer":0,"byteOffset":432,"byteLength":432,"target":34962,"byteStride":12},{"buffer":0,"byteOffset":864,"byteLength":288,"target":34962,"byteStride":8},{"buffer":0,"byteOffset":1152,"byteLength":432,"target":34962,"byteStride":12},{"buffer":0,"byteOffset":1584,"byteLength":432,"target":34962,"byteStride":12},{"buffer":0,"byteOffset":2016,"byteLength":288,"target":34962,"byteStride":8},{"buffer":0,"byteOffset":2304,"byteLength":432,"target":34962,"byteStride":12},{"buffer":0,"byteOffset":2736,"byteLength":432,"target":34962,"byteStride":12},{"buffer":0,"byteOffset":3168,"byteLength":288,"target":34962,"byteStride":8},{"buffer":0,"byteOffset":3456,"byteLength":432,"target":34962,"byteStride":12},{"buffer":0,"byteOffset":3888,"byteLength":432,"target":34962,"byteStride":12},{"buffer":0,"byteOffset":4320,"byteLength":288,"target":34962,"byteStride":8},{"buffer":0,"byteOffset":4608,"byteLength":432,"target":34962,"byteStride":12},{"buffer":0,"byteOffset":5040,"byteLength":432,"target":34962,"byteStride":12},{"buffer":0,"byteOffset":5472,"byteLength":288,"target":34962,"byteStride":8},{"buffer":0,"byteOffset":5760,"byteLength":432,"target":34962,"byteStride":12},{"buffer":0,"byteOffset":6192,"byteLength":432,"target":34962,"byteStride":12},{"buffer":0,"byteOffset":6624,"byteLength":288,"target":34962,"byteStride":8},{"buffer":0,"byteOffset":6912,"byteLength":432,"target":34962,"byteStride":12},{"buffer":0,"byteOffset":7344,"byteLength":432,"target":34962,"byteStride":12},{"buffer":0,"byteOffset":7776,"byteLength":288,"target":34962,"byteStride":8},{"buffer":0,"byteOffset":8064,"byteLength":432,"target":34962,"byteStride":12},{"buffer":0,"byteOffset":8496,"byteLength":432,"target":34962,"byteStride":12},{"buffer":0,"byteOffset":8928,"byteLength":288,"target":34962,"byteStride":8},{"buffer":0,"byteOffset":9216,"byteLength":432,"target":34962,"byteStride":12},{"buffer":0,"byteOffset":9648,"byteLength":432,"target":34962,"byteStride":12},{"buffer":0,"byteOffset":10080,"byteLength":288,"target":34962,"byteStride":8},{"buffer":0,"byteOffset":10368,"byteLength":432,"target":34962,"byteStride":12},{"buffer":0,"byteOffset":10800,"byteLength":432,"target":34962,"byteStride":12},{"buffer":0,"byteOffset":11232,"byteLength":288,"target":34962,"byteStride":8},{"buffer":0,"byteOffset":11520,"byteLength":432,"target":34962,"byteStride":12},{"buffer":0,"byteOffset":11952,"byteLength":432,"target":34962,"byteStride":12},{"buffer":0,"byteOffset":12384,"byteLength":288,"target":34962,"byteStride":8},{"buffer":0,"byteOffset":12672,"byteLength":432,"target":34962,"byteStride":12},{"buffer":0,"byteOffset":13104,"byteLength":432,"target":34962,"byteStride":12},{"buffer":0,"byteOffset":13536,"byteLength":288,"target":34962,"byteStride":8},{"buffer":0,"byteOffset":13824,"byteLength":432,"target":34962,"byteStride":12},{"buffer":0,"byteOffset":14256,"byteLength":432,"target":34962,"byteStride":12},{"buffer":0,"byteOffset":14688,"byteLength":288,"target":34962,"byteStride":8},{"buffer":0,"byteOffset":14976,"byteLength":432,"target":34962,"byteStride":12},{"buffer":0,"byteOffset":15408,"byteLength":432,"target":34962,"byteStride":12},{"buffer":0,"byteOffset":15840,"byteLength":288,"target":34962,"byteStride":8},{"buffer":0,"byteOffset":16128,"byteLength":432,"target":34962,"byteStride":12},{"buffer":0,"byteOffset":16560,"byteLength":432,"target":34962,"byteStride":12},{"buffer":0,"byteOffset":16992,"byteLength":288,"target":34962,"byteStride":8},{"buffer":0,"byteOffset":17280,"byteLength":432,"target":34962,"byteStride":12},{"buffer":0,"byteOffset":17712,"byteLength":432,"target":34962,"byteStride":12},{"buffer":0,"byteOffset":18144,"byteLength":288,"target":34962,"byteStride":8}],"buffers":[{"byteLength":18432,"uri":"data:application/octet-stream;base64,"}],"accessors":[{"bufferView":0,"componentType":5126,"count":36,"max":[0.34375,0.03125,0.13750000298023224],"min":[-0.34375,-0.03125,-0.13750000298023224],"type":"VEC3"},{"bufferView":1,"componentType":5126,"count":36,"max":[1,1,1],"min":[-1,-1,-1],"type":"VEC3"},{"bufferView":2,"componentType":5126,"count":36,"max":[0.6875,1],"min":[0,0.7250000238418579],"type":"VEC2"},{"bufferView":3,"componentType":5126,"count":36,"max":[0.15625,0.9375,0.13750000298023224],"min":[-0.15625,0.875,-0.13750000298023224],"type":"VEC3"},{"bufferView":4,"componentType":5126,"count":36,"max":[1,1,1],"min":[-1,-1,-1],"type":"VEC3"},{"bufferView":5,"componentType":5126,"count":36,"max":[0.3125,1],"min":[0,0.7250000238418579],"type":"VEC2"},{"bufferView":6,"componentType":5126,"count":36,"max":[0.34375,0.9375,0.13750000298023224],"min":[-0.34375,0.875,-0.13750000298023224],"type":"VEC3"},{"bufferView":7,"componentType":5126,"count":36,"max":[1,1,1],"min":[-1,-1,-1],"type":"VEC3"},{"bufferView":8,"componentType":5126,"count":36,"max":[0.6875,1],"min":[0,0.7250000238418579],"type":"VEC2"},{"bufferView":9,"componentType":5126,"count":36,"max":[0.03125,0.03125,0.13750000298023224],"min":[-0.34375,-0.03125,-0.13750000298023224],"type":"VEC3"},{"bufferView":10,"componentType":5126,"count":36,"max":[1,1,1],"min":[-1,-1,-1],"type":"VEC3"},{"bufferView":11,"componentType":5126,"count":36,"max":[0.375,1],"min":[0,0.7250000238418579],"type":"VEC2"},{"bufferView":12,"componentType":5126,"count":36,"max":[0.34375,0.03125,0.13750000298023224],"min":[-0.03125,-0.03125,-0.13750000298023224],"type":"VEC3"},{"bufferView":13,"componentType":5126,"count":36,"max":[1,1,1],"min":[-1,-1,-1],"type":"VEC3"},{"bufferView":14,"componentType":5126,"count":36,"max":[0.375,1],"min":[0,0.7250000238418579],"type":"VEC2"},{"bufferView":15,"componentType":5126,"count":36,"max":[0.34375,0.03125,0.13750000298023224],"min":[-0.03125,-0.03125,-0.13750000298023224],"type":"VEC3"},{"bufferView":16,"componentType":5126,"count":36,"max":[1,1,1],"min":[-1,-1,-1],"type":"VEC3"},{"bufferView":17,"componentType":5126,"count":36,"max":[0.375,1],"min":[0,0.7250000238418579],"type":"VEC2"},{"bufferView":18,"componentType":5126,"count":36,"max":[0.03125,0.03125,0.13750000298023224],"min":[-0.34375,-0.03125,-0.13750000298023224],"type":"VEC3"},{"bufferView":19,"componentType":5126,"count":36,"max":[1,1,1],"min":[-1,-1,-1],"type":"VEC3"},{"bufferView":20,"componentType":5126,"count":36,"max":[0.375,1],"min":[0,0.7250000238418579],"type":"VEC2"},{"bufferView":21,"componentType":5126,"count":36,"max":[0.09375,1,0.09375],"min":[-0.09375,0.875,-0.09375],"type":"VEC3"},{"bufferView":22,"componentType":5126,"count":36,"max":[1,1,1],"min":[-1,-1,-1],"type":"VEC3"},{"bufferView":23,"componentType":5126,"count":36,"max":[1,1],"min":[0,0],"type":"VEC2"},{"bufferView":24,"componentType":5126,"count":36,"max":[0.09593049436807632,0.2638459801673889,0.018148021772503853],"min":[-0.09156950563192368,0.01384599320590496,0.0056480225175619125],"type":"VEC3"},{"bufferView":25,"componentType":5126,"count":36,"max":[1,1,1],"min":[-1,-1,-1],"type":"VEC3"},{"bufferView":26,"componentType":5126,"count":36,"max":[0.1875,1],"min":[0,0.75],"type":"VEC2"},{"bufferView":27,"componentType":5126,"count":36,"max":[0.016569508239626884,0.048288848251104355,0.02507680654525757],"min":[-0.020930491387844086,-0.32671114802360535,-0.012423194013535976],"type":"VEC3"},{"bufferView":28,"componentType":5126,"count":36,"max":[1,1,1],"min":[-1,-1,-1],"type":"VEC3"},{"bufferView":29,"componentType":5126,"count":36,"max":[0.03750000149011612,1],"min":[0,0.625],"type":"VEC2"},{"bufferView":30,"componentType":5126,"count":36,"max":[0.09593049436807632,0.2638459801673889,0.018148021772503853],"min":[-0.09156950563192368,0.01384599320590496,0.0056480225175619125],"type":"VEC3"},{"bufferView":31,"componentType":5126,"count":36,"max":[1,1,1],"min":[-1,-1,-1],"type":"VEC3"},{"bufferView":32,"componentType":5126,"count":36,"max":[0.1875,1],"min":[0,0.75],"type":"VEC2"},{"bufferView":33,"componentType":5126,"count":36,"max":[0.016569508239626884,0.048288848251104355,0.02507680654525757],"min":[-0.020930491387844086,-0.32671114802360535,-0.012423194013535976],"type":"VEC3"},{"bufferView":34,"componentType":5126,"count":36,"max":[1,1,1],"min":[-1,-1,-1],"type":"VEC3"},{"bufferView":35,"componentType":5126,"count":36,"max":[0.03750000149011612,1],"min":[0,0.625],"type":"VEC2"},{"bufferView":36,"componentType":5126,"count":36,"max":[0.09593049436807632,0.2638459801673889,0.018148021772503853],"min":[-0.09156950563192368,0.01384599320590496,0.0056480225175619125],"type":"VEC3"},{"bufferView":37,"componentType":5126,"count":36,"max":[1,1,1],"min":[-1,-1,-1],"type":"VEC3"},{"bufferView":38,"componentType":5126,"count":36,"max":[0.1875,1],"min":[0,0.75],"type":"VEC2"},{"bufferView":39,"componentType":5126,"count":36,"max":[0.016569508239626884,0.048288848251104355,0.02507680654525757],"min":[-0.020930491387844086,-0.32671114802360535,-0.012423194013535976],"type":"VEC3"},{"bufferView":40,"componentType":5126,"count":36,"max":[1,1,1],"min":[-1,-1,-1],"type":"VEC3"},{"bufferView":41,"componentType":5126,"count":36,"max":[0.03750000149011612,1],"min":[0,0.625],"type":"VEC2"},{"bufferView":42,"componentType":5126,"count":36,"max":[0.03125,2.25,0.03125],"min":[-0.03125,0.4375,-0.03125],"type":"VEC3"},{"bufferView":43,"componentType":5126,"count":36,"max":[1,1,1],"min":[-1,-1,-1],"type":"VEC3"},{"bufferView":44,"componentType":5126,"count":36,"max":[0.0625,1],"min":[0,0],"type":"VEC2"},{"bufferView":45,"componentType":5126,"count":36,"max":[0.03125,0.125,0.03125],"min":[-0.03125,-0.125,-0.03125],"type":"VEC3"},{"bufferView":46,"componentType":5126,"count":36,"max":[1,1,1],"min":[-1,-1,-1],"type":"VEC3"},{"bufferView":47,"componentType":5126,"count":36,"max":[0.0625,1],"min":[0,0.75],"type":"VEC2"}],"materials":[{"pbrMetallicRoughness":{"metallicFactor":0,"roughnessFactor":1,"baseColorTexture":{"index":0}},"alphaMode":"MASK","alphaCutoff":0.05,"doubleSided":true},{"pbrMetallicRoughness":{"metallicFactor":0,"roughnessFactor":1,"baseColorTexture":{"index":1}},"alphaMode":"MASK","alphaCutoff":0.05,"doubleSided":true},{"pbrMetallicRoughness":{"metallicFactor":0,"roughnessFactor":1,"baseColorTexture":{"index":2}},"alphaMode":"MASK","alphaCutoff":0.05,"doubleSided":true}],"textures":[{"sampler":0,"source":0,"name":"leaf"},{"sampler":1,"source":1,"name":"pollen"},{"sampler":2,"source":2,"name":"stem"}],"samplers":[{"magFilter":9728,"minFilter":9728,"wrapS":33071,"wrapT":33071},{"magFilter":9728,"minFilter":9728,"wrapS":33071,"wrapT":33071},{"magFilter":9728,"minFilter":9728,"wrapS":33071,"wrapT":33071}],"images":[{"mimeType":"image/png","uri":"data:image/png;base64,"},{"mimeType":"image/png","uri":"data:image/png;base64,"},{"mimeType":"image/png","uri":"data:image/png;base64,"}],"meshes":[{"primitives":[{"mode":4,"attributes":{"POSITION":0,"NORMAL":1,"TEXCOORD_0":2},"material":0}]},{"primitives":[{"mode":4,"attributes":{"POSITION":3,"NORMAL":4,"TEXCOORD_0":5},"material":0}]},{"primitives":[{"mode":4,"attributes":{"POSITION":6,"NORMAL":7,"TEXCOORD_0":8},"material":0}]},{"primitives":[{"mode":4,"attributes":{"POSITION":9,"NORMAL":10,"TEXCOORD_0":11},"material":0}]},{"primitives":[{"mode":4,"attributes":{"POSITION":12,"NORMAL":13,"TEXCOORD_0":14},"material":0}]},{"primitives":[{"mode":4,"attributes":{"POSITION":15,"NORMAL":16,"TEXCOORD_0":17},"material":0}]},{"primitives":[{"mode":4,"attributes":{"POSITION":18,"NORMAL":19,"TEXCOORD_0":20},"material":0}]},{"primitives":[{"mode":4,"attributes":{"POSITION":21,"NORMAL":22,"TEXCOORD_0":23},"material":1}]},{"primitives":[{"mode":4,"attributes":{"POSITION":24,"NORMAL":25,"TEXCOORD_0":26},"material":2}]},{"primitives":[{"mode":4,"attributes":{"POSITION":27,"NORMAL":28,"TEXCOORD_0":29},"material":2}]},{"primitives":[{"mode":4,"attributes":{"POSITION":30,"NORMAL":31,"TEXCOORD_0":32},"material":2}]},{"primitives":[{"mode":4,"attributes":{"POSITION":33,"NORMAL":34,"TEXCOORD_0":35},"material":2}]},{"primitives":[{"mode":4,"attributes":{"POSITION":36,"NORMAL":37,"TEXCOORD_0":38},"material":2}]},{"primitives":[{"mode":4,"attributes":{"POSITION":39,"NORMAL":40,"TEXCOORD_0":41},"material":2}]},{"primitives":[{"mode":4,"attributes":{"POSITION":42,"NORMAL":43,"TEXCOORD_0":44},"material":2}]},{"primitives":[{"mode":4,"attributes":{"POSITION":45,"NORMAL":46,"TEXCOORD_0":47},"material":2}]}]}