{"asset":{"version":"2.0","generator":"Blockbench 3.9.2 glTF exporter"},"scenes":[{"nodes":[12,27],"name":"blockbench_export"}],"scene":0,"nodes":[{"name":"2f95a8cc-bbbc-db35-044c-f79740e91d66","mesh":0},{"rotation":[0,-0.7071067811865475,0,0.7071067811865476],"translation":[0,0.9062499999999999,0],"name":"fb4f10db-031a-c53a-c5c2-0aac2ff49b2d","mesh":1},{"translation":[0,-0.03125000000000011,0],"name":"52942585-3229-d97f-2636-427560c31cca","mesh":2},{"name":"08eeee49-d1c8-8403-e501-237fbcf2336f","mesh":3},{"rotation":[-0.016692416874629225,0.38231920253318435,-0.040299059207515336,0.923000203911279],"translation":[0,0.9062499999999999,0],"name":"6e9d4138-4100-a9bb-bcc9-680ca79e0740","mesh":4},{"rotation":[-0.016692416874629225,-0.38231920253318435,0.040299059207515336,0.923000203911279],"translation":[0,0.9062499999999999,0],"name":"70e2d5b8-fb36-3673-6394-4382a56b1b57","mesh":5},{"rotation":[0.02502869398120871,0.381864077761082,0.060424612457919864,0.9219014355138968],"translation":[0,0.9062499999999999,0],"name":"0cba9fad-0adc-b3a2-8696-2442c2e0c0a3","mesh":6},{"rotation":[0.016692416874629225,-0.38231920253318435,-0.040299059207515336,0.923000203911279],"translation":[0,0.9062499999999999,0],"name":"5e36d5f6-5c8c-c5db-3223-4b51d02703ab","mesh":7},{"name":"76d5f1e0-da0c-5dad-d6c1-a25b473d68ca","mesh":8},{"rotation":[-0.06440950873710423,-0.011357134204529098,-0.1732763835890688,0.9826992040177905],"translation":[-0.29999999999999993,0.61875,0.09374999999999997],"name":"bone","children":[1,2,3,4,5,6,7,8]},{"rotation":[0.26687767399252077,0.08414620738868192,0.08367385813378672,0.9563965748430145],"translation":[-0.03568004968298878,1.1800855124563299,0.1736829068845478],"name":"4a72571e-9fbe-2ec7-f372-8be7525caeb4","mesh":9},{"rotation":[0.22215751524107424,-0.27906198037484553,0.009098418073699308,0.9341775357605949],"translation":[-0.03568004968298878,1.1800855124563299,0.1736829068845478],"name":"923728d6-7e14-abfe-4ef2-f1e9526024a1","mesh":10},{"name":"bone","children":[0,9,10,11]},{"name":"06aabd16-3349-5bdf-8498-73f4c8db711b","mesh":11},{"rotation":[0,0,0.766044443118978,0.6427876096865394],"name":"333c50d1-6a4a-8e58-b46b-c3d28cb64dc6","mesh":12},{"rotation":[0,0,-0.766044443118978,0.6427876096865394],"name":"f6d80f8a-b22c-4a03-d54f-698e41473893","mesh":13},{"rotation":[-0.5416752204197022,-0.45451947767204315,0.5416752204197021,0.45451947767204354],"name":"8da8971f-34cf-860c-c80f-5ca8d388a872","mesh":14},{"rotation":[-0.4425947316851784,-0.5514616065371412,0.4425947316851784,0.5514616065371416],"name":"c386d314-3f14-a0c6-fb75-f23cae18e5c2","mesh":15},{"name":"ddc9255b-4930-0156-4b30-767f436a6501","mesh":16},{"name":"672104b6-c339-0f69-8119-120f28f9a933","mesh":17},{"rotation":[-8.655439570928007e-17,-0.7071067811865475,-8.655439570928008e-17,0.7071067811865476],"name":"003d9cf4-38b9-7fdf-0eeb-8ae42016a5ac","mesh":18},{"rotation":[-8.655439570928007e-17,-0.7071067811865475,-8.655439570928008e-17,0.7071067811865476],"name":"c23cc15e-de04-6b69-7557-495be05f0663","mesh":19},{"name":"9e5a5c5c-ea0d-2c0c-b306-363fd2e89859","mesh":20},{"rotation":[-0.058881566337787496,0.06425795390070164,0.6403416087687966,0.7631294127377698],"name":"41c2106c-e248-eab7-d6b4-27253bdf61c8","mesh":21},{"rotation":[-0.045139104915561355,0.04715685072569491,0.7503180735749883,0.6578460922615372],"name":"dafac9e2-76f0-6bd6-80f7-5d42d4eff01f","mesh":22},{"rotation":[0.05602263155122213,-0.06676517241775072,0.6403416087687968,0.7631294127377697],"name":"e401ad3e-77e1-041a-be5e-d71aa57c6cb7","mesh":23},{"rotation":[0.056022631551222064,-0.06676517241775083,0.7631294127377698,0.6403416087687966],"name":"8b4e8507-3121-e9c5-9a9f-4c4c19618129","mesh":24},{"name":"bone","children":[13,14,15,16,17,18,19,20,21,22,23,24,25,26]}],"bufferViews":[{"buffer":0,"byteOffset":0,"byteLength":432,"target":34962,"byteStride":12},{"buffer":0,"byteOffset":432,"byteLength":432,"target":34962,"byteStride":12},{"buffer":0,"byteOffset":864,"byteLength":288,"target":34962,"byteStride":8},{"buffer":0,"byteOffset":1152,"byteLength":432,"target":34962,"byteStride":12},{"buffer":0,"byteOffset":1584,"byteLength":432,"target":34962,"byteStride":12},{"buffer":0,"byteOffset":2016,"byteLength":288,"target":34962,"byteStride":8},{"buffer":0,"byteOffset":2304,"byteLength":432,"target":34962,"byteStride":12},{"buffer":0,"byteOffset":2736,"byteLength":432,"target":34962,"byteStride":12},{"buffer":0,"byteOffset":3168,"byteLength":288,"target":34962,"byteStride":8},{"buffer":0,"byteOffset":3456,"byteLength":432,"target":34962,"byteStride":12},{"buffer":0,"byteOffset":3888,"byteLength":432,"target":34962,"byteStride":12},{"buffer":0,"byteOffset":4320,"byteLength":288,"target":34962,"byteStride":8},{"buffer":0,"byteOffset":4608,"byteLength":432,"target":34962,"byteStride":12},{"buffer":0,"byteOffset":5040,"byteLength":432,"target":34962,"byteStride":12},{"buffer":0,"byteOffset":5472,"byteLength":288,"target":34962,"byteStride":8},{"buffer":0,"byteOffset":5760,"byteLength":432,"target":34962,"byteStride":12},{"buffer":0,"byteOffset":6192,"byteLength":432,"target":34962,"byteStride":12},{"buffer":0,"byteOffset":6624,"byteLength":288,"target":34962,"byteStride":8},{"buffer":0,"byteOffset":6912,"byteLength":432,"target":34962,"byteStride":12},{"buffer":0,"byteOffset":7344,"byteLength":432,"target":34962,"byteStride":12},{"buffer":0,"byteOffset":7776,"byteLength":288,"target":34962,"byteStride":8},{"buffer":0,"byteOffset":8064,"byteLength":432,"target":34962,"byteStride":12},{"buffer":0,"byteOffset":8496,"byteLength":432,"target":34962,"byteStride":12},{"buffer":0,"byteOffset":8928,"byteLength":288,"target":34962,"byteStride":8},{"buffer":0,"byteOffset":9216,"byteLength":432,"target":34962,"byteStride":12},{"buffer":0,"byteOffset":9648,"byteLength":432,"target":34962,"byteStride":12},{"buffer":0,"byteOffset":10080,"byteLength":288,"target":34962,"byteStride":8},{"buffer":0,"byteOffset":10368,"byteLength":432,"target":34962,"byteStride":12},{"buffer":0,"byteOffset":10800,"byteLength":432,"target":34962,"byteStride":12},{"buffer":0,"byteOffset":11232,"byteLength":288,"target":34962,"byteStride":8},{"buffer":0,"byteOffset":11520,"byteLength":432,"target":34962,"byteStride":12},{"buffer":0,"byteOffset":11952,"byteLength":432,"target":34962,"byteStride":12},{"buffer":0,"byteOffset":12384,"byteLength":288,"target":34962,"byteStride":8},{"buffer":0,"byteOffset":12672,"byteLength":432,"target":34962,"byteStride":12},{"buffer":0,"byteOffset":13104,"byteLength":432,"target":34962,"byteStride":12},{"buffer":0,"byteOffset":13536,"byteLength":288,"target":34962,"byteStride":8},{"buffer":0,"byteOffset":13824,"byteLength":432,"target":34962,"byteStride":12},{"buffer":0,"byteOffset":14256,"byteLength":432,"target":34962,"byteStride":12},{"buffer":0,"byteOffset":14688,"byteLength":288,"target":34962,"byteStride":8},{"buffer":0,"byteOffset":14976,"byteLength":432,"target":34962,"byteStride":12},{"buffer":0,"byteOffset":15408,"byteLength":432,"target":34962,"byteStride":12},{"buffer":0,"byteOffset":15840,"byteLength":288,"target":34962,"byteStride":8},{"buffer":0,"byteOffset":16128,"byteLength":432,"target":34962,"byteStride":12},{"buffer":0,"byteOffset":16560,"byteLength":432,"target":34962,"byteStride":12},{"buffer":0,"byteOffset":16992,"byteLength":288,"target":34962,"byteStride":8},{"buffer":0,"byteOffset":17280,"byteLength":432,"target":34962,"byteStride":12},{"buffer":0,"byteOffset":17712,"byteLength":432,"target":34962,"byteStride":12},{"buffer":0,"byteOffset":18144,"byteLength":288,"target":34962,"byteStride":8},{"buffer":0,"byteOffset":18432,"byteLength":432,"target":34962,"byteStride":12},{"buffer":0,"byteOffset":18864,"byteLength":432,"target":34962,"byteStride":12},{"buffer":0,"byteOffset":19296,"byteLength":288,"target":34962,"byteStride":8},{"buffer":0,"byteOffset":19584,"byteLength":432,"target":34962,"byteStride":12},{"buffer":0,"byteOffset":20016,"byteLength":432,"target":34962,"byteStride":12},{"buffer":0,"byteOffset":20448,"byteLength":288,"target":34962,"byteStride":8},{"buffer":0,"byteOffset":20736,"byteLength":432,"target":34962,"byteStride":12},{"buffer":0,"byteOffset":21168,"byteLength":432,"target":34962,"byteStride":12},{"buffer":0,"byteOffset":21600,"byteLength":288,"target":34962,"byteStride":8},{"buffer":0,"byteOffset":21888,"byteLength":432,"target":34962,"byteStride":12},{"buffer":0,"byteOffset":22320,"byteLength":432,"target":34962,"byteStride":12},{"buffer":0,"byteOffset":22752,"byteLength":288,"target":34962,"byteStride":8},{"buffer":0,"byteOffset":23040,"byteLength":432,"target":34962,"byteStride":12},{"buffer":0,"byteOffset":23472,"byteLength":432,"target":34962,"byteStride":12},{"buffer":0,"byteOffset":23904,"byteLength":288,"target":34962,"byteStride":8},{"buffer":0,"byteOffset":24192,"byteLength":432,"target":34962,"byteStride":12},{"buffer":0,"byteOffset":24624,"byteLength":432,"target":34962,"byteStride":12},{"buffer":0,"byteOffset":25056,"byteLength":288,"target":34962,"byteStride":8},{"buffer":0,"byteOffset":25344,"byteLength":432,"target":34962,"byteStride":12},{"buffer":0,"byteOffset":25776,"byteLength":432,"target":34962,"byteStride":12},{"buffer":0,"byteOffset":26208,"byteLength":288,"target":34962,"byteStride":8},{"buffer":0,"byteOffset":26496,"byteLength":432,"target":34962,"byteStride":12},{"buffer":0,"byteOffset":26928,"byteLength":432,"target":34962,"byteStride":12},{"buffer":0,"byteOffset":27360,"byteLength":288,"target":34962,"byteStride":8},{"buffer":0,"byteOffset":27648,"byteLength":432,"target":34962,"byteStride":12},{"buffer":0,"byteOffset":28080,"byteLength":432,"target":34962,"byteStride":12},{"buffer":0,"byteOffset":28512,"byteLength":288,"target":34962,"byteStride":8}],"buffers":[{"byteLength":28800,"uri":"data:application/octet-stream;base64,"}],"accessors":[{"bufferView":0,"componentType":5126,"count":36,"max":[0.03125,1.5,0.03125],"min":[-0.03125,0.4375,-0.03125],"type":"VEC3"},{"bufferView":1,"componentType":5126,"count":36,"max":[1,1,1],"min":[-1,-1,-1],"type":"VEC3"},{"bufferView":2,"componentType":5126,"count":36,"max":[0.0625,1],"min":[0,0],"type":"VEC2"},{"bufferView":3,"componentType":5126,"count":36,"max":[0.34375,0.03125,0.13750000298023224],"min":[-0.34375,-0.03125,-0.13750000298023224],"type":"VEC3"},{"bufferView":4,"componentType":5126,"count":36,"max":[1,1,1],"min":[-1,-1,-1],"type":"VEC3"},{"bufferView":5,"componentType":5126,"count":36,"max":[0.6875,1],"min":[0,0.7250000238418579],"type":"VEC2"},{"bufferView":6,"componentType":5126,"count":36,"max":[0.15625,0.9375,0.13750000298023224],"min":[-0.15625,0.875,-0.13750000298023224],"type":"VEC3"},{"bufferView":7,"componentType":5126,"count":36,"max":[1,1,1],"min":[-1,-1,-1],"type":"VEC3"},{"bufferView":8,"componentType":5126,"count":36,"max":[0.3125,1],"min":[0,0.7250000238418579],"type":"VEC2"},{"bufferView":9,"componentType":5126,"count":36,"max":[0.34375,0.9375,0.13750000298023224],"min":[-0.34375,0.875,-0.13750000298023224],"type":"VEC3"},{"bufferView":10,"componentType":5126,"count":36,"max":[1,1,1],"min":[-1,-1,-1],"type":"VEC3"},{"bufferView":11,"componentType":5126,"count":36,"max":[0.6875,1],"min":[0,0.7250000238418579],"type":"VEC2"},{"bufferView":12,"componentType":5126,"count":36,"max":[0.03125,0.03125,0.13750000298023224],"min":[-0.34375,-0.03125,-0.13750000298023224],"type":"VEC3"},{"bufferView":13,"componentType":5126,"count":36,"max":[1,1,1],"min":[-1,-1,-1],"type":"VEC3"},{"bufferView":14,"componentType":5126,"count":36,"max":[0.375,1],"min":[0,0.7250000238418579],"type":"VEC2"},{"bufferView":15,"componentType":5126,"count":36,"max":[0.34375,0.03125,0.13750000298023224],"min":[-0.03125,-0.03125,-0.13750000298023224],"type":"VEC3"},{"bufferView":16,"componentType":5126,"count":36,"max":[1,1,1],"min":[-1,-1,-1],"type":"VEC3"},{"bufferView":17,"componentType":5126,"count":36,"max":[0.375,1],"min":[0,0.7250000238418579],"type":"VEC2"},{"bufferView":18,"componentType":5126,"count":36,"max":[0.34375,0.03125,0.13750000298023224],"min":[-0.03125,-0.03125,-0.13750000298023224],"type":"VEC3"},{"bufferView":19,"componentType":5126,"count":36,"max":[1,1,1],"min":[-1,-1,-1],"type":"VEC3"},{"bufferView":20,"componentType":5126,"count":36,"max":[0.375,1],"min":[0,0.7250000238418579],"type":"VEC2"},{"bufferView":21,"componentType":5126,"count":36,"max":[0.03125,0.03125,0.13750000298023224],"min":[-0.34375,-0.03125,-0.13750000298023224],"type":"VEC3"},{"bufferView":22,"componentType":5126,"count":36,"max":[1,1,1],"min":[-1,-1,-1],"type":"VEC3"},{"bufferView":23,"componentType":5126,"count":36,"max":[0.375,1],"min":[0,0.7250000238418579],"type":"VEC2"},{"bufferView":24,"componentType":5126,"count":36,"max":[0.09375,1,0.09375],"min":[-0.09375,0.875,-0.09375],"type":"VEC3"},{"bufferView":25,"componentType":5126,"count":36,"max":[1,1,1],"min":[-1,-1,-1],"type":"VEC3"},{"bufferView":26,"componentType":5126,"count":36,"max":[0.1875,1],"min":[0,0.8125],"type":"VEC2"},{"bufferView":27,"componentType":5126,"count":36,"max":[0.016569508239626884,0.048288848251104355,0.02507680654525757],"min":[-0.020930491387844086,-0.32671114802360535,-0.012423194013535976],"type":"VEC3"},{"bufferView":28,"componentType":5126,"count":36,"max":[1,1,1],"min":[-1,-1,-1],"type":"VEC3"},{"bufferView":29,"componentType":5126,"count":36,"max":[0.03750000149011612,1],"min":[0,0.625],"type":"VEC2"},{"bufferView":30,"componentType":5126,"count":36,"max":[0.09593049436807632,0.2638459801673889,0.018148021772503853],"min":[-0.09156950563192368,0.01384599320590496,0.0056480225175619125],"type":"VEC3"},{"bufferView":31,"componentType":5126,"count":36,"max":[1,1,1],"min":[-1,-1,-1],"type":"VEC3"},{"bufferView":32,"componentType":5126,"count":36,"max":[0.1875,1],"min":[0,0.75],"type":"VEC2"},{"bufferView":33,"componentType":5126,"count":36,"max":[0.34375,0.0625,0.34375],"min":[-0.34375,0,-0.34375],"type":"VEC3"},{"bufferView":34,"componentType":5126,"count":36,"max":[1,1,1],"min":[-1,-1,-1],"type":"VEC3"},{"bufferView":35,"componentType":5126,"count":36,"max":[0.6875,1],"min":[0,0.3125],"type":"VEC2"},{"bufferView":36,"componentType":5126,"count":36,"max":[0.65625,0.26875001192092896,0.28125],"min":[0.09375,0.20624999701976776,-0.28125],"type":"VEC3"},{"bufferView":37,"componentType":5126,"count":36,"max":[1,1,1],"min":[-1,-1,-1],"type":"VEC3"},{"bufferView":38,"componentType":5126,"count":36,"max":[0.5625,1],"min":[0,0.4375],"type":"VEC2"},{"bufferView":39,"componentType":5126,"count":36,"max":[-0.09375,0.26875001192092896,0.28125],"min":[-0.65625,0.20624999701976776,-0.28125],"type":"VEC3"},{"bufferView":40,"componentType":5126,"count":36,"max":[1,1,1],"min":[-1,-1,-1],"type":"VEC3"},{"bufferView":41,"componentType":5126,"count":36,"max":[0.5625,1],"min":[0,0.4375],"type":"VEC2"},{"bufferView":42,"componentType":5126,"count":36,"max":[0.65625,0.26875001192092896,0.28125],"min":[0.09375,0.20624999701976776,-0.28125],"type":"VEC3"},{"bufferView":43,"componentType":5126,"count":36,"max":[1,1,1],"min":[-1,-1,-1],"type":"VEC3"},{"bufferView":44,"componentType":5126,"count":36,"max":[0.5625,1],"min":[0,0.4375],"type":"VEC2"},{"bufferView":45,"componentType":5126,"count":36,"max":[0.65625,-0.20000000298023224,0.28125],"min":[0.09375,-0.26249998807907104,-0.28125],"type":"VEC3"},{"bufferView":46,"componentType":5126,"count":36,"max":[1,1,1],"min":[-1,-1,-1],"type":"VEC3"},{"bufferView":47,"componentType":5126,"count":36,"max":[0.5625,1],"min":[0,0.4375],"type":"VEC2"},{"bufferView":48,"componentType":5126,"count":36,"max":[0.40625,0.6875,-0.28125],"min":[-0.40625,0.5625,-0.40625],"type":"VEC3"},{"bufferView":49,"componentType":5126,"count":36,"max":[1,1,1],"min":[-1,-1,-1],"type":"VEC3"},{"bufferView":50,"componentType":5126,"count":36,"max":[0.8125,1],"min":[0,0.875],"type":"VEC2"},{"bufferView":51,"componentType":5126,"count":36,"max":[0.40625,0.6875,0.40625],"min":[-0.40625,0.5625,0.28125],"type":"VEC3"},{"bufferView":52,"componentType":5126,"count":36,"max":[1,1,1],"min":[-1,-1,-1],"type":"VEC3"},{"bufferView":53,"componentType":5126,"count":36,"max":[0.8125,1],"min":[0,0.875],"type":"VEC2"},{"bufferView":54,"componentType":5126,"count":36,"max":[0.40625,0.6875,-0.28125],"min":[-0.40625,0.5625,-0.40625],"type":"VEC3"},{"bufferView":55,"componentType":5126,"count":36,"max":[1,1,1],"min":[-1,-1,-1],"type":"VEC3"},{"bufferView":56,"componentType":5126,"count":36,"max":[0.8125,1],"min":[0,0.875],"type":"VEC2"},{"bufferView":57,"componentType":5126,"count":36,"max":[0.40625,0.6875,0.40625],"min":[-0.40625,0.5625,0.28125],"type":"VEC3"},{"bufferView":58,"componentType":5126,"count":36,"max":[1,1,1],"min":[-1,-1,-1],"type":"VEC3"},{"bufferView":59,"componentType":5126,"count":36,"max":[0.8125,1],"min":[0,0.875],"type":"VEC2"},{"bufferView":60,"componentType":5126,"count":36,"max":[0.28125,0.5625,0.28125],"min":[-0.28125,0.1875,-0.28125],"type":"VEC3"},{"bufferView":61,"componentType":5126,"count":36,"max":[1,1,1],"min":[-1,-1,-1],"type":"VEC3"},{"bufferView":62,"componentType":5126,"count":36,"max":[0.5625,1],"min":[0,0.4375],"type":"VEC2"},{"bufferView":63,"componentType":5126,"count":36,"max":[0.6875,-0.15625,-0.17499999701976776],"min":[0.125,-0.21875,-0.23749999701976776],"type":"VEC3"},{"bufferView":64,"componentType":5126,"count":36,"max":[1,1,1],"min":[-1,-1,-1],"type":"VEC3"},{"bufferView":65,"componentType":5126,"count":36,"max":[0.5625,1],"min":[0,0.9375],"type":"VEC2"},{"bufferView":66,"componentType":5126,"count":36,"max":[0.6875,0.26249998807907104,-0.1875],"min":[0.125,0.20000000298023224,-0.25],"type":"VEC3"},{"bufferView":67,"componentType":5126,"count":36,"max":[1,1,1],"min":[-1,-1,-1],"type":"VEC3"},{"bufferView":68,"componentType":5126,"count":36,"max":[0.5625,1],"min":[0,0.9375],"type":"VEC2"},{"bufferView":69,"componentType":5126,"count":36,"max":[0.6875,-0.17499999701976776,0.23749999701976776],"min":[0.125,-0.23749999701976776,0.17499999701976776],"type":"VEC3"},{"bufferView":70,"componentType":5126,"count":36,"max":[1,1,1],"min":[-1,-1,-1],"type":"VEC3"},{"bufferView":71,"componentType":5126,"count":36,"max":[0.5625,1],"min":[0,0.9375],"type":"VEC2"},{"bufferView":72,"componentType":5126,"count":36,"max":[0.75,0.23125000298023224,0.23749999701976776],"min":[0.1875,0.16875000298023224,0.17499999701976776],"type":"VEC3"},{"bufferView":73,"componentType":5126,"count":36,"max":[1,1,1],"min":[-1,-1,-1],"type":"VEC3"},{"bufferView":74,"componentType":5126,"count":36,"max":[0.5625,1],"min":[0,0.9375],"type":"VEC2"}],"materials":[{"pbrMetallicRoughness":{"metallicFactor":0,"roughnessFactor":1,"baseColorTexture":{"index":0}},"alphaMode":"MASK","alphaCutoff":0.05,"doubleSided":true},{"pbrMetallicRoughness":{"metallicFactor":0,"roughnessFactor":1,"baseColorTexture":{"index":1}},"alphaMode":"MASK","alphaCutoff":0.05,"doubleSided":true},{"pbrMetallicRoughness":{"metallicFactor":0,"roughnessFactor":1,"baseColorTexture":{"index":2}},"alphaMode":"MASK","alphaCutoff":0.05,"doubleSided":true},{"pbrMetallicRoughness":{"metallicFactor":0,"roughnessFactor":1,"baseColorTexture":{"index":3}},"alphaMode":"MASK","alphaCutoff":0.05,"doubleSided":true},{"pbrMetallicRoughness":{"metallicFactor":0,"roughnessFactor":1,"baseColorTexture":{"index":4}},"alphaMode":"MASK","alphaCutoff":0.05,"doubleSided":true}],"textures":[{"sampler":0,"source":0,"name":"stem"},{"sampler":1,"source":1,"name":"leaf"},{"sampler":2,"source":2,"name":"pollen"},{"sampler":3,"source":3,"name":"clay"},{"sampler":4,"source":4,"name":"dirt"}],"samplers":[{"magFilter":9728,"minFilter":9728,"wrapS":33071,"wrapT":33071},{"magFilter":9728,"minFilter":9728,"wrapS":33071,"wrapT":33071},{"magFilter":9728,"minFilter":9728,"wrapS":33071,"wrapT":33071},{"magFilter":9728,"minFilter":9728,"wrapS":33071,"wrapT":33071},{"magFilter":9728,"minFilter":9728,"wrapS":33071,"wrapT":33071}],"images":[{"mimeType":"image/png","uri":"data:image/png;base64,"},{"mimeType":"image/png","uri":"data:image/png;base64,"},{"mimeType":"image/png","uri":"data:image/png;base64,"},{"mimeType":"image/png","uri":"data:image/png;base64,"},{"mimeType":"image/png","uri":"data:image/png;base64,"}],"meshes":[{"primitives":[{"mode":4,"attributes":{"POSITION":0,"NORMAL":1,"TEXCOORD_0":2},"material":0}]},{"primitives":[{"mode":4,"attributes":{"POSITION":3,"NORMAL":4,"TEXCOORD_0":5},"material":1}]},{"primitives":[{"mode":4,"attributes":{"POSITION":6,"NORMAL":7,"TEXCOORD_0":8},"material":1}]},{"primitives":[{"mode":4,"attributes":{"POSITION":9,"NORMAL":10,"TEXCOORD_0":11},"material":1}]},{"primitives":[{"mode":4,"attributes":{"POSITION":12,"NORMAL":13,"TEXCOORD_0":14},"material":1}]},{"primitives":[{"mode":4,"attributes":{"POSITION":15,"NORMAL":16,"TEXCOORD_0":17},"material":1}]},{"primitives":[{"mode":4,"attributes":{"POSITION":18,"NORMAL":19,"TEXCOORD_0":20},"material":1}]},{"primitives":[{"mode":4,"attributes":{"POSITION":21,"NORMAL":22,"TEXCOORD_0":23},"material":1}]},{"primitives":[{"mode":4,"attributes":{"POSITION":24,"NORMAL":25,"TEXCOORD_0":26},"material":2}]},{"primitives":[{"mode":4,"attributes":{"POSITION":27,"NORMAL":28,"TEXCOORD_0":29},"material":0}]},{"primitives":[{"mode":4,"attributes":{"POSITION":30,"NORMAL":31,"TEXCOORD_0":32},"material":0}]},{"primitives":[{"mode":4,"attributes":{"POSITION":33,"NORMAL":34,"TEXCOORD_0":35},"material":3}]},{"primitives":[{"mode":4,"attributes":{"POSITION":36,"NORMAL":37,"TEXCOORD_0":38},"material":3}]},{"primitives":[{"mode":4,"attributes":{"POSITION":39,"NORMAL":40,"TEXCOORD_0":41},"material":3}]},{"primitives":[{"mode":4,"attributes":{"POSITION":42,"NORMAL":43,"TEXCOORD_0":44},"material":3}]},{"primitives":[{"mode":4,"attributes":{"POSITION":45,"NORMAL":46,"TEXCOORD_0":47},"material":3}]},{"primitives":[{"mode":4,"attributes":{"POSITION":48,"NORMAL":49,"TEXCOORD_0":50},"material":3}]},{"primitives":[{"mode":4,"attributes":{"POSITION":51,"NORMAL":52,"TEXCOORD_0":53},"material":3}]},{"primitives":[{"mode":4,"attributes":{"POSITION":54,"NORMAL":55,"TEXCOORD_0":56},"material":3}]},{"primitives":[{"mode":4,"attributes":{"POSITION":57,"NORMAL":58,"TEXCOORD_0":59},"material":3}]},{"primitives":[{"mode":4,"attributes":{"POSITION":60,"NORMAL":61,"TEXCOORD_0":62},"material":4}]},{"primitives":[{"mode":4,"attributes":{"POSITION":63,"NORMAL":64,"TEXCOORD_0":65},"material":3}]},{"primitives":[{"mode":4,"attributes":{"POSITION":66,"NORMAL":67,"TEXCOORD_0":68},"material":3}]},{"primitives":[{"mode":4,"attributes":{"POSITION":69,"NORMAL":70,"TEXCOORD_0":71},"material":3}]},{"primitives":[{"mode":4,"attributes":{"POSITION":72,"NORMAL":73,"TEXCOORD_0":74},"material":3}]}]}