{"asset":{"version":"2.0","generator":"Blockbench 3.9.3 glTF exporter"},"scenes":[{"nodes":[1,2,3,4,5,6,7,8,9,10,11,12,13],"name":"blockbench_export"}],"scene":0,"nodes":[{"translation":[-0.29999999999999993,0.61875,0.09374999999999997],"name":"flower2"},{"translation":[0,-0.4375,0],"name":"Flower","children":[0]},{"rotation":[0,0,-0.2840153447039232,0.9588197348681928],"translation":[0.01868440152826608,1.0951561214934185,0.00006559847173398525],"name":"76d5f1e0-da0c-5dad-d6c1-a25b473d68ca","mesh":0},{"rotation":[-0.09257950137234972,-0.3713160989404751,-0.3007857543404395,0.8735452596054353],"translation":[0.01868440152826608,1.0951561214934185,0.00006559847173398525],"name":"5e36d5f6-5c8c-c5db-3223-4b51d02703ab","mesh":1},{"rotation":[0.13245326340251973,0.35903028064600684,-0.20389784309410652,0.9010988071098771],"translation":[0.01868440152826608,1.0951561214934185,0.00006559847173398525],"name":"0cba9fad-0adc-b3a2-8696-2442c2e0c0a3","mesh":2},{"rotation":[-0.12458953881643198,-0.36183429387529603,-0.22350668781086475,0.8964363619895677],"translation":[0.01868440152826608,1.0951561214934185,0.00006559847173398525],"name":"70e2d5b8-fb36-3673-6394-4382a56b1b57","mesh":3},{"rotation":[0.09257950137234972,0.3713160989404751,-0.3007857543404395,0.8735452596054353],"translation":[0.01868440152826608,1.0951561214934185,0.00006559847173398525],"name":"6e9d4138-4100-a9bb-bcc9-680ca79e0740","mesh":4},{"rotation":[0,0,-0.2840153447039232,0.9588197348681928],"translation":[0.01868440152826608,1.0951561214934185,0.00006559847173398525],"name":"08eeee49-d1c8-8403-e501-237fbcf2336f","mesh":5},{"rotation":[0,0,-0.2840153447039232,0.9588197348681928],"translation":[0.01868440152826608,1.0951561214934185,0.00006559847173398525],"name":"52942585-3229-d97f-2636-427560c31cca","mesh":6},{"rotation":[-0.20082917620117904,-0.6779879364607867,-0.20082917620117907,0.6779879364607868],"translation":[0.01868440152826608,1.0951561214934185,0.00006559847173398525],"name":"fb4f10db-031a-c53a-c5c2-0aac2ff49b2d","mesh":7},{"rotation":[0.22215751524107424,-0.27906198037484553,0.009098418073699308,0.9341775357605949],"translation":[-0.03568004968298878,0.7425855124563299,0.1736829068845478],"name":"923728d6-7e14-abfe-4ef2-f1e9526024a1","mesh":8},{"rotation":[0.26687767399252077,0.08414620738868192,0.08367385813378672,0.9563965748430145],"translation":[-0.03568004968298878,0.7425855124563299,0.1736829068845478],"name":"4a72571e-9fbe-2ec7-f372-8be7525caeb4","mesh":9},{"translation":[0,-0.4375,0],"name":"2f95a8cc-bbbc-db35-044c-f79740e91d66","mesh":10},{"name":"pot"}],"bufferViews":[{"buffer":0,"byteOffset":0,"byteLength":432,"target":34962,"byteStride":12},{"buffer":0,"byteOffset":432,"byteLength":432,"target":34962,"byteStride":12},{"buffer":0,"byteOffset":864,"byteLength":288,"target":34962,"byteStride":8},{"buffer":0,"byteOffset":1152,"byteLength":432,"target":34962,"byteStride":12},{"buffer":0,"byteOffset":1584,"byteLength":432,"target":34962,"byteStride":12},{"buffer":0,"byteOffset":2016,"byteLength":288,"target":34962,"byteStride":8},{"buffer":0,"byteOffset":2304,"byteLength":432,"target":34962,"byteStride":12},{"buffer":0,"byteOffset":2736,"byteLength":432,"target":34962,"byteStride":12},{"buffer":0,"byteOffset":3168,"byteLength":288,"target":34962,"byteStride":8},{"buffer":0,"byteOffset":3456,"byteLength":432,"target":34962,"byteStride":12},{"buffer":0,"byteOffset":3888,"byteLength":432,"target":34962,"byteStride":12},{"buffer":0,"byteOffset":4320,"byteLength":288,"target":34962,"byteStride":8},{"buffer":0,"byteOffset":4608,"byteLength":432,"target":34962,"byteStride":12},{"buffer":0,"byteOffset":5040,"byteLength":432,"target":34962,"byteStride":12},{"buffer":0,"byteOffset":5472,"byteLength":288,"target":34962,"byteStride":8},{"buffer":0,"byteOffset":5760,"byteLength":432,"target":34962,"byteStride":12},{"buffer":0,"byteOffset":6192,"byteLength":432,"target":34962,"byteStride":12},{"buffer":0,"byteOffset":6624,"byteLength":288,"target":34962,"byteStride":8},{"buffer":0,"byteOffset":6912,"byteLength":432,"target":34962,"byteStride":12},{"buffer":0,"byteOffset":7344,"byteLength":432,"target":34962,"byteStride":12},{"buffer":0,"byteOffset":7776,"byteLength":288,"target":34962,"byteStride":8},{"buffer":0,"byteOffset":8064,"byteLength":432,"target":34962,"byteStride":12},{"buffer":0,"byteOffset":8496,"byteLength":432,"target":34962,"byteStride":12},{"buffer":0,"byteOffset":8928,"byteLength":288,"target":34962,"byteStride":8},{"buffer":0,"byteOffset":9216,"byteLength":432,"target":34962,"byteStride":12},{"buffer":0,"byteOffset":9648,"byteLength":432,"target":34962,"byteStride":12},{"buffer":0,"byteOffset":10080,"byteLength":288,"target":34962,"byteStride":8},{"buffer":0,"byteOffset":10368,"byteLength":432,"target":34962,"byteStride":12},{"buffer":0,"byteOffset":10800,"byteLength":432,"target":34962,"byteStride":12},{"buffer":0,"byteOffset":11232,"byteLength":288,"target":34962,"byteStride":8},{"buffer":0,"byteOffset":11520,"byteLength":432,"target":34962,"byteStride":12},{"buffer":0,"byteOffset":11952,"byteLength":432,"target":34962,"byteStride":12},{"buffer":0,"byteOffset":12384,"byteLength":288,"target":34962,"byteStride":8}],"buffers":[{"byteLength":12672,"uri":"data:application/octet-stream;base64,"}],"accessors":[{"bufferView":0,"componentType":5126,"count":36,"max":[0.09381559491157532,0.08609388023614883,0.09368440508842468],"min":[-0.09368440508842468,-0.038906119763851166,-0.09381559491157532],"type":"VEC3"},{"bufferView":1,"componentType":5126,"count":36,"max":[1,1,1],"min":[-1,-1,-1],"type":"VEC3"},{"bufferView":2,"componentType":5126,"count":36,"max":[0.1875,1],"min":[0,0.8125],"type":"VEC2"},{"bufferView":3,"componentType":5126,"count":36,"max":[0.0319172739982605,0.023623012006282806,0.13740722835063934],"min":[-0.3430827260017395,-0.038876987993717194,-0.13759277760982513],"type":"VEC3"},{"bufferView":4,"componentType":5126,"count":36,"max":[1,1,1],"min":[-1,-1,-1],"type":"VEC3"},{"bufferView":5,"componentType":5126,"count":36,"max":[0.375,1],"min":[0,0.7250000238418579],"type":"VEC2"},{"bufferView":6,"componentType":5126,"count":36,"max":[0.34284263849258423,0.02364726923406124,0.13750000298023224],"min":[-0.03215734660625458,-0.03885273262858391,-0.13750000298023224],"type":"VEC3"},{"bufferView":7,"componentType":5126,"count":36,"max":[1,1,1],"min":[-1,-1,-1],"type":"VEC3"},{"bufferView":8,"componentType":5126,"count":36,"max":[0.375,1],"min":[0,0.7250000238418579],"type":"VEC2"},{"bufferView":9,"componentType":5126,"count":36,"max":[0.3430827260017395,0.023623012006282806,0.13740722835063934],"min":[-0.0319172739982605,-0.038876987993717194,-0.13759277760982513],"type":"VEC3"},{"bufferView":10,"componentType":5126,"count":36,"max":[1,1,1],"min":[-1,-1,-1],"type":"VEC3"},{"bufferView":11,"componentType":5126,"count":36,"max":[0.375,1],"min":[0,0.7250000238418579],"type":"VEC2"},{"bufferView":12,"componentType":5126,"count":36,"max":[0.03200969099998474,0.023631097748875618,0.13750000298023224],"min":[-0.34299030900001526,-0.03886890038847923,-0.13750000298023224],"type":"VEC3"},{"bufferView":13,"componentType":5126,"count":36,"max":[1,1,1],"min":[-1,-1,-1],"type":"VEC3"},{"bufferView":14,"componentType":5126,"count":36,"max":[0.375,1],"min":[0,0.7250000238418579],"type":"VEC2"},{"bufferView":15,"componentType":5126,"count":36,"max":[0.3438155949115753,0.023593878373503685,0.13743440806865692],"min":[-0.3436844050884247,-0.038906119763851166,-0.13756559789180756],"type":"VEC3"},{"bufferView":16,"componentType":5126,"count":36,"max":[1,1,1],"min":[-1,-1,-1],"type":"VEC3"},{"bufferView":17,"componentType":5126,"count":36,"max":[0.6875,1],"min":[0,0.7250000238418579],"type":"VEC2"},{"bufferView":18,"componentType":5126,"count":36,"max":[0.15631559491157532,-0.007656121626496315,0.13743440806865692],"min":[-0.15618440508842468,-0.07015611976385117,-0.13756559789180756],"type":"VEC3"},{"bufferView":19,"componentType":5126,"count":36,"max":[1,1,1],"min":[-1,-1,-1],"type":"VEC3"},{"bufferView":20,"componentType":5126,"count":36,"max":[0.3125,1],"min":[0,0.7250000238418579],"type":"VEC2"},{"bufferView":21,"componentType":5126,"count":36,"max":[0.3436844050884247,0.023593878373503685,0.13743440806865692],"min":[-0.3438155949115753,-0.038906119763851166,-0.13756559789180756],"type":"VEC3"},{"bufferView":22,"componentType":5126,"count":36,"max":[1,1,1],"min":[-1,-1,-1],"type":"VEC3"},{"bufferView":23,"componentType":5126,"count":36,"max":[0.6875,1],"min":[0,0.7250000238418579],"type":"VEC2"},{"bufferView":24,"componentType":5126,"count":36,"max":[0.09593049436807632,0.2638459801673889,0.018148021772503853],"min":[-0.09156950563192368,0.01384599320590496,0.0056480225175619125],"type":"VEC3"},{"bufferView":25,"componentType":5126,"count":36,"max":[1,1,1],"min":[-1,-1,-1],"type":"VEC3"},{"bufferView":26,"componentType":5126,"count":36,"max":[0.1875,1],"min":[0,0.75],"type":"VEC2"},{"bufferView":27,"componentType":5126,"count":36,"max":[0.016569508239626884,0.048288848251104355,0.02507680654525757],"min":[-0.020930491387844086,-0.32671114802360535,-0.012423194013535976],"type":"VEC3"},{"bufferView":28,"componentType":5126,"count":36,"max":[1,1,1],"min":[-1,-1,-1],"type":"VEC3"},{"bufferView":29,"componentType":5126,"count":36,"max":[0.03750000149011612,1],"min":[0,0.625],"type":"VEC2"},{"bufferView":30,"componentType":5126,"count":36,"max":[0.03125,1.5,0.03125],"min":[-0.03125,0.4375,-0.03125],"type":"VEC3"},{"bufferView":31,"componentType":5126,"count":36,"max":[1,1,1],"min":[-1,-1,-1],"type":"VEC3"},{"bufferView":32,"componentType":5126,"count":36,"max":[0.0625,1],"min":[0,0],"type":"VEC2"}],"materials":[{"pbrMetallicRoughness":{"metallicFactor":0,"roughnessFactor":1,"baseColorTexture":{"index":0}},"alphaMode":"MASK","alphaCutoff":0.05,"doubleSided":true},{"pbrMetallicRoughness":{"metallicFactor":0,"roughnessFactor":1,"baseColorTexture":{"index":1}},"alphaMode":"MASK","alphaCutoff":0.05,"doubleSided":true},{"pbrMetallicRoughness":{"metallicFactor":0,"roughnessFactor":1,"baseColorTexture":{"index":2}},"alphaMode":"MASK","alphaCutoff":0.05,"doubleSided":true}],"textures":[{"sampler":0,"source":0,"name":"pollen"},{"sampler":1,"source":1,"name":"leaf"},{"sampler":2,"source":2,"name":"stem"}],"samplers":[{"magFilter":9728,"minFilter":9728,"wrapS":33071,"wrapT":33071},{"magFilter":9728,"minFilter":9728,"wrapS":33071,"wrapT":33071},{"magFilter":9728,"minFilter":9728,"wrapS":33071,"wrapT":33071}],"images":[{"mimeType":"image/png","uri":"data:image/png;base64,"},{"mimeType":"image/png","uri":"data:image/png;base64,"},{"mimeType":"image/png","uri":"data:image/png;base64,"}],"meshes":[{"primitives":[{"mode":4,"attributes":{"POSITION":0,"NORMAL":1,"TEXCOORD_0":2},"material":0}]},{"primitives":[{"mode":4,"attributes":{"POSITION":3,"NORMAL":4,"TEXCOORD_0":5},"material":1}]},{"primitives":[{"mode":4,"attributes":{"POSITION":6,"NORMAL":7,"TEXCOORD_0":8},"material":1}]},{"primitives":[{"mode":4,"attributes":{"POSITION":9,"NORMAL":10,"TEXCOORD_0":11},"material":1}]},{"primitives":[{"mode":4,"attributes":{"POSITION":12,"NORMAL":13,"TEXCOORD_0":14},"material":1}]},{"primitives":[{"mode":4,"attributes":{"POSITION":15,"NORMAL":16,"TEXCOORD_0":17},"material":1}]},{"primitives":[{"mode":4,"attributes":{"POSITION":18,"NORMAL":19,"TEXCOORD_0":20},"material":1}]},{"primitives":[{"mode":4,"attributes":{"POSITION":21,"NORMAL":22,"TEXCOORD_0":23},"material":1}]},{"primitives":[{"mode":4,"attributes":{"POSITION":24,"NORMAL":25,"TEXCOORD_0":26},"material":2}]},{"primitives":[{"mode":4,"attributes":{"POSITION":27,"NORMAL":28,"TEXCOORD_0":29},"material":2}]},{"primitives":[{"mode":4,"attributes":{"POSITION":30,"NORMAL":31,"TEXCOORD_0":32},"material":2}]}]}