{"asset":{"version":"2.0","generator":"Blockbench 3.9.2 glTF exporter"},"scenes":[{"nodes":[0,1,2,3],"name":"blockbench_export"}],"scene":0,"nodes":[{"name":"5a6e5ebd-204a-ed1b-5ad3-5e78733fd979","mesh":0},{"name":"ede6858b-cb3b-17c9-48f9-1a77d84e8fe7","mesh":1},{"name":"e6dfdaaf-a1d9-021d-4b54-734afe0ba153","mesh":2},{"name":"04285b01-04cc-07ce-b977-2cf39a36357d","mesh":3}],"bufferViews":[{"buffer":0,"byteOffset":0,"byteLength":432,"target":34962,"byteStride":12},{"buffer":0,"byteOffset":432,"byteLength":432,"target":34962,"byteStride":12},{"buffer":0,"byteOffset":864,"byteLength":288,"target":34962,"byteStride":8},{"buffer":0,"byteOffset":1152,"byteLength":432,"target":34962,"byteStride":12},{"buffer":0,"byteOffset":1584,"byteLength":432,"target":34962,"byteStride":12},{"buffer":0,"byteOffset":2016,"byteLength":288,"target":34962,"byteStride":8},{"buffer":0,"byteOffset":2304,"byteLength":432,"target":34962,"byteStride":12},{"buffer":0,"byteOffset":2736,"byteLength":432,"target":34962,"byteStride":12},{"buffer":0,"byteOffset":3168,"byteLength":288,"target":34962,"byteStride":8},{"buffer":0,"byteOffset":3456,"byteLength":432,"target":34962,"byteStride":12},{"buffer":0,"byteOffset":3888,"byteLength":432,"target":34962,"byteStride":12},{"buffer":0,"byteOffset":4320,"byteLength":288,"target":34962,"byteStride":8}],"buffers":[{"byteLength":4608,"uri":"data:application/octet-stream;base64,"}],"accessors":[{"bufferView":0,"componentType":5126,"count":36,"max":[0.05000000074505806,0.08124999701976776,0.05624999850988388],"min":[-0.05000000074505806,0,-0.05624999850988388],"type":"VEC3"},{"bufferView":1,"componentType":5126,"count":36,"max":[1,1,1],"min":[-1,-1,-1],"type":"VEC3"},{"bufferView":2,"componentType":5126,"count":36,"max":[0.11249999701976776,1],"min":[0,0.887499988079071],"type":"VEC2"},{"bufferView":3,"componentType":5126,"count":36,"max":[0.03125,0.375,0.03125],"min":[-0.03125,0,-0.03125],"type":"VEC3"},{"bufferView":4,"componentType":5126,"count":36,"max":[1,1,1],"min":[-1,-1,-1],"type":"VEC3"},{"bufferView":5,"componentType":5126,"count":36,"max":[0.0625,1],"min":[0,0.625],"type":"VEC2"},{"bufferView":6,"componentType":5126,"count":36,"max":[0.03125,0.0625,0.15625],"min":[-0.03125,0,-0.15625],"type":"VEC3"},{"bufferView":7,"componentType":5126,"count":36,"max":[1,1,1],"min":[-1,-1,-1],"type":"VEC3"},{"bufferView":8,"componentType":5126,"count":36,"max":[0.3125,1],"min":[0,0.6875],"type":"VEC2"},{"bufferView":9,"componentType":5126,"count":36,"max":[0.15625,0.0625,0.03125],"min":[-0.15625,0,-0.03125],"type":"VEC3"},{"bufferView":10,"componentType":5126,"count":36,"max":[1,1,1],"min":[-1,-1,-1],"type":"VEC3"},{"bufferView":11,"componentType":5126,"count":36,"max":[0.3125,1],"min":[0,0.9375],"type":"VEC2"}],"materials":[{"pbrMetallicRoughness":{"metallicFactor":0,"roughnessFactor":1,"baseColorTexture":{"index":0}},"alphaMode":"MASK","alphaCutoff":0.05,"doubleSided":true}],"textures":[{"sampler":0,"source":0,"name":"texture"}],"samplers":[{"magFilter":9728,"minFilter":9728,"wrapS":33071,"wrapT":33071}],"images":[{"mimeType":"image/png","uri":"data:image/png;base64,"}],"meshes":[{"primitives":[{"mode":4,"attributes":{"POSITION":0,"NORMAL":1,"TEXCOORD_0":2},"material":0}]},{"primitives":[{"mode":4,"attributes":{"POSITION":3,"NORMAL":4,"TEXCOORD_0":5},"material":0}]},{"primitives":[{"mode":4,"attributes":{"POSITION":6,"NORMAL":7,"TEXCOORD_0":8},"material":0}]},{"primitives":[{"mode":4,"attributes":{"POSITION":9,"NORMAL":10,"TEXCOORD_0":11},"material":0}]}]}