{"asset":{"version":"2.0","generator":"Blockbench 3.9.3 glTF exporter"},"scenes":[{"nodes":[0,1,2,3,4],"name":"blockbench_export"}],"scene":0,"nodes":[{"translation":[-0.18125000000000002,0.60625,-6.938893903907228e-18],"name":"79fa5204-e66d-05ee-6a35-ef5b4447f144","mesh":0},{"translation":[-0.18125000000000002,0.60625,-6.938893903907228e-18],"name":"701ddb05-e618-59d5-8e91-6df9302c9ea8","mesh":1},{"rotation":[0,0,0.3826834323650898,0.9238795325112867],"translation":[-0.09833203675875439,0.5768631064928517,0],"name":"d8328f44-c7c4-12ca-e7db-0d3dcfda8323","mesh":2},{"rotation":[0,0,-0.3826834323650898,0.9238795325112867],"translation":[0,0.5625,0],"name":"cdcfa1bd-e0e1-b2f3-ab60-a6788b3817cb","mesh":3},{"translation":[0,-0.3125,0],"name":"0c784635-2b17-dcdb-358e-1c7a2fd77ee2","mesh":4}],"bufferViews":[{"buffer":0,"byteOffset":0,"byteLength":432,"target":34962,"byteStride":12},{"buffer":0,"byteOffset":432,"byteLength":432,"target":34962,"byteStride":12},{"buffer":0,"byteOffset":864,"byteLength":288,"target":34962,"byteStride":8},{"buffer":0,"byteOffset":1152,"byteLength":432,"target":34962,"byteStride":12},{"buffer":0,"byteOffset":1584,"byteLength":432,"target":34962,"byteStride":12},{"buffer":0,"byteOffset":2016,"byteLength":288,"target":34962,"byteStride":8},{"buffer":0,"byteOffset":2304,"byteLength":432,"target":34962,"byteStride":12},{"buffer":0,"byteOffset":2736,"byteLength":432,"target":34962,"byteStride":12},{"buffer":0,"byteOffset":3168,"byteLength":288,"target":34962,"byteStride":8},{"buffer":0,"byteOffset":3456,"byteLength":432,"target":34962,"byteStride":12},{"buffer":0,"byteOffset":3888,"byteLength":432,"target":34962,"byteStride":12},{"buffer":0,"byteOffset":4320,"byteLength":288,"target":34962,"byteStride":8},{"buffer":0,"byteOffset":4608,"byteLength":432,"target":34962,"byteStride":12},{"buffer":0,"byteOffset":5040,"byteLength":432,"target":34962,"byteStride":12},{"buffer":0,"byteOffset":5472,"byteLength":288,"target":34962,"byteStride":8}],"buffers":[{"byteLength":5760,"uri":"data:application/octet-stream;base64,"}],"accessors":[{"bufferView":0,"componentType":5126,"count":36,"max":[0.10000000149011612,-0.05000000074505806,0.012500000186264515],"min":[0.04374999925494194,-0.13750000298023224,-0.012500000186264515],"type":"VEC3"},{"bufferView":1,"componentType":5126,"count":36,"max":[1,1,1],"min":[-1,-1,-1],"type":"VEC3"},{"bufferView":2,"componentType":5126,"count":36,"max":[0.05624999850988388,1],"min":[0,0.9125000238418579],"type":"VEC2"},{"bufferView":3,"componentType":5126,"count":36,"max":[0.15625,0,0.012500000186264515],"min":[0.10000000149011612,-0.1875,-0.012500000186264515],"type":"VEC3"},{"bufferView":4,"componentType":5126,"count":36,"max":[1,1,1],"min":[-1,-1,-1],"type":"VEC3"},{"bufferView":5,"componentType":5126,"count":36,"max":[0.05624999850988388,1],"min":[0,0.8125],"type":"VEC2"},{"bufferView":6,"componentType":5126,"count":36,"max":[-0.06093750149011612,0.03125,0.012500000186264515],"min":[-0.12343750149011612,-0.21875,-0.012500000186264515],"type":"VEC3"},{"bufferView":7,"componentType":5126,"count":36,"max":[1,1,1],"min":[-1,-1,-1],"type":"VEC3"},{"bufferView":8,"componentType":5126,"count":36,"max":[0.0625,1],"min":[0,0.75],"type":"VEC2"},{"bufferView":9,"componentType":5126,"count":36,"max":[-0.04843749850988388,0.06718750298023224,0.012500000186264515],"min":[-0.11093749850988388,-0.18281249701976776,-0.012500000186264515],"type":"VEC3"},{"bufferView":10,"componentType":5126,"count":36,"max":[1,1,1],"min":[-1,-1,-1],"type":"VEC3"},{"bufferView":11,"componentType":5126,"count":36,"max":[0.0625,1],"min":[0,0.75],"type":"VEC2"},{"bufferView":12,"componentType":5126,"count":36,"max":[0.03125,1.024999976158142,0.03125],"min":[-0.03125,0.3125,-0.03125],"type":"VEC3"},{"bufferView":13,"componentType":5126,"count":36,"max":[1,1,1],"min":[-1,-1,-1],"type":"VEC3"},{"bufferView":14,"componentType":5126,"count":36,"max":[0.0625,1],"min":[0,0.2874999940395355],"type":"VEC2"}],"materials":[{"pbrMetallicRoughness":{"metallicFactor":0,"roughnessFactor":1,"baseColorTexture":{"index":0}},"alphaMode":"MASK","alphaCutoff":0.05,"doubleSided":true},{"pbrMetallicRoughness":{"metallicFactor":0,"roughnessFactor":1,"baseColorTexture":{"index":1}},"alphaMode":"MASK","alphaCutoff":0.05,"doubleSided":true}],"textures":[{"sampler":0,"source":0,"name":"flag"},{"sampler":1,"source":1,"name":"black"}],"samplers":[{"magFilter":9728,"minFilter":9728,"wrapS":33071,"wrapT":33071},{"magFilter":9728,"minFilter":9728,"wrapS":33071,"wrapT":33071}],"images":[{"mimeType":"image/png","uri":"data:image/png;base64,"},{"mimeType":"image/png","uri":"data:image/png;base64,"}],"meshes":[{"primitives":[{"mode":4,"attributes":{"POSITION":0,"NORMAL":1,"TEXCOORD_0":2},"material":0}]},{"primitives":[{"mode":4,"attributes":{"POSITION":3,"NORMAL":4,"TEXCOORD_0":5},"material":0}]},{"primitives":[{"mode":4,"attributes":{"POSITION":6,"NORMAL":7,"TEXCOORD_0":8},"material":0}]},{"primitives":[{"mode":4,"attributes":{"POSITION":9,"NORMAL":10,"TEXCOORD_0":11},"material":0}]},{"primitives":[{"mode":4,"attributes":{"POSITION":12,"NORMAL":13,"TEXCOORD_0":14},"material":1}]}]}