{"asset":{"version":"2.0","generator":"Blockbench 3.9.2 glTF exporter"},"scenes":[{"nodes":[0,1,2,3,4],"name":"blockbench_export"}],"scene":0,"nodes":[{"name":"7c46b347-5f07-bf4b-7518-baf8722ab0e3","mesh":0},{"name":"fab1228d-fa99-c2de-641c-9c6a67ef1a88","mesh":1},{"rotation":[-0.2588190451025207,0,0,0.9659258262890683],"name":"df8185fd-5166-2892-a213-7d1dc15ddf74","mesh":2},{"rotation":[0,0,-0.13052619222005157,0.9914448613738104],"name":"4eea3123-cc43-ad8e-7e8e-a22796cda02a","mesh":3},{"name":"448248b5-f4c7-b4a0-0bee-2c72d7f67e15","mesh":4}],"bufferViews":[{"buffer":0,"byteOffset":0,"byteLength":432,"target":34962,"byteStride":12},{"buffer":0,"byteOffset":432,"byteLength":432,"target":34962,"byteStride":12},{"buffer":0,"byteOffset":864,"byteLength":288,"target":34962,"byteStride":8},{"buffer":0,"byteOffset":1152,"byteLength":432,"target":34962,"byteStride":12},{"buffer":0,"byteOffset":1584,"byteLength":432,"target":34962,"byteStride":12},{"buffer":0,"byteOffset":2016,"byteLength":288,"target":34962,"byteStride":8},{"buffer":0,"byteOffset":2304,"byteLength":432,"target":34962,"byteStride":12},{"buffer":0,"byteOffset":2736,"byteLength":432,"target":34962,"byteStride":12},{"buffer":0,"byteOffset":3168,"byteLength":288,"target":34962,"byteStride":8},{"buffer":0,"byteOffset":3456,"byteLength":432,"target":34962,"byteStride":12},{"buffer":0,"byteOffset":3888,"byteLength":432,"target":34962,"byteStride":12},{"buffer":0,"byteOffset":4320,"byteLength":288,"target":34962,"byteStride":8},{"buffer":0,"byteOffset":4608,"byteLength":432,"target":34962,"byteStride":12},{"buffer":0,"byteOffset":5040,"byteLength":432,"target":34962,"byteStride":12},{"buffer":0,"byteOffset":5472,"byteLength":288,"target":34962,"byteStride":8}],"buffers":[{"byteLength":5760,"uri":"data:application/octet-stream;base64,"}],"accessors":[{"bufferView":0,"componentType":5126,"count":36,"max":[0.21250000596046448,1.162500023841858,0.21250000596046448],"min":[-0.21250000596046448,0.8812500238418579,-0.21250000596046448],"type":"VEC3"},{"bufferView":1,"componentType":5126,"count":36,"max":[1,1,1],"min":[-1,-1,-1],"type":"VEC3"},{"bufferView":2,"componentType":5126,"count":36,"max":[0.5625,1],"min":[0,0.4375],"type":"VEC2"},{"bufferView":3,"componentType":5126,"count":36,"max":[0.28125,1,0.28125],"min":[-0.28125,0.574999988079071,-0.28125],"type":"VEC3"},{"bufferView":4,"componentType":5126,"count":36,"max":[1,1,1],"min":[-1,-1,-1],"type":"VEC3"},{"bufferView":5,"componentType":5126,"count":36,"max":[0.5625,1],"min":[0,0.4375],"type":"VEC2"},{"bufferView":6,"componentType":5126,"count":36,"max":[0.01875000074505806,0.75,0.1875],"min":[0,0.375,0.15625],"type":"VEC3"},{"bufferView":7,"componentType":5126,"count":36,"max":[1,1,1],"min":[-1,-1,-1],"type":"VEC3"},{"bufferView":8,"componentType":5126,"count":36,"max":[0.03125,1],"min":[0,0.625],"type":"VEC2"},{"bufferView":9,"componentType":5126,"count":36,"max":[-0.03750000149011612,0.831250011920929,0.04374999925494194],"min":[-0.07500000298023224,0.28125,0.0062500000931322575],"type":"VEC3"},{"bufferView":10,"componentType":5126,"count":36,"max":[1,1,1],"min":[-1,-1,-1],"type":"VEC3"},{"bufferView":11,"componentType":5126,"count":36,"max":[0.05000000074505806,1],"min":[0,0.4375],"type":"VEC2"},{"bufferView":12,"componentType":5126,"count":36,"max":[0.06875000149011612,1.125,0.06875000149011612],"min":[-0.06875000149011612,0,-0.06875000149011612],"type":"VEC3"},{"bufferView":13,"componentType":5126,"count":36,"max":[1,1,1],"min":[-1,-1,-1],"type":"VEC3"},{"bufferView":14,"componentType":5126,"count":36,"max":[0.13750000298023224,1],"min":[0,0],"type":"VEC2"}],"materials":[{"pbrMetallicRoughness":{"metallicFactor":0,"roughnessFactor":1,"baseColorTexture":{"index":0}},"alphaMode":"MASK","alphaCutoff":0.05,"doubleSided":true},{"pbrMetallicRoughness":{"metallicFactor":0,"roughnessFactor":1,"baseColorTexture":{"index":1}},"alphaMode":"MASK","alphaCutoff":0.05,"doubleSided":true}],"textures":[{"sampler":0,"source":0,"name":"canopy"},{"sampler":1,"source":1,"name":"texture"}],"samplers":[{"magFilter":9728,"minFilter":9728,"wrapS":33071,"wrapT":33071},{"magFilter":9728,"minFilter":9728,"wrapS":33071,"wrapT":33071}],"images":[{"mimeType":"image/png","uri":"data:image/png;base64,"},{"mimeType":"image/png","uri":"data:image/png;base64,"}],"meshes":[{"primitives":[{"mode":4,"attributes":{"POSITION":0,"NORMAL":1,"TEXCOORD_0":2},"material":0}]},{"primitives":[{"mode":4,"attributes":{"POSITION":3,"NORMAL":4,"TEXCOORD_0":5},"material":0}]},{"primitives":[{"mode":4,"attributes":{"POSITION":6,"NORMAL":7,"TEXCOORD_0":8},"material":1}]},{"primitives":[{"mode":4,"attributes":{"POSITION":9,"NORMAL":10,"TEXCOORD_0":11},"material":1}]},{"primitives":[{"mode":4,"attributes":{"POSITION":12,"NORMAL":13,"TEXCOORD_0":14},"material":1}]}]}